base.ufo
<glyph name="numbersign" format="1">
  <advance width="595"/>
  <unicode hex="0023"/>
  <outline>
    <contour>
      <point x="26" y="259" type="line"/>
      <point x="511" y="259" type="line"/>
      <point x="515" y="279" type="line"/>
      <point x="31" y="279" type="line"/>
    </contour>
    <contour>
      <point x="103" y="473" type="line"/>
      <point x="588" y="473" type="line"/>
      <point x="592" y="493" type="line"/>
      <point x="108" y="493" type="line"/>
    </contour>
    <contour>
      <point x="335" y="39" type="line"/>
      <point x="335" y="39"/>
      <point x="552" y="722"/>
      <point x="552" y="722" type="curve"/>
      <point x="530" y="722" type="line"/>
      <point x="530" y="722"/>
      <point x="313" y="39"/>
      <point x="313" y="39" type="curve"/>
    </contour>
    <contour>
      <point x="95" y="46" type="line"/>
      <point x="95" y="46"/>
      <point x="308" y="722"/>
      <point x="308" y="722" type="curve"/>
      <point x="286" y="722" type="line"/>
      <point x="286" y="722"/>
      <point x="74" y="46"/>
      <point x="74" y="46" type="curve"/>
    </contour>
  </outline>
</glyph>
<glyph name="dollar" format="1">
  <advance width="520"/>
  <unicode hex="0024"/>
  <outline>
    <contour>
      <point x="69" y="99" type="line"/>
      <point x="69" y="192" type="line"/>
      <point x="49" y="192" type="line"/>
      <point x="49" y="99" type="line"/>
    </contour>
    <contour>
      <point x="434" y="631" type="line"/>
      <point x="434" y="548" type="line"/>
      <point x="454" y="548" type="line"/>
      <point x="454" y="631" type="line"/>
    </contour>
    <contour>
      <point x="255" y="-44" type="line"/>
      <point x="255" y="58" type="line"/>
      <point x="233" y="58" type="line"/>
      <point x="233" y="-44" type="line"/>
    </contour>
    <contour>
      <point x="267" y="672" type="line"/>
      <point x="267" y="774" type="line"/>
      <point x="245" y="774" type="line"/>
      <point x="245" y="672" type="line"/>
    </contour>
    <contour>
      <point x="49" y="99" type="line"/>
      <point x="103" y="72"/>
      <point x="168" y="48"/>
      <point x="243" y="48" type="curve" smooth="yes"/>
      <point x="369" y="48"/>
      <point x="470" y="95"/>
      <point x="470" y="196" type="curve" smooth="yes"/>
      <point x="470" y="295"/>
      <point x="379" y="338"/>
      <point x="274" y="383" type="curve" smooth="yes"/>
      <point x="181" y="423"/>
      <point x="96" y="456"/>
      <point x="96" y="543" type="curve" smooth="yes"/>
      <point x="96" y="621"/>
      <point x="167" y="663"/>
      <point x="261" y="663" type="curve" smooth="yes"/>
      <point x="332" y="663"/>
      <point x="382" y="647"/>
      <point x="443" y="614" type="curve"/>
      <point x="454" y="631" type="line"/>
      <point x="390" y="665"/>
      <point x="337" y="683"/>
      <point x="262" y="683" type="curve" smooth="yes"/>
      <point x="154" y="683"/>
      <point x="74" y="633"/>
      <point x="74" y="543" type="curve" smooth="yes"/>
      <point x="74" y="449"/>
      <point x="162" y="407"/>
      <point x="261" y="365" type="curve" smooth="yes"/>
      <point x="360" y="324"/>
      <point x="448" y="290"/>
      <point x="448" y="197" type="curve" smooth="yes"/>
      <point x="448" y="106"/>
      <point x="358" y="68"/>
      <point x="245" y="68" type="curve" smooth="yes"/>
      <point x="174" y="68"/>
      <point x="112" y="92"/>
      <point x="61" y="117" type="curve"/>
    </contour>
  </outline>
</glyph>
<glyph name="plus" format="1">
  <advance width="691"/>
  <unicode hex="002B"/>
  <outline>
    <contour>
      <point x="56" y="298" type="line"/>
      <point x="56" y="298"/>
      <point x="630" y="298"/>
      <point x="630" y="298" type="curve"/>
      <point x="630" y="320" type="line"/>
      <point x="630" y="320"/>
      <point x="56" y="320"/>
      <point x="56" y="320" type="curve"/>
    </contour>
    <contour>
      <point x="354" y="18" type="line"/>
      <point x="354" y="18"/>
      <point x="354" y="588"/>
      <point x="354" y="588" type="curve"/>
      <point x="332" y="588" type="line"/>
      <point x="332" y="588"/>
      <point x="332" y="18"/>
      <point x="332" y="18" type="curve"/>
    </contour>
  </outline>
</glyph>
<glyph name="period" format="1">
  <advance width="290"/>
  <unicode hex="002E"/>
  <outline>
    <contour>
      <point x="165" y="18" type="line" name="dot"/>
      <point x="165" y="30"/>
      <point x="157" y="37"/>
      <point x="145" y="37" type="curve" name="dot"/>
      <point x="134" y="37"/>
      <point x="128" y="29"/>
      <point x="128" y="18" type="curve" name="dot"/>
      <point x="165" y="18" type="line" name="dot"/>
      <point x="165" y="6"/>
      <point x="157" y="0"/>
      <point x="145" y="0" type="curve" name="dot"/>
      <point x="134" y="0"/>
      <point x="128" y="7"/>
      <point x="128" y="18" type="curve" name="dot"/>
    </contour>
  </outline>
</glyph>
<glyph name="colon" format="1">
  <advance width="290"/>
  <unicode hex="003A"/>
  <outline>
    <contour>
      <point x="165" y="18" type="line"/>
      <point x="165" y="30"/>
      <point x="157" y="37"/>
      <point x="145" y="37" type="curve"/>
      <point x="134" y="37"/>
      <point x="128" y="29"/>
      <point x="128" y="18" type="curve"/>
      <point x="165" y="18" type="line"/>
      <point x="165" y="6"/>
      <point x="157" y="0"/>
      <point x="145" y="0" type="curve"/>
      <point x="134" y="0"/>
      <point x="128" y="7"/>
      <point x="128" y="18" type="curve"/>
    </contour>
    <contour>
      <point x="165" y="410" type="line"/>
      <point x="165" y="422"/>
      <point x="157" y="429"/>
      <point x="145" y="429" type="curve"/>
      <point x="134" y="429"/>
      <point x="128" y="421"/>
      <point x="128" y="410" type="curve"/>
      <point x="165" y="410" type="line"/>
      <point x="165" y="398"/>
      <point x="157" y="392"/>
      <point x="145" y="392" type="curve"/>
      <point x="134" y="392"/>
      <point x="128" y="399"/>
      <point x="128" y="410" type="curve"/>
    </contour>
  </outline>
</glyph>
<glyph name="semicolon" format="1">
  <advance width="400"/>
  <unicode hex="003B"/>
  <outline>
    <contour>
      <point x="236" y="307" type="line" name="dot"/>
      <point x="236" y="319"/>
      <point x="228" y="326"/>
      <point x="216" y="326" type="curve" name="dot"/>
      <point x="205" y="326"/>
      <point x="199" y="318"/>
      <point x="199" y="307" type="curve" name="dot"/>
      <point x="236" y="307" type="line" name="dot"/>
      <point x="236" y="295"/>
      <point x="228" y="289"/>
      <point x="216" y="289" type="curve" name="dot"/>
      <point x="205" y="289"/>
      <point x="199" y="296"/>
      <point x="199" y="307" type="curve" name="dot"/>
    </contour>
    <contour>
      <point x="156" y="-99" type="line"/>
      <point x="264" y="82" type="line"/>
      <point x="234" y="82" type="line"/>
      <point x="130" y="-99" type="line"/>
    </contour>
  </outline>
</glyph>
<glyph name="A" format="1">
  <advance width="781"/>
  <unicode hex="0041"/>
  <outline>
    <contour>
      <point x="114" y="20" type="line"/>
      <point x="11" y="20" type="line" name="bll"/>
      <point x="11" y="0" type="line" name="bll"/>
      <point x="114" y="0" type="line"/>
    </contour>
    <contour>
      <point x="114" y="0" type="line"/>
      <point x="217" y="0" type="line" name="blr"/>
      <point x="217" y="20" type="line" name="blr"/>
      <point x="114" y="20" type="line"/>
    </contour>
    <contour>
      <point x="661" y="0" type="line"/>
      <point x="764" y="0" type="line" name="brr"/>
      <point x="764" y="20" type="line" name="brr"/>
      <point x="661" y="20" type="line"/>
    </contour>
    <contour>
      <point x="661" y="20" type="line"/>
      <point x="558" y="20" type="line" name="brl"/>
      <point x="558" y="0" type="line" name="brl"/>
      <point x="661" y="0" type="line"/>
    </contour>
    <contour>
      <point x="582" y="225" type="line" name="bar"/>
      <point x="208" y="225" type="line" name="bar"/>
      <point x="199" y="204" type="line" name="bar"/>
      <point x="589" y="204" type="line" name="bar"/>
    </contour>
    <contour>
      <point x="684" y="0" type="line" name="stem2"/>
      <point x="414" y="722" type="line" name="stem2"/>
      <point x="394" y="722" type="line" name="stem2"/>
      <point x="661" y="0" type="line" name="stem2"/>
    </contour>
    <contour>
      <point x="114" y="0" type="line" name="stem"/>
      <point x="412" y="722" type="line" name="stem"/>
      <point x="392" y="722" type="line" name="stem"/>
      <point x="90" y="0" type="line" name="stem"/>
    </contour>
  </outline>
</glyph>
<glyph name="D" format="1">
  <advance width="724"/>
  <unicode hex="0044"/>
  <outline>
    <contour>
      <point x="132" y="20" type="line"/>
      <point x="29" y="20" type="line" name="bll"/>
      <point x="29" y="0" type="line" name="bll"/>
      <point x="132" y="0" type="line"/>
    </contour>
    <contour>
      <point x="132" y="722" type="line"/>
      <point x="29" y="722" type="line" name="tll"/>
      <point x="29" y="702" type="line" name="tll"/>
      <point x="132" y="702" type="line"/>
    </contour>
    <contour>
      <point x="119" y="722" type="line" name="stem"/>
      <point x="119" y="0" type="line" name="stem"/>
      <point x="141" y="0" type="line" name="stem"/>
      <point x="141" y="722" type="line" name="stem"/>
    </contour>
    <contour>
      <point x="132" y="0" type="line" name=""/>
      <point x="332" y="0" type="line" smooth="yes" name=""/>
      <point x="544" y="0"/>
      <point x="646" y="130"/>
      <point x="646" y="350" type="curve" smooth="yes" name=""/>
      <point x="646" y="583"/>
      <point x="542" y="722"/>
      <point x="319" y="722" type="curve" smooth="yes" name="bow"/>
      <point x="132" y="722" type="line" name=""/>
      <point x="132" y="702" type="line" name=""/>
      <point x="318" y="702" type="line" smooth="yes" name="bow"/>
      <point x="528" y="702"/>
      <point x="624" y="569"/>
      <point x="624" y="349" type="curve" smooth="yes" name=""/>
      <point x="624" y="143"/>
      <point x="532" y="20"/>
      <point x="334" y="20" type="curve" smooth="yes" name=""/>
      <point x="132" y="20" type="line" name=""/>
    </contour>
  </outline>
</glyph>
<glyph name="E" format="1">
  <advance width="606"/>
  <unicode hex="0045"/>
  <outline>
    <contour>
      <point x="430" y="374" type="line"/>
      <point x="430" y="291" type="line"/>
      <point x="450" y="291" type="line"/>
      <point x="450" y="374" type="line"/>
    </contour>
    <contour>
      <point x="450" y="374" type="line"/>
      <point x="450" y="457" type="line"/>
      <point x="430" y="457" type="line"/>
      <point x="430" y="374" type="line"/>
    </contour>
    <contour>
      <point x="547" y="10" type="line"/>
      <point x="547" y="93" type="line"/>
      <point x="527" y="93" type="line"/>
      <point x="527" y="10" type="line"/>
    </contour>
    <contour>
      <point x="493" y="712" type="line"/>
      <point x="493" y="629" type="line"/>
      <point x="513" y="629" type="line"/>
      <point x="513" y="712" type="line"/>
    </contour>
    <contour>
      <point x="119" y="20" type="line"/>
      <point x="16" y="20" type="line"/>
      <point x="16" y="0" type="line"/>
      <point x="119" y="0" type="line"/>
    </contour>
    <contour>
      <point x="119" y="722" type="line"/>
      <point x="16" y="722" type="line"/>
      <point x="16" y="702" type="line"/>
      <point x="119" y="702" type="line"/>
    </contour>
    <contour>
      <point x="122" y="364" type="line"/>
      <point x="450" y="364" type="line"/>
      <point x="450" y="384" type="line"/>
      <point x="122" y="384" type="line"/>
    </contour>
    <contour>
      <point x="107" y="702" type="line"/>
      <point x="513" y="702" type="line"/>
      <point x="513" y="722" type="line"/>
      <point x="107" y="722" type="line"/>
    </contour>
    <contour>
      <point x="129" y="0" type="line"/>
      <point x="129" y="0"/>
      <point x="129" y="722"/>
      <point x="129" y="722" type="curve"/>
      <point x="107" y="722" type="line"/>
      <point x="107" y="0" type="line"/>
    </contour>
    <contour>
      <point x="107" y="0" type="line"/>
      <point x="547" y="0" type="line"/>
      <point x="547" y="20" type="line"/>
      <point x="107" y="20" type="line"/>
    </contour>
  </outline>
</glyph>
<glyph name="F" format="1">
  <advance width="581"/>
  <unicode hex="0046"/>
  <outline>
    <contour>
      <point x="131" y="0" type="line"/>
      <point x="234" y="0" type="line" name="blr"/>
      <point x="234" y="20" type="line" name="blr"/>
      <point x="131" y="20" type="line"/>
    </contour>
    <contour>
      <point x="457" y="374" type="line"/>
      <point x="457" y="457" type="line" name="crt"/>
      <point x="437" y="457" type="line" name="crt"/>
      <point x="437" y="374" type="line"/>
    </contour>
    <contour>
      <point x="131" y="722" type="line"/>
      <point x="28" y="722" type="line" name="tll"/>
      <point x="28" y="702" type="line" name="tll"/>
      <point x="131" y="702" type="line"/>
    </contour>
    <contour>
      <point x="437" y="374" type="line"/>
      <point x="437" y="291" type="line" name="crb"/>
      <point x="457" y="291" type="line" name="crb"/>
      <point x="457" y="374" type="line"/>
    </contour>
    <contour>
      <point x="131" y="20" type="line"/>
      <point x="28" y="20" type="line" name="bll"/>
      <point x="28" y="0" type="line" name="bll"/>
      <point x="131" y="0" type="line"/>
    </contour>
    <contour>
      <point x="510" y="712" type="line"/>
      <point x="510" y="629" type="line" name="trb"/>
      <point x="530" y="629" type="line" name="trb"/>
      <point x="530" y="712" type="line"/>
    </contour>
    <contour>
      <point x="135" y="364" type="line" name="armc"/>
      <point x="457" y="364" type="line" name="armc"/>
      <point x="457" y="384" type="line" name="armc"/>
      <point x="135" y="384" type="line" name="armc"/>
    </contour>
    <contour>
      <point x="142" y="0" type="line" name="stem"/>
      <point x="142" y="0"/>
      <point x="142" y="722"/>
      <point x="142" y="722" type="curve" name="stem"/>
      <point x="120" y="722" type="line" name="stem"/>
      <point x="120" y="0" type="line" name="stem"/>
    </contour>
    <contour>
      <point x="120" y="702" type="line" name="armt"/>
      <point x="530" y="702" type="line" name="armt"/>
      <point x="530" y="722" type="line" name="armt"/>
      <point x="120" y="722" type="line" name="armt"/>
    </contour>
  </outline>
</glyph>
<glyph name="H" format="1">
  <advance width="771"/>
  <unicode hex="0048"/>
  <outline>
    <contour>
      <point x="637" y="702" type="line"/>
      <point x="740" y="702" type="line" name="trr"/>
      <point x="740" y="722" type="line" name="trr"/>
      <point x="637" y="722" type="line"/>
    </contour>
    <contour>
      <point x="637" y="0" type="line"/>
      <point x="740" y="0" type="line" name="brr"/>
      <point x="740" y="20" type="line" name="brr"/>
      <point x="637" y="20" type="line"/>
    </contour>
    <contour>
      <point x="637" y="20" type="line"/>
      <point x="534" y="20" type="line" name="brl"/>
      <point x="534" y="0" type="line" name="brl"/>
      <point x="637" y="0" type="line"/>
    </contour>
    <contour>
      <point x="637" y="722" type="line"/>
      <point x="534" y="722" type="line" name="trl"/>
      <point x="534" y="702" type="line" name="trl"/>
      <point x="637" y="702" type="line"/>
    </contour>
    <contour>
      <point x="131" y="702" type="line"/>
      <point x="234" y="702" type="line" name="tlr"/>
      <point x="234" y="722" type="line" name="tlr"/>
      <point x="131" y="722" type="line"/>
    </contour>
    <contour>
      <point x="131" y="722" type="line"/>
      <point x="28" y="722" type="line" name="tll"/>
      <point x="28" y="702" type="line" name="tll"/>
      <point x="131" y="702" type="line"/>
    </contour>
    <contour>
      <point x="131" y="0" type="line"/>
      <point x="234" y="0" type="line" name="blr"/>
      <point x="234" y="20" type="line" name="blr"/>
      <point x="131" y="20" type="line"/>
    </contour>
    <contour>
      <point x="131" y="20" type="line"/>
      <point x="28" y="20" type="line" name="bll"/>
      <point x="28" y="0" type="line" name="bll"/>
      <point x="131" y="0" type="line"/>
    </contour>
    <contour>
      <point x="142" y="0" type="line" name="stem"/>
      <point x="142" y="0"/>
      <point x="142" y="722"/>
      <point x="142" y="722" type="curve" name="stem"/>
      <point x="120" y="722" type="line" name="stem"/>
      <point x="120" y="0" type="line" name="stem"/>
    </contour>
    <contour>
      <point x="634" y="373" type="curve"/>
      <point x="131" y="373" type="line"/>
      <point x="131" y="353" type="line"/>
      <point x="634" y="353" type="line"/>
      <point x="634" y="353"/>
      <point x="634" y="373"/>
    </contour>
    <contour>
      <point x="647" y="0" type="line" name="stem2"/>
      <point x="647" y="722" type="line" name="stem2"/>
      <point x="625" y="722" type="line" name="stem2"/>
      <point x="625" y="722"/>
      <point x="625" y="0"/>
      <point x="625" y="0" type="curve" name="stem2"/>
    </contour>
  </outline>
</glyph>
<glyph name="I" format="1">
  <advance width="290"/>
  <unicode hex="0049"/>
  <outline>
    <contour>
      <point x="142" y="722" type="line"/>
      <point x="39" y="722" type="line" name="tll"/>
      <point x="39" y="702" type="line" name="tll"/>
      <point x="142" y="702" type="line"/>
    </contour>
    <contour>
      <point x="142" y="702" type="line"/>
      <point x="245" y="702" type="line" name="trr"/>
      <point x="245" y="722" type="line" name="trr"/>
      <point x="142" y="722" type="line"/>
    </contour>
    <contour>
      <point x="142" y="0" type="line"/>
      <point x="245" y="0" type="line" name="brr"/>
      <point x="245" y="20" type="line" name="brr"/>
      <point x="142" y="20" type="line"/>
    </contour>
    <contour>
      <point x="142" y="20" type="line"/>
      <point x="39" y="20" type="line" name="bll"/>
      <point x="39" y="0" type="line" name="bll"/>
      <point x="142" y="0" type="line"/>
    </contour>
    <contour>
      <point x="152" y="0" type="line" name="stem"/>
      <point x="152" y="722" type="line" name="stem"/>
      <point x="130" y="722" type="line" name="stem"/>
      <point x="130" y="0" type="line" name="stem"/>
    </contour>
  </outline>
</glyph>
<glyph name="J" format="1">
  <advance width="436"/>
  <unicode hex="004A"/>
  <outline>
    <contour>
      <point x="331" y="722" type="line"/>
      <point x="228" y="722" type="line"/>
      <point x="228" y="702" type="line"/>
      <point x="331" y="702" type="line"/>
    </contour>
    <contour>
      <point x="331" y="702" type="line"/>
      <point x="434" y="702" type="line"/>
      <point x="434" y="722" type="line"/>
      <point x="331" y="722" type="line"/>
    </contour>
    <contour>
      <point x="77" y="44" type="line"/>
      <point x="108" y="14"/>
      <point x="137" y="0"/>
      <point x="180" y="0" type="curve" smooth="yes"/>
      <point x="291" y="0"/>
      <point x="341" y="91"/>
      <point x="341" y="212" type="curve" smooth="yes"/>
      <point x="341" y="722" type="line"/>
      <point x="319" y="722" type="line"/>
      <point x="319" y="212" type="line" smooth="yes"/>
      <point x="319" y="104"/>
      <point x="280" y="21"/>
      <point x="182" y="21" type="curve" smooth="yes"/>
      <point x="145" y="21"/>
      <point x="121" y="34"/>
      <point x="94" y="60" type="curve"/>
    </contour>
  </outline>
</glyph>
<glyph name="K" format="1">
  <advance width="687"/>
  <unicode hex="004B"/>
  <outline>
    <contour>
      <point x="559" y="20" type="line"/>
      <point x="456" y="20" type="line"/>
      <point x="456" y="0" type="line"/>
      <point x="558" y="0" type="line"/>
    </contour>
    <contour>
      <point x="536" y="722" type="line"/>
      <point x="433" y="722" type="line"/>
      <point x="433" y="702" type="line"/>
      <point x="536" y="702" type="line"/>
    </contour>
    <contour>
      <point x="559" y="0" type="line"/>
      <point x="662" y="0" type="line"/>
      <point x="662" y="20" type="line"/>
      <point x="559" y="20" type="line"/>
    </contour>
    <contour>
      <point x="536" y="702" type="line"/>
      <point x="639" y="702" type="line"/>
      <point x="639" y="722" type="line"/>
      <point x="536" y="722" type="line"/>
    </contour>
    <contour>
      <point x="127" y="722" type="line"/>
      <point x="24" y="722" type="line"/>
      <point x="24" y="702" type="line"/>
      <point x="127" y="702" type="line"/>
    </contour>
    <contour>
      <point x="127" y="702" type="line"/>
      <point x="230" y="702" type="line"/>
      <point x="230" y="722" type="line"/>
      <point x="127" y="722" type="line"/>
    </contour>
    <contour>
      <point x="127" y="0" type="line"/>
      <point x="230" y="0" type="line"/>
      <point x="230" y="20" type="line"/>
      <point x="127" y="20" type="line"/>
    </contour>
    <contour>
      <point x="127" y="20" type="line"/>
      <point x="24" y="20" type="line"/>
      <point x="24" y="0" type="line"/>
      <point x="127" y="0" type="line"/>
    </contour>
    <contour>
      <point x="536" y="722" type="line"/>
      <point x="128" y="380" type="line"/>
      <point x="160" y="380" type="line"/>
      <point x="573" y="722" type="line"/>
    </contour>
    <contour>
      <point x="138" y="0" type="line"/>
      <point x="138" y="0"/>
      <point x="138" y="722"/>
      <point x="138" y="722" type="curve"/>
      <point x="116" y="722" type="line"/>
      <point x="116" y="0" type="line"/>
    </contour>
    <contour>
      <point x="597" y="0" type="line"/>
      <point x="160" y="380" type="line"/>
      <point x="128" y="380" type="line"/>
      <point x="559" y="0" type="line"/>
    </contour>
  </outline>
</glyph>
<glyph name="L" format="1">
  <advance width="618"/>
  <unicode hex="004C"/>
  <outline>
    <contour>
      <point x="551" y="10" type="line"/>
      <point x="551" y="93" type="line" name="brt"/>
      <point x="531" y="93" type="line" name="brt"/>
      <point x="531" y="10" type="line"/>
    </contour>
    <contour>
      <point x="129" y="20" type="line"/>
      <point x="26" y="20" type="line" name="bll"/>
      <point x="26" y="0" type="line" name="bll"/>
      <point x="129" y="0" type="line"/>
    </contour>
    <contour>
      <point x="129" y="722" type="line"/>
      <point x="26" y="722" type="line" name="tll"/>
      <point x="26" y="702" type="line" name="tll"/>
      <point x="129" y="702" type="line"/>
    </contour>
    <contour>
      <point x="129" y="702" type="line"/>
      <point x="232" y="702" type="line" name="tlr"/>
      <point x="232" y="722" type="line" name="tlr"/>
      <point x="129" y="722" type="line"/>
    </contour>
    <contour>
      <point x="141" y="0" type="line" name="stem"/>
      <point x="141" y="722" type="line" name="stem"/>
      <point x="119" y="722" type="line" name="stem"/>
      <point x="119" y="0" type="line" name="stem"/>
    </contour>
    <contour>
      <point x="129" y="0" type="line" name="arm"/>
      <point x="551" y="0" type="line" name="arm"/>
      <point x="551" y="20" type="line" name="arm"/>
      <point x="129" y="20" type="line" name="arm"/>
    </contour>
  </outline>
</glyph>
<glyph name="M" format="1">
  <advance width="909"/>
  <unicode hex="004D"/>
  <outline>
    <contour>
      <point x="795" y="0" type="line"/>
      <point x="898" y="0" type="line"/>
      <point x="898" y="20" type="line"/>
      <point x="795" y="20" type="line"/>
    </contour>
    <contour>
      <point x="795" y="20" type="line"/>
      <point x="692" y="20" type="line"/>
      <point x="692" y="0" type="line"/>
      <point x="795" y="0" type="line"/>
    </contour>
    <contour>
      <point x="106" y="20" type="line"/>
      <point x="3" y="20" type="line"/>
      <point x="3" y="0" type="line"/>
      <point x="106" y="0" type="line"/>
    </contour>
    <contour>
      <point x="165" y="722" type="line"/>
      <point x="62" y="722" type="line"/>
      <point x="62" y="702" type="line"/>
      <point x="165" y="702" type="line"/>
    </contour>
    <contour>
      <point x="734" y="702" type="line"/>
      <point x="837" y="702" type="line"/>
      <point x="837" y="722" type="line"/>
      <point x="734" y="722" type="line"/>
    </contour>
    <contour>
      <point x="106" y="0" type="line"/>
      <point x="209" y="0" type="line"/>
      <point x="209" y="20" type="line"/>
      <point x="106" y="20" type="line"/>
    </contour>
    <contour>
      <point x="805" y="0" type="line"/>
      <point x="743" y="722" type="line"/>
      <point x="721" y="722" type="line"/>
      <point x="783" y="0" type="line"/>
    </contour>
    <contour>
      <point x="116" y="0" type="line"/>
      <point x="175" y="722" type="line"/>
      <point x="153" y="722" type="line"/>
      <point x="94" y="0" type="line"/>
    </contour>
    <contour>
      <point x="459" y="0" type="line"/>
      <point x="175" y="722" type="line"/>
      <point x="153" y="722" type="line"/>
      <point x="435" y="0" type="line"/>
    </contour>
    <contour>
      <point x="466" y="0" type="line"/>
      <point x="743" y="722" type="line"/>
      <point x="721" y="722" type="line"/>
      <point x="441" y="0" type="line"/>
    </contour>
  </outline>
</glyph>
<glyph name="N" format="1">
  <advance width="800"/>
  <unicode hex="004E"/>
  <outline>
    <contour>
      <point x="134" y="722" type="line"/>
      <point x="31" y="722" type="line"/>
      <point x="31" y="702" type="line"/>
      <point x="134" y="702" type="line"/>
    </contour>
    <contour>
      <point x="674" y="702" type="line"/>
      <point x="777" y="702" type="line"/>
      <point x="777" y="722" type="line"/>
      <point x="674" y="722" type="line"/>
    </contour>
    <contour>
      <point x="674" y="722" type="line"/>
      <point x="571" y="722" type="line"/>
      <point x="571" y="702" type="line"/>
      <point x="674" y="702" type="line"/>
    </contour>
    <contour>
      <point x="133" y="20" type="line"/>
      <point x="30" y="20" type="line"/>
      <point x="30" y="0" type="line"/>
      <point x="133" y="0" type="line"/>
    </contour>
    <contour>
      <point x="133" y="0" type="line"/>
      <point x="236" y="0" type="line"/>
      <point x="236" y="20" type="line"/>
      <point x="133" y="20" type="line"/>
    </contour>
    <contour>
      <point x="684" y="0" type="line"/>
      <point x="149" y="722" type="line"/>
      <point x="122" y="722" type="line"/>
      <point x="657" y="0" type="line"/>
    </contour>
    <contour>
      <point x="662" y="722" type="line"/>
      <point x="662" y="0" type="line"/>
      <point x="684" y="0" type="line"/>
      <point x="684" y="722" type="line"/>
    </contour>
    <contour>
      <point x="144" y="0" type="line"/>
      <point x="144" y="722" type="line"/>
      <point x="122" y="722" type="line"/>
      <point x="122" y="0" type="line"/>
    </contour>
  </outline>
</glyph>
<glyph name="O" format="1">
  <advance width="800"/>
  <unicode hex="004F"/>
  <outline>
    <contour>
      <point x="124" y="360" type="line"/>
      <point x="124" y="557"/>
      <point x="218" y="702"/>
      <point x="402" y="702" type="curve" smooth="yes"/>
      <point x="586" y="702"/>
      <point x="682" y="559"/>
      <point x="682" y="363" type="curve"/>
      <point x="682" y="166"/>
      <point x="589" y="20"/>
      <point x="405" y="20" type="curve" smooth="yes"/>
      <point x="220" y="20"/>
      <point x="124" y="163"/>
      <point x="124" y="360" type="curve"/>
      <point x="104" y="360" type="line"/>
      <point x="104" y="151"/>
      <point x="208" y="0"/>
      <point x="404" y="0" type="curve" smooth="yes"/>
      <point x="601" y="0"/>
      <point x="703" y="153"/>
      <point x="703" y="363" type="curve" smooth="yes"/>
      <point x="703" y="571"/>
      <point x="600" y="722"/>
      <point x="404" y="722" type="curve" smooth="yes"/>
      <point x="207" y="722"/>
      <point x="104" y="569"/>
      <point x="104" y="360" type="curve"/>
    </contour>
  </outline>
</glyph>
<glyph name="R" format="1">
  <advance width="681"/>
  <unicode hex="0052"/>
  <outline>
    <contour>
      <point x="562" y="0" type="line"/>
      <point x="665" y="0" type="line"/>
      <point x="665" y="20" type="line"/>
      <point x="562" y="20" type="line"/>
    </contour>
    <contour>
      <point x="112" y="722" type="line"/>
      <point x="9" y="722" type="line"/>
      <point x="9" y="702" type="line"/>
      <point x="112" y="702" type="line"/>
    </contour>
    <contour>
      <point x="112" y="20" type="line"/>
      <point x="9" y="20" type="line"/>
      <point x="9" y="0" type="line"/>
      <point x="112" y="0" type="line"/>
    </contour>
    <contour>
      <point x="112" y="0" type="line"/>
      <point x="215" y="0" type="line"/>
      <point x="215" y="20" type="line"/>
      <point x="112" y="20" type="line"/>
    </contour>
    <contour>
      <point x="306" y="354" type="line"/>
      <point x="562" y="0" type="line"/>
      <point x="589" y="0" type="line"/>
      <point x="333" y="354" type="line"/>
    </contour>
    <contour>
      <point x="124" y="0" type="line"/>
      <point x="124" y="722" type="line"/>
      <point x="102" y="722" type="line"/>
      <point x="102" y="0" type="line"/>
    </contour>
    <contour>
      <point x="115" y="341" type="line"/>
      <point x="285" y="341" type="line" smooth="yes"/>
      <point x="418" y="341"/>
      <point x="503" y="409"/>
      <point x="503" y="537" type="curve" smooth="yes"/>
      <point x="503" y="659"/>
      <point x="420" y="722"/>
      <point x="293" y="722" type="curve" smooth="yes"/>
      <point x="115" y="722" type="line"/>
      <point x="115" y="702" type="line"/>
      <point x="289" y="702" type="line" smooth="yes"/>
      <point x="405" y="702"/>
      <point x="481" y="645"/>
      <point x="481" y="535" type="curve" smooth="yes"/>
      <point x="481" y="422"/>
      <point x="405" y="361"/>
      <point x="288" y="361" type="curve" smooth="yes"/>
      <point x="115" y="361" type="line"/>
    </contour>
  </outline>
</glyph>
<glyph name="T" format="1">
  <advance width="692"/>
  <unicode hex="0054"/>
  <outline>
    <contour>
      <point x="43" y="712" type="line"/>
      <point x="43" y="629" type="line"/>
      <point x="63" y="629" type="line"/>
      <point x="63" y="712" type="line"/>
    </contour>
    <contour>
      <point x="626" y="712" type="line"/>
      <point x="626" y="629" type="line"/>
      <point x="646" y="629" type="line"/>
      <point x="646" y="712" type="line"/>
    </contour>
    <contour>
      <point x="335" y="0" type="line"/>
      <point x="438" y="0" type="line"/>
      <point x="438" y="20" type="line"/>
      <point x="335" y="20" type="line"/>
    </contour>
    <contour>
      <point x="335" y="20" type="line"/>
      <point x="232" y="20" type="line"/>
      <point x="232" y="0" type="line"/>
      <point x="335" y="0" type="line"/>
    </contour>
    <contour>
      <point x="347" y="0" type="line"/>
      <point x="347" y="710" type="line"/>
      <point x="325" y="710" type="line"/>
      <point x="325" y="0" type="line"/>
    </contour>
    <contour>
      <point x="43" y="700" type="line"/>
      <point x="646" y="700" type="line"/>
      <point x="646" y="722" type="line"/>
      <point x="43" y="722" type="line"/>
    </contour>
  </outline>
</glyph>
<glyph name="V" format="1">
  <advance width="762"/>
  <unicode hex="0056"/>
  <outline>
    <contour>
      <point x="652" y="722" type="line"/>
      <point x="549" y="722" type="line"/>
      <point x="549" y="702" type="line"/>
      <point x="652" y="702" type="line"/>
    </contour>
    <contour>
      <point x="110" y="722" type="line"/>
      <point x="7" y="722" type="line"/>
      <point x="7" y="702" type="line"/>
      <point x="110" y="702" type="line"/>
    </contour>
    <contour>
      <point x="652" y="702" type="line"/>
      <point x="755" y="702" type="line"/>
      <point x="755" y="722" type="line"/>
      <point x="652" y="722" type="line"/>
    </contour>
    <contour>
      <point x="110" y="702" type="line"/>
      <point x="213" y="702" type="line"/>
      <point x="213" y="722" type="line"/>
      <point x="110" y="722" type="line"/>
    </contour>
    <contour>
      <point x="652" y="722" type="line"/>
      <point x="374" y="0" type="line"/>
      <point x="399" y="0" type="line"/>
      <point x="676" y="722" type="line"/>
    </contour>
    <contour>
      <point x="86" y="722" type="line"/>
      <point x="368" y="0" type="line"/>
      <point x="392" y="0" type="line"/>
      <point x="110" y="722" type="line"/>
    </contour>
  </outline>
</glyph>
<glyph name="W" format="1">
  <advance width="959"/>
  <unicode hex="0057"/>
  <outline>
    <contour>
      <point x="484" y="702" type="line"/>
      <point x="587" y="702" type="line"/>
      <point x="587" y="722" type="line"/>
      <point x="484" y="722" type="line"/>
    </contour>
    <contour>
      <point x="484" y="722" type="line"/>
      <point x="381" y="722" type="line"/>
      <point x="381" y="702" type="line"/>
      <point x="484" y="702" type="line"/>
    </contour>
    <contour>
      <point x="112" y="702" type="line"/>
      <point x="215" y="702" type="line"/>
      <point x="215" y="722" type="line"/>
      <point x="112" y="722" type="line"/>
    </contour>
    <contour>
      <point x="112" y="722" type="line"/>
      <point x="9" y="722" type="line"/>
      <point x="9" y="702" type="line"/>
      <point x="112" y="702" type="line"/>
    </contour>
    <contour>
      <point x="848" y="722" type="line"/>
      <point x="745" y="722" type="line"/>
      <point x="745" y="702" type="line"/>
      <point x="848" y="702" type="line"/>
    </contour>
    <contour>
      <point x="848" y="702" type="line"/>
      <point x="951" y="702" type="line"/>
      <point x="951" y="722" type="line"/>
      <point x="848" y="722" type="line"/>
    </contour>
    <contour>
      <point x="292" y="0" type="line"/>
      <point x="495" y="722" type="line"/>
      <point x="472" y="723" type="line"/>
      <point x="272" y="1" type="line"/>
    </contour>
    <contour>
      <point x="477" y="722" type="line"/>
      <point x="660" y="0" type="line"/>
      <point x="681" y="0" type="line"/>
      <point x="500" y="722" type="line"/>
    </contour>
    <contour>
      <point x="88" y="722" type="line"/>
      <point x="270" y="0" type="line"/>
      <point x="291" y="0" type="line"/>
      <point x="111" y="722" type="line"/>
    </contour>
    <contour>
      <point x="849" y="722" type="line"/>
      <point x="661" y="0" type="line"/>
      <point x="682" y="0" type="line"/>
      <point x="872" y="722" type="line"/>
    </contour>
  </outline>
</glyph>
<glyph name="X" format="1">
  <advance width="743"/>
  <unicode hex="0058"/>
  <outline>
    <contour>
      <point x="121" y="0" type="line"/>
      <point x="224" y="0" type="line"/>
      <point x="224" y="20" type="line"/>
      <point x="121" y="20" type="line"/>
    </contour>
    <contour>
      <point x="121" y="20" type="line"/>
      <point x="18" y="20" type="line"/>
      <point x="18" y="0" type="line"/>
      <point x="121" y="0" type="line"/>
    </contour>
    <contour>
      <point x="620" y="0" type="line"/>
      <point x="723" y="0" type="line"/>
      <point x="723" y="20" type="line"/>
      <point x="620" y="20" type="line"/>
    </contour>
    <contour>
      <point x="620" y="20" type="line"/>
      <point x="517" y="20" type="line"/>
      <point x="517" y="0" type="line"/>
      <point x="620" y="0" type="line"/>
    </contour>
    <contour>
      <point x="594" y="702" type="line"/>
      <point x="697" y="702" type="line"/>
      <point x="697" y="722" type="line"/>
      <point x="594" y="722" type="line"/>
    </contour>
    <contour>
      <point x="594" y="722" type="line"/>
      <point x="491" y="722" type="line"/>
      <point x="491" y="702" type="line"/>
      <point x="594" y="702" type="line"/>
    </contour>
    <contour>
      <point x="151" y="722" type="line"/>
      <point x="48" y="722" type="line"/>
      <point x="48" y="702" type="line"/>
      <point x="151" y="702" type="line"/>
    </contour>
    <contour>
      <point x="151" y="702" type="line"/>
      <point x="254" y="702" type="line"/>
      <point x="254" y="722" type="line"/>
      <point x="151" y="722" type="line"/>
    </contour>
    <contour>
      <point x="594" y="722" type="line"/>
      <point x="95" y="0" type="line"/>
      <point x="124" y="0" type="line"/>
      <point x="620" y="722" type="line"/>
    </contour>
    <contour>
      <point x="128" y="722" type="line"/>
      <point x="620" y="0" type="line"/>
      <point x="648" y="0" type="line"/>
      <point x="154" y="722" type="line"/>
    </contour>
  </outline>
</glyph>
<glyph name="Z" format="1">
  <advance width="654"/>
  <unicode hex="005A"/>
  <outline>
    <contour>
      <point x="105" y="711" type="line"/>
      <point x="105" y="628" type="line"/>
      <point x="125" y="628" type="line"/>
      <point x="125" y="711" type="line"/>
    </contour>
    <contour>
      <point x="639" y="10" type="line"/>
      <point x="639" y="93" type="line"/>
      <point x="619" y="93" type="line"/>
      <point x="619" y="10" type="line"/>
    </contour>
    <contour>
      <point x="105" y="702" type="line"/>
      <point x="610" y="702" type="line"/>
      <point x="604" y="708" type="line"/>
      <point x="599" y="713" type="line"/>
      <point x="590" y="702" type="line"/>
      <point x="35" y="20" type="line"/>
      <point x="35" y="9" type="line"/>
      <point x="35.0" y="0.0" type="line"/>
      <point x="40.0" y="0.0" type="line"/>
      <point x="639.0" y="0.0" type="line"/>
      <point x="639" y="20" type="line"/>
      <point x="40" y="20" type="line"/>
      <point x="46" y="15" type="line"/>
      <point x="52" y="9" type="line"/>
      <point x="61" y="20" type="line"/>
      <point x="617" y="702" type="line"/>
      <point x="617" y="713" type="line"/>
      <point x="617.0" y="722.0" type="line"/>
      <point x="610.0" y="722.0" type="line"/>
      <point x="105.0" y="722.0" type="line"/>
    </contour>
  </outline>
</glyph>
<glyph name="bracketright" format="1">
  <advance width="267"/>
  <unicode hex="005D"/>
  <outline>
    <contour>
      <point x="42" y="749" type="line"/>
      <point x="195" y="749" type="line"/>
      <point x="186" y="757" type="line"/>
      <point x="177" y="766" type="line"/>
      <point x="177" y="-121" type="line"/>
      <point x="187" y="-111" type="line"/>
      <point x="196" y="-102" type="line"/>
      <point x="42" y="-102" type="line"/>
      <point x="42" y="-124" type="line"/>
      <point x="196" y="-124" type="line"/>
      <point x="199" y="-124" type="line"/>
      <point x="199" y="-121" type="line"/>
      <point x="199" y="766" type="line"/>
      <point x="199" y="771" type="line"/>
      <point x="195" y="771" type="line"/>
      <point x="42" y="771" type="line"/>
    </contour>
  </outline>
</glyph>
<glyph name="b" format="1">
  <advance width="654"/>
  <unicode hex="0062"/>
  <outline>
    <contour>
      <point x="141" y="800" type="line"/>
      <point x="38" y="800" type="line"/>
      <point x="38" y="780" type="line"/>
      <point x="141" y="780" type="line"/>
    </contour>
    <contour>
      <point x="145" y="409" type="line"/>
      <point x="184" y="458"/>
      <point x="260" y="513"/>
      <point x="352" y="513" type="curve" smooth="yes"/>
      <point x="482" y="513"/>
      <point x="548" y="404"/>
      <point x="548" y="263" type="curve" smooth="yes"/>
      <point x="551" y="124"/>
      <point x="480" y="19"/>
      <point x="351" y="20" type="curve" smooth="yes"/>
      <point x="267" y="20"/>
      <point x="205" y="48"/>
      <point x="147" y="109" type="curve"/>
      <point x="132" y="97" type="line"/>
      <point x="192" y="29"/>
      <point x="260" y="0"/>
      <point x="351" y="0" type="curve" smooth="yes"/>
      <point x="492" y="0"/>
      <point x="568" y="114"/>
      <point x="568" y="264" type="curve" smooth="yes"/>
      <point x="568" y="416"/>
      <point x="494" y="533"/>
      <point x="353" y="533" type="curve" smooth="yes"/>
      <point x="256" y="533"/>
      <point x="175" y="477"/>
      <point x="133" y="424" type="curve"/>
    </contour>
    <contour>
      <point x="150" y="0" type="line"/>
      <point x="150" y="800" type="line"/>
      <point x="128" y="800" type="line"/>
      <point x="128" y="0" type="line"/>
    </contour>
    <contour>
      <point x="141" y="20" type="line"/>
      <point x="38" y="20" type="line"/>
      <point x="38" y="0" type="line"/>
      <point x="141" y="0" type="line"/>
    </contour>
  </outline>
</glyph>
<glyph name="c" format="1">
  <advance width="545"/>
  <unicode hex="0063"/>
  <outline>
    <contour>
      <point x="459" y="473" type="line"/>
      <point x="459" y="390" type="line"/>
      <point x="479" y="390" type="line"/>
      <point x="479" y="473" type="line"/>
    </contour>
    <contour>
      <point x="479" y="473" type="line"/>
      <point x="435" y="509"/>
      <point x="377" y="533"/>
      <point x="318" y="533" type="curve" smooth="yes"/>
      <point x="164" y="533"/>
      <point x="97" y="431"/>
      <point x="97" y="267" type="curve" smooth="yes"/>
      <point x="97" y="103"/>
      <point x="162" y="0"/>
      <point x="316" y="0" type="curve" smooth="yes"/>
      <point x="383" y="0"/>
      <point x="448" y="30"/>
      <point x="490" y="82" type="curve"/>
      <point x="475" y="97" type="line"/>
      <point x="436" y="49"/>
      <point x="379" y="20"/>
      <point x="317" y="20" type="curve" smooth="yes"/>
      <point x="177" y="20"/>
      <point x="119" y="116"/>
      <point x="119" y="267" type="curve" smooth="yes"/>
      <point x="119" y="418"/>
      <point x="177" y="513"/>
      <point x="317" y="513" type="curve" smooth="yes"/>
      <point x="372" y="513"/>
      <point x="425" y="492"/>
      <point x="466" y="459" type="curve"/>
    </contour>
  </outline>
</glyph>
<glyph name="d" format="1">
  <advance width="641"/>
  <unicode hex="0064"/>
  <outline>
    <contour>
      <point x="532" y="800" type="line"/>
      <point x="429" y="800" type="line" name="trl"/>
      <point x="429" y="780" type="line" name="trl"/>
      <point x="532" y="780" type="line"/>
    </contour>
    <contour>
      <point x="533" y="0" type="line"/>
      <point x="636" y="0" type="line" name="brr"/>
      <point x="636" y="20" type="line" name="brr"/>
      <point x="533" y="20" type="line"/>
    </contour>
    <contour>
      <point x="540" y="448" type="line"/>
      <point x="488" y="505"/>
      <point x="422" y="533"/>
      <point x="340" y="533" type="curve" smooth="yes" name="bow"/>
      <point x="188" y="533"/>
      <point x="96" y="421"/>
      <point x="96" y="264" type="curve" smooth="yes"/>
      <point x="96" y="109"/>
      <point x="191" y="0"/>
      <point x="343" y="0" type="curve" smooth="yes"/>
      <point x="433" y="0"/>
      <point x="496" y="41"/>
      <point x="540" y="119" type="curve"/>
      <point x="526" y="133" type="line"/>
      <point x="483" y="60"/>
      <point x="425" y="20"/>
      <point x="341" y="20" type="curve" smooth="yes"/>
      <point x="202" y="20"/>
      <point x="118" y="122"/>
      <point x="118" y="265" type="curve" smooth="yes"/>
      <point x="118" y="409"/>
      <point x="201" y="513"/>
      <point x="340" y="513" type="curve" smooth="yes" name="bow"/>
      <point x="417" y="513"/>
      <point x="479" y="488"/>
      <point x="526" y="433" type="curve"/>
    </contour>
    <contour>
      <point x="544" y="0" type="line" name="stem"/>
      <point x="544" y="800" type="line" name="stem"/>
      <point x="521" y="800" type="line" name="stem"/>
      <point x="521" y="0" type="line" name="stem"/>
    </contour>
  </outline>
</glyph>
<glyph name="h" format="1">
  <advance width="618"/>
  <unicode hex="0068"/>
  <outline>
    <contour>
      <point x="500" y="0" type="line"/>
      <point x="603" y="0" type="line" name="brr"/>
      <point x="603" y="20" type="line" name="brr"/>
      <point x="500" y="20" type="line"/>
    </contour>
    <contour>
      <point x="129" y="0" type="line"/>
      <point x="222" y="0" type="line" name="blr"/>
      <point x="222" y="20" type="line" name="blr"/>
      <point x="129" y="20" type="line"/>
    </contour>
    <contour>
      <point x="129" y="800" type="line"/>
      <point x="26" y="800" type="line" name="tll"/>
      <point x="26" y="780" type="line" name="tll"/>
      <point x="129" y="780" type="line"/>
    </contour>
    <contour>
      <point x="129" y="20" type="line"/>
      <point x="26" y="20" type="line" name="bll"/>
      <point x="26" y="0" type="line" name="bll"/>
      <point x="129" y="0" type="line"/>
    </contour>
    <contour>
      <point x="500" y="20" type="line"/>
      <point x="407" y="20" type="line" name="brl"/>
      <point x="407" y="0" type="line" name="brl"/>
      <point x="500" y="0" type="line"/>
    </contour>
    <contour>
      <point x="135" y="355" type="line"/>
      <point x="168" y="443"/>
      <point x="246" y="513"/>
      <point x="339" y="513" type="curve" smooth="yes" name="bow"/>
      <point x="441" y="513"/>
      <point x="490" y="447"/>
      <point x="490" y="342" type="curve" smooth="yes"/>
      <point x="490" y="0" type="line"/>
      <point x="512" y="0" type="line"/>
      <point x="512" y="344" type="line" smooth="yes"/>
      <point x="512" y="462"/>
      <point x="455" y="533"/>
      <point x="341" y="533" type="curve" smooth="yes" name="bow"/>
      <point x="239" y="533"/>
      <point x="151" y="463"/>
      <point x="123" y="365" type="curve"/>
    </contour>
    <contour>
      <point x="140" y="0" type="line" name="stem"/>
      <point x="140" y="800" type="line" name="stem"/>
      <point x="118" y="800" type="line" name="stem"/>
      <point x="118" y="0" type="line" name="stem"/>
    </contour>
  </outline>
</glyph>
<glyph name="k" format="1">
  <advance width="586"/>
  <unicode hex="006B"/>
  <outline>
    <contour>
      <point x="128" y="20" type="line"/>
      <point x="25" y="20" type="line"/>
      <point x="25" y="0" type="line"/>
      <point x="128" y="0" type="line"/>
    </contour>
    <contour>
      <point x="511" y="0" type="line"/>
      <point x="614" y="0" type="line"/>
      <point x="614" y="20" type="line"/>
      <point x="511" y="20" type="line"/>
    </contour>
    <contour>
      <point x="511" y="20" type="line"/>
      <point x="408" y="20" type="line"/>
      <point x="408" y="0" type="line"/>
      <point x="511" y="0" type="line"/>
    </contour>
    <contour>
      <point x="485" y="513" type="line"/>
      <point x="588" y="513" type="line"/>
      <point x="588" y="533" type="line"/>
      <point x="485" y="533" type="line"/>
    </contour>
    <contour>
      <point x="128" y="0" type="line"/>
      <point x="231" y="0" type="line"/>
      <point x="231" y="20" type="line"/>
      <point x="128" y="20" type="line"/>
    </contour>
    <contour>
      <point x="485" y="533" type="line"/>
      <point x="382" y="533" type="line"/>
      <point x="382" y="513" type="line"/>
      <point x="485" y="513" type="line"/>
    </contour>
    <contour>
      <point x="130" y="800" type="line"/>
      <point x="27" y="800" type="line"/>
      <point x="27" y="780" type="line"/>
      <point x="130" y="780" type="line"/>
    </contour>
    <contour>
      <point x="140" y="0" type="line"/>
      <point x="140" y="0"/>
      <point x="140" y="800"/>
      <point x="140" y="800" type="curve"/>
      <point x="118" y="800" type="line"/>
      <point x="118" y="0" type="line"/>
    </contour>
    <contour>
      <point x="485" y="533" type="line"/>
      <point x="131" y="275" type="line"/>
      <point x="168" y="275" type="line"/>
      <point x="522" y="533" type="line"/>
    </contour>
    <contour>
      <point x="548" y="0" type="line"/>
      <point x="168" y="275" type="line"/>
      <point x="131" y="275" type="line"/>
      <point x="511" y="0" type="line"/>
    </contour>
  </outline>
</glyph>
<glyph name="m" format="1">
  <advance width="981"/>
  <unicode hex="006D"/>
  <outline>
    <contour>
      <point x="461" y="0" type="line"/>
      <point x="554" y="0" type="line"/>
      <point x="554" y="20" type="line"/>
      <point x="461" y="20" type="line"/>
    </contour>
    <contour>
      <point x="461" y="20" type="line"/>
      <point x="368" y="20" type="line"/>
      <point x="368" y="0" type="line"/>
      <point x="461" y="0" type="line"/>
    </contour>
    <contour>
      <point x="794" y="0" type="line"/>
      <point x="897" y="0" type="line"/>
      <point x="897" y="20" type="line"/>
      <point x="794" y="20" type="line"/>
    </contour>
    <contour>
      <point x="129" y="20" type="line"/>
      <point x="26" y="20" type="line"/>
      <point x="26" y="0" type="line"/>
      <point x="129" y="0" type="line"/>
    </contour>
    <contour>
      <point x="129" y="0" type="line"/>
      <point x="222" y="0" type="line"/>
      <point x="222" y="20" type="line"/>
      <point x="129" y="20" type="line"/>
    </contour>
    <contour>
      <point x="129" y="533" type="line"/>
      <point x="26" y="533" type="line"/>
      <point x="26" y="513" type="line"/>
      <point x="129" y="513" type="line"/>
    </contour>
    <contour>
      <point x="794" y="20" type="line"/>
      <point x="701" y="20" type="line"/>
      <point x="701" y="0" type="line"/>
      <point x="794" y="0" type="line"/>
    </contour>
    <contour>
      <point x="467" y="355" type="line"/>
      <point x="500" y="444"/>
      <point x="557" y="513"/>
      <point x="649" y="513" type="curve" smooth="yes"/>
      <point x="750" y="513"/>
      <point x="782" y="451"/>
      <point x="782" y="342" type="curve" smooth="yes"/>
      <point x="782" y="0" type="line"/>
      <point x="804" y="0" type="line"/>
      <point x="804" y="344" type="line" smooth="yes"/>
      <point x="804" y="465"/>
      <point x="766" y="533"/>
      <point x="653" y="533" type="curve" smooth="yes"/>
      <point x="552" y="533"/>
      <point x="483" y="464"/>
      <point x="455" y="365" type="curve"/>
    </contour>
    <contour>
      <point x="135" y="355" type="line"/>
      <point x="169" y="445"/>
      <point x="224" y="513"/>
      <point x="317" y="513" type="curve" smooth="yes"/>
      <point x="417" y="513"/>
      <point x="450" y="451"/>
      <point x="450" y="342" type="curve" smooth="yes"/>
      <point x="450" y="0" type="line"/>
      <point x="472" y="0" type="line"/>
      <point x="472" y="344" type="line" smooth="yes"/>
      <point x="472" y="465"/>
      <point x="434" y="533"/>
      <point x="321" y="533" type="curve" smooth="yes"/>
      <point x="219" y="533"/>
      <point x="152" y="465"/>
      <point x="123" y="365" type="curve"/>
    </contour>
    <contour>
      <point x="140" y="0" type="line"/>
      <point x="140" y="533" type="line"/>
      <point x="118" y="533" type="line"/>
      <point x="118" y="0" type="line"/>
    </contour>
  </outline>
</glyph>
<glyph name="p" format="1">
  <advance width="627"/>
  <unicode hex="0070"/>
  <outline>
    <contour>
      <point x="127" y="-280" type="line"/>
      <point x="24" y="-280" type="line"/>
      <point x="24" y="-300" type="line"/>
      <point x="127" y="-300" type="line"/>
    </contour>
    <contour>
      <point x="127" y="-300" type="line"/>
      <point x="220" y="-300" type="line"/>
      <point x="220" y="-280" type="line"/>
      <point x="127" y="-280" type="line"/>
    </contour>
    <contour>
      <point x="128" y="533" type="line"/>
      <point x="25" y="533" type="line"/>
      <point x="25" y="513" type="line"/>
      <point x="128" y="513" type="line"/>
    </contour>
    <contour>
      <point x="133" y="409" type="line"/>
      <point x="172" y="458"/>
      <point x="248" y="513"/>
      <point x="340" y="513" type="curve" smooth="yes"/>
      <point x="470" y="513"/>
      <point x="536" y="404"/>
      <point x="536" y="263" type="curve" smooth="yes"/>
      <point x="539" y="124"/>
      <point x="468" y="19"/>
      <point x="339" y="20" type="curve" smooth="yes"/>
      <point x="255" y="20"/>
      <point x="193" y="48"/>
      <point x="135" y="109" type="curve"/>
      <point x="120" y="97" type="line"/>
      <point x="180" y="29"/>
      <point x="248" y="0"/>
      <point x="339" y="0" type="curve" smooth="yes"/>
      <point x="480" y="0"/>
      <point x="556" y="114"/>
      <point x="556" y="264" type="curve" smooth="yes"/>
      <point x="556" y="416"/>
      <point x="482" y="533"/>
      <point x="341" y="533" type="curve" smooth="yes"/>
      <point x="244" y="533"/>
      <point x="163" y="477"/>
      <point x="121" y="424" type="curve"/>
    </contour>
    <contour>
      <point x="138" y="-300" type="line"/>
      <point x="138" y="533" type="line"/>
      <point x="116" y="533" type="line"/>
      <point x="116" y="-300" type="line"/>
    </contour>
  </outline>
</glyph>
<glyph name="q" format="1">
  <advance width="654"/>
  <unicode hex="0071"/>
  <outline>
    <contour>
      <point x="534" y="513" type="line"/>
      <point x="627" y="513" type="line"/>
      <point x="627" y="533" type="line"/>
      <point x="534" y="533" type="line"/>
    </contour>
    <contour>
      <point x="534" y="-280" type="line"/>
      <point x="431" y="-280" type="line"/>
      <point x="431" y="-300" type="line"/>
      <point x="534" y="-300" type="line"/>
    </contour>
    <contour>
      <point x="534" y="-300" type="line"/>
      <point x="627" y="-300" type="line"/>
      <point x="627" y="-280" type="line"/>
      <point x="534" y="-280" type="line"/>
    </contour>
    <contour>
      <point x="540" y="448" type="line"/>
      <point x="488" y="505"/>
      <point x="422" y="533"/>
      <point x="340" y="533" type="curve" smooth="yes"/>
      <point x="188" y="533"/>
      <point x="97" y="421"/>
      <point x="97" y="264" type="curve" smooth="yes"/>
      <point x="97" y="109"/>
      <point x="191" y="0"/>
      <point x="343" y="0" type="curve" smooth="yes"/>
      <point x="433" y="0"/>
      <point x="496" y="41"/>
      <point x="540" y="119" type="curve"/>
      <point x="526" y="133" type="line"/>
      <point x="483" y="60"/>
      <point x="425" y="20"/>
      <point x="341" y="20" type="curve" smooth="yes"/>
      <point x="202" y="20"/>
      <point x="118" y="122"/>
      <point x="118" y="265" type="curve" smooth="yes"/>
      <point x="118" y="409"/>
      <point x="201" y="513"/>
      <point x="340" y="513" type="curve" smooth="yes"/>
      <point x="417" y="513"/>
      <point x="479" y="488"/>
      <point x="526" y="433" type="curve"/>
    </contour>
    <contour>
      <point x="544" y="-300" type="line"/>
      <point x="544" y="533" type="line"/>
      <point x="521" y="533" type="line"/>
      <point x="521" y="-300" type="line"/>
    </contour>
  </outline>
</glyph>
<glyph name="r" format="1">
  <advance width="405"/>
  <unicode hex="0072"/>
  <outline>
    <contour>
      <point x="129" y="0" type="line"/>
      <point x="222" y="0" type="line" name="brr"/>
      <point x="222" y="20" type="line" name="brr"/>
      <point x="129" y="20" type="line"/>
    </contour>
    <contour>
      <point x="129" y="20" type="line"/>
      <point x="26" y="20" type="line" name="bll"/>
      <point x="26" y="0" type="line" name="bll"/>
      <point x="129" y="0" type="line"/>
    </contour>
    <contour>
      <point x="128" y="533" type="line"/>
      <point x="25" y="533" type="line" name="tll"/>
      <point x="25" y="513" type="line" name="tll"/>
      <point x="128" y="513" type="line"/>
    </contour>
    <contour>
      <point x="140" y="0" type="line" name="stem"/>
      <point x="140" y="533" type="line" name="stem"/>
      <point x="118" y="533" type="line" name="stem"/>
      <point x="118" y="0" type="line" name="stem"/>
    </contour>
    <contour>
      <point x="134" y="403" type="line" name="bow"/>
      <point x="185" y="492"/>
      <point x="274" y="513"/>
      <point x="378" y="513" type="curve" name="bow"/>
      <point x="378" y="533" type="line" name="bow"/>
      <point x="268" y="533"/>
      <point x="173" y="511"/>
      <point x="125" y="415" type="curve" name="bow"/>
    </contour>
  </outline>
</glyph>
<glyph name="v" format="1">
  <advance width="666"/>
  <unicode hex="0076"/>
  <outline>
    <contour>
      <point x="132" y="533" type="line"/>
      <point x="29" y="533" type="line"/>
      <point x="29" y="513" type="line"/>
      <point x="132" y="513" type="line"/>
    </contour>
    <contour>
      <point x="132" y="513" type="line"/>
      <point x="235" y="513" type="line"/>
      <point x="235" y="533" type="line"/>
      <point x="132" y="533" type="line"/>
    </contour>
    <contour>
      <point x="541" y="533" type="line"/>
      <point x="438" y="533" type="line"/>
      <point x="438" y="513" type="line"/>
      <point x="541" y="513" type="line"/>
    </contour>
    <contour>
      <point x="541" y="513" type="line"/>
      <point x="644" y="513" type="line"/>
      <point x="644" y="533" type="line"/>
      <point x="541" y="533" type="line"/>
    </contour>
    <contour>
      <point x="110" y="533" type="line"/>
      <point x="318" y="0" type="line"/>
      <point x="340" y="0" type="line"/>
      <point x="134" y="533" type="line"/>
    </contour>
    <contour>
      <point x="540" y="533" type="line"/>
      <point x="540" y="533"/>
      <point x="322" y="0"/>
      <point x="322" y="0" type="curve"/>
      <point x="345" y="0" type="line"/>
      <point x="563" y="533" type="line"/>
    </contour>
  </outline>
</glyph>
<glyph name="w" format="1">
  <advance width="969"/>
  <unicode hex="0077"/>
  <outline>
    <contour>
      <point x="488" y="533" type="line"/>
      <point x="385" y="533" type="line"/>
      <point x="385" y="513" type="line"/>
      <point x="488" y="513" type="line"/>
    </contour>
    <contour>
      <point x="488" y="513" type="line"/>
      <point x="591" y="513" type="line"/>
      <point x="591" y="533" type="line"/>
      <point x="488" y="533" type="line"/>
    </contour>
    <contour>
      <point x="849" y="513" type="line"/>
      <point x="952" y="513" type="line"/>
      <point x="952" y="533" type="line"/>
      <point x="849" y="533" type="line"/>
    </contour>
    <contour>
      <point x="849" y="533" type="line"/>
      <point x="746" y="533" type="line"/>
      <point x="746" y="513" type="line"/>
      <point x="849" y="513" type="line"/>
    </contour>
    <contour>
      <point x="114" y="533" type="line"/>
      <point x="11" y="533" type="line"/>
      <point x="11" y="513" type="line"/>
      <point x="114" y="513" type="line"/>
    </contour>
    <contour>
      <point x="114" y="513" type="line"/>
      <point x="217" y="513" type="line"/>
      <point x="217" y="533" type="line"/>
      <point x="114" y="533" type="line"/>
    </contour>
    <contour>
      <point x="294" y="0" type="line"/>
      <point x="497" y="533" type="line"/>
      <point x="473" y="533" type="line"/>
      <point x="273" y="0" type="line"/>
    </contour>
    <contour>
      <point x="850" y="533" type="line"/>
      <point x="663" y="0" type="line"/>
      <point x="684" y="0" type="line"/>
      <point x="874" y="533" type="line"/>
    </contour>
    <contour>
      <point x="479" y="533" type="line"/>
      <point x="662" y="0" type="line"/>
      <point x="683" y="0" type="line"/>
      <point x="502" y="533" type="line"/>
    </contour>
    <contour>
      <point x="90" y="533" type="line"/>
      <point x="272" y="0" type="line"/>
      <point x="293" y="0" type="line"/>
      <point x="113" y="533" type="line"/>
    </contour>
  </outline>
</glyph>
<glyph name="y" format="1">
  <advance width="638"/>
  <unicode hex="0079"/>
  <outline>
    <contour>
      <point x="144" y="-280" type="line"/>
      <point x="41" y="-280" type="line" name="bll"/>
      <point x="41" y="-300" type="line" name="bll"/>
      <point x="144" y="-300" type="line"/>
    </contour>
    <contour>
      <point x="121" y="533" type="line"/>
      <point x="18" y="533" type="line" name="tll"/>
      <point x="18" y="513" type="line" name="tll"/>
      <point x="121" y="513" type="line"/>
    </contour>
    <contour>
      <point x="121" y="513" type="line"/>
      <point x="224" y="513" type="line" name="tlr"/>
      <point x="224" y="533" type="line" name="tlr"/>
      <point x="121" y="533" type="line"/>
    </contour>
    <contour>
      <point x="526" y="533" type="line"/>
      <point x="423" y="533" type="line" name="trl"/>
      <point x="423" y="513" type="line" name="trl"/>
      <point x="526" y="513" type="line"/>
    </contour>
    <contour>
      <point x="526" y="513" type="line"/>
      <point x="629" y="513" type="line" name="trr"/>
      <point x="629" y="533" type="line" name="trr"/>
      <point x="526" y="533" type="line"/>
    </contour>
    <contour>
      <point x="326" y="77" type="line" name="stem2"/>
      <point x="121" y="533" type="line" name="stem2"/>
      <point x="96" y="533" type="line" name="stem2"/>
      <point x="305" y="77" type="line" name="stem2"/>
    </contour>
    <contour>
      <point x="144" y="-300" type="line" name="stem"/>
      <point x="550" y="533" type="line" name="stem"/>
      <point x="526" y="533" type="line" name="stem"/>
      <point x="119" y="-300" type="line" name="stem"/>
    </contour>
  </outline>
</glyph>
<glyph name="z" format="1">
  <advance width="581"/>
  <unicode hex="007A"/>
  <outline>
    <contour>
      <point x="105" y="513" type="line"/>
      <point x="476" y="513" type="line"/>
      <point x="470" y="519" type="line"/>
      <point x="465" y="524" type="line"/>
      <point x="456" y="513" type="line"/>
      <point x="55" y="20" type="line"/>
      <point x="55" y="9" type="line"/>
      <point x="55" y="0" type="line"/>
      <point x="60" y="0" type="line"/>
      <point x="512" y="0" type="line"/>
      <point x="512" y="20" type="line"/>
      <point x="60" y="20" type="line"/>
      <point x="66" y="15" type="line"/>
      <point x="72" y="9" type="line"/>
      <point x="81" y="20" type="line"/>
      <point x="483" y="513" type="line"/>
      <point x="483" y="524" type="line"/>
      <point x="483" y="533" type="line"/>
      <point x="476" y="533" type="line"/>
      <point x="105" y="533" type="line"/>
    </contour>
    <contour>
      <point x="105" y="522" type="line"/>
      <point x="105" y="439" type="line"/>
      <point x="125" y="439" type="line"/>
      <point x="125" y="522" type="line"/>
    </contour>
    <contour>
      <point x="512" y="10" type="line"/>
      <point x="512" y="93" type="line"/>
      <point x="492" y="93" type="line"/>
      <point x="492" y="10" type="line"/>
    </contour>
  </outline>
</glyph>
<glyph name="currency" format="1">
  <advance width="513"/>
  <unicode hex="00A4"/>
  <outline>
    <contour>
      <point x="371" y="417" type="line"/>
      <point x="467" y="512" type="line"/>
      <point x="452" y="528" type="line"/>
      <point x="356" y="433" type="line"/>
    </contour>
    <contour>
      <point x="57" y="94" type="line"/>
      <point x="152" y="188" type="line"/>
      <point x="138" y="205" type="line"/>
      <point x="42" y="110" type="line"/>
    </contour>
    <contour>
      <point x="362" y="189" type="line"/>
      <point x="457" y="94" type="line"/>
      <point x="473" y="109" type="line"/>
      <point x="377" y="205" type="line"/>
    </contour>
    <contour>
      <point x="49" y="511" type="line"/>
      <point x="144" y="416" type="line"/>
      <point x="160" y="431" type="line"/>
      <point x="64" y="527" type="line"/>
    </contour>
    <contour>
      <point x="122" y="312" type="curve" smooth="yes"/>
      <point x="122" y="398"/>
      <point x="175" y="458"/>
      <point x="259" y="458" type="curve" smooth="yes"/>
      <point x="343" y="459"/>
      <point x="395" y="397"/>
      <point x="394" y="310" type="curve"/>
      <point x="394" y="222"/>
      <point x="348" y="156"/>
      <point x="265" y="156" type="curve" smooth="yes"/>
      <point x="177" y="156"/>
      <point x="122" y="221"/>
    </contour>
    <contour>
      <point x="101" y="310" type="curve"/>
      <point x="99" y="208"/>
      <point x="162" y="134"/>
      <point x="262" y="135" type="curve" smooth="yes"/>
      <point x="358" y="135"/>
      <point x="415" y="210"/>
      <point x="415" y="311" type="curve" smooth="yes"/>
      <point x="415" y="409"/>
      <point x="357" y="479"/>
      <point x="262" y="479" type="curve" smooth="yes"/>
      <point x="163" y="480"/>
      <point x="99" y="410"/>
    </contour>
  </outline>
</glyph>
<glyph name="logicalnot" format="1">
  <advance width="1024"/>
  <unicode hex="00AC"/>
  <outline>
    <contour>
      <point x="153" y="644" type="line"/>
      <point x="126" y="506" type="line"/>
      <point x="728" y="513" type="line"/>
      <point x="740" y="201" type="line"/>
      <point x="864" y="179" type="line"/>
      <point x="864" y="644" type="line"/>
    </contour>
  </outline>
</glyph>
<glyph name="softhyphen" format="1">
  <advance width="841"/>
  <unicode hex="00AD"/>
  <outline>
    <contour>
      <point x="199" y="607" type="line"/>
      <point x="165" y="443" type="line"/>
      <point x="286" y="443"/>
      <point x="537" y="459"/>
      <point x="649" y="478" type="curve"/>
      <point x="673" y="607" type="line"/>
    </contour>
  </outline>
</glyph>
<glyph name="degree" format="1">
  <advance width="381"/>
  <unicode hex="00B0"/>
  <outline>
    <contour>
      <point x="34" y="468" type="curve"/>
      <point x="32" y="366"/>
      <point x="95" y="292"/>
      <point x="195" y="293" type="curve" smooth="yes"/>
      <point x="291" y="293"/>
      <point x="348" y="368"/>
      <point x="348" y="469" type="curve" smooth="yes"/>
      <point x="348" y="567"/>
      <point x="290" y="637"/>
      <point x="195" y="637" type="curve" smooth="yes"/>
      <point x="96" y="638"/>
      <point x="32" y="568"/>
    </contour>
    <contour>
      <point x="55" y="470" type="curve" smooth="yes"/>
      <point x="55" y="556"/>
      <point x="108" y="616"/>
      <point x="192" y="616" type="curve" smooth="yes"/>
      <point x="276" y="617"/>
      <point x="328" y="555"/>
      <point x="327" y="468" type="curve"/>
      <point x="327" y="380"/>
      <point x="281" y="314"/>
      <point x="198" y="314" type="curve" smooth="yes"/>
      <point x="110" y="314"/>
      <point x="55" y="379"/>
    </contour>
  </outline>
</glyph>
<glyph name="paragraph" format="1">
  <advance width="1391"/>
  <unicode hex="00B6"/>
  <outline>
    <contour>
      <point x="583" y="-35" type="line"/>
      <point x="762" y="21" type="line"/>
      <point x="762" y="1225" type="line"/>
      <point x="944" y="1225" type="line"/>
      <point x="943" y="-35" type="line"/>
      <point x="1122" y="21" type="line"/>
      <point x="1122" y="1245" type="line"/>
      <point x="1300" y="1299" type="line"/>
      <point x="1314" y="1384" type="line"/>
      <point x="658" y="1384" type="line" smooth="yes"/>
      <point x="435" y="1384"/>
      <point x="293" y="1353"/>
      <point x="204" y="1285" type="curve" smooth="yes"/>
      <point x="122" y="1222"/>
      <point x="85" y="1131"/>
      <point x="85" y="997" type="curve" smooth="yes"/>
      <point x="85" y="885"/>
      <point x="122" y="802"/>
      <point x="202" y="730" type="curve" smooth="yes"/>
      <point x="291" y="652"/>
      <point x="415" y="616"/>
      <point x="595" y="616" type="curve"/>
    </contour>
  </outline>
</glyph>
<glyph name="ordmasculine" format="1">
  <advance width="950"/>
  <unicode hex="00BA"/>
  <outline>
    <contour>
      <point x="138" y="748"/>
      <point x="290" y="639"/>
      <point x="479" y="639" type="curve" smooth="yes"/>
      <point x="663" y="639"/>
      <point x="808" y="837"/>
      <point x="808" y="1057" type="curve" smooth="yes"/>
      <point x="808" y="1307"/>
      <point x="656" y="1419"/>
      <point x="475" y="1419" type="curve" smooth="yes"/>
      <point x="275" y="1419"/>
      <point x="138" y="1216"/>
      <point x="138" y="1000" type="curve" smooth="yes"/>
    </contour>
    <contour>
      <point x="345" y="752"/>
      <point x="270" y="940"/>
      <point x="270" y="1093" type="curve" smooth="yes"/>
      <point x="270" y="1161"/>
      <point x="290" y="1242"/>
      <point x="323" y="1275" type="curve"/>
      <point x="339" y="1293"/>
      <point x="371" y="1307"/>
      <point x="415" y="1307" type="curve" smooth="yes"/>
      <point x="596" y="1307"/>
      <point x="676" y="1127"/>
      <point x="676" y="965" type="curve" smooth="yes"/>
      <point x="676" y="906"/>
      <point x="658" y="814"/>
      <point x="622" y="782" type="curve"/>
      <point x="598" y="759"/>
      <point x="560" y="752"/>
      <point x="531" y="752" type="curve" smooth="yes"/>
    </contour>
    <contour>
      <point x="173" y="533" type="line"/>
      <point x="148" y="415" type="line"/>
      <point x="308" y="415"/>
      <point x="565" y="419"/>
      <point x="789" y="434" type="curve"/>
      <point x="816" y="533" type="line"/>
    </contour>
  </outline>
</glyph>
<glyph name="onehalf" format="1">
  <advance width="868"/>
  <unicode hex="00BD"/>
  <outline>
    <contour>
      <point x="513" y="23" type="line"/>
      <point x="513" y="2" type="line"/>
      <point x="826" y="2" type="line"/>
      <point x="826" y="23" type="line"/>
    </contour>
    <contour>
      <point x="588" y="59"/>
      <point x="641" y="90"/>
      <point x="699" y="142" type="curve" smooth="yes"/>
      <point x="752" y="189"/>
      <point x="801" y="227"/>
      <point x="801" y="298" type="curve" smooth="yes"/>
      <point x="801" y="369"/>
      <point x="752" y="415"/>
      <point x="680" y="415" type="curve" smooth="yes"/>
      <point x="617" y="415"/>
      <point x="573" y="384"/>
      <point x="542" y="329" type="curve"/>
      <point x="559" y="317" type="line"/>
      <point x="586" y="366"/>
      <point x="624" y="394"/>
      <point x="679" y="394" type="curve" smooth="yes"/>
      <point x="740" y="394"/>
      <point x="782" y="355"/>
      <point x="782" y="295" type="curve" smooth="yes"/>
      <point x="782" y="230"/>
      <point x="734" y="198"/>
      <point x="685" y="155" type="curve" smooth="yes"/>
      <point x="626" y="103"/>
      <point x="574" y="73"/>
      <point x="513" y="23" type="curve"/>
      <point x="527" y="11" type="line"/>
    </contour>
    <contour>
      <point x="91" y="513" type="line"/>
      <point x="207" y="608" type="line"/>
      <point x="207" y="225" type="line"/>
      <point x="229" y="225" type="line"/>
      <point x="229" y="635" type="line"/>
      <point x="207" y="635" type="line"/>
      <point x="77" y="530" type="line"/>
    </contour>
    <component base="fraction" xOffset="138" yOffset="-94"/>
  </outline>
</glyph>
<glyph name="Icircumflex" format="1">
  <advance width="720"/>
  <unicode hex="00CE"/>
  <outline>
    <contour>
      <point x="55" y="1570" type="line"/>
      <point x="117" y="1504" type="line"/>
      <point x="360" y="1634" type="line"/>
      <point x="603" y="1504" type="line"/>
      <point x="666" y="1570" type="line"/>
      <point x="409" y="1785" type="line"/>
      <point x="311" y="1785" type="line"/>
    </contour>
    <contour>
      <point x="263" y="140" type="line"/>
      <point x="85" y="87" type="line"/>
      <point x="68" y="0" type="line"/>
      <point x="628" y="0" type="line"/>
      <point x="648" y="84" type="line"/>
      <point x="455" y="140" type="line"/>
      <point x="455" y="1244" type="line"/>
      <point x="636" y="1299" type="line"/>
      <point x="652" y="1384" type="line"/>
      <point x="92" y="1384" type="line"/>
      <point x="75" y="1301" type="line"/>
      <point x="265" y="1243" type="line"/>
    </contour>
  </outline>
</glyph>
<glyph name="Eth" format="1">
  <advance width="1429"/>
  <unicode hex="00D0"/>
  <outline>
    <contour>
      <point x="922" y="1365"/>
      <point x="715" y="1384"/>
      <point x="532" y="1384" type="curve" smooth="yes"/>
      <point x="93" y="1384" type="line"/>
      <point x="76" y="1302" type="line"/>
      <point x="263" y="1246" type="line"/>
      <point x="263" y="757" type="line"/>
      <point x="125" y="757" type="line"/>
      <point x="94" y="614" type="line"/>
      <point x="263" y="620" type="line"/>
      <point x="263" y="139" type="line"/>
      <point x="88" y="85" type="line"/>
      <point x="71" y="0" type="line"/>
      <point x="452" y="0" type="line" smooth="yes"/>
      <point x="703" y="0"/>
      <point x="983" y="4"/>
      <point x="1159" y="186" type="curve" smooth="yes"/>
      <point x="1290" y="324"/>
      <point x="1336" y="522"/>
      <point x="1336" y="704" type="curve" smooth="yes"/>
      <point x="1336" y="937"/>
      <point x="1260" y="1138"/>
      <point x="1070" y="1266" type="curve" smooth="yes"/>
    </contour>
    <contour>
      <point x="455" y="627" type="line"/>
      <point x="725" y="636" type="line"/>
      <point x="749" y="757" type="line"/>
      <point x="455" y="757" type="line"/>
      <point x="455" y="1301" type="line"/>
      <point x="616" y="1282"/>
      <point x="785" y="1242"/>
      <point x="884" y="1180" type="curve" smooth="yes"/>
      <point x="1050" y="1076"/>
      <point x="1130" y="915"/>
      <point x="1130" y="697" type="curve" smooth="yes"/>
      <point x="1130" y="278"/>
      <point x="921" y="146"/>
      <point x="455" y="87" type="curve"/>
    </contour>
  </outline>
</glyph>
<glyph name="germandbls" format="1">
  <advance width="1197"/>
  <unicode hex="00DF"/>
  <outline>
    <contour>
      <point x="221" y="136" type="line"/>
      <point x="75" y="88" type="line"/>
      <point x="59" y="0" type="line"/>
      <point x="424" y="0" type="line"/>
      <point x="400" y="125" type="line"/>
      <point x="400" y="1067" type="line" smooth="yes"/>
      <point x="400" y="1212"/>
      <point x="410" y="1280"/>
      <point x="454" y="1336" type="curve"/>
      <point x="469" y="1352"/>
      <point x="514" y="1368"/>
      <point x="591" y="1368" type="curve" smooth="yes"/>
      <point x="731" y="1368"/>
      <point x="865" y="1295"/>
      <point x="865" y="1140" type="curve" smooth="yes"/>
      <point x="865" y="1121"/>
      <point x="865" y="1092"/>
      <point x="849" y="1078" type="curve" smooth="yes"/>
      <point x="799" y="1032"/>
      <point x="587" y="935"/>
      <point x="587" y="752" type="curve" smooth="yes"/>
      <point x="587" y="612"/>
      <point x="668" y="534"/>
      <point x="788" y="457" type="curve" smooth="yes"/>
      <point x="883" y="395"/>
      <point x="978" y="336"/>
      <point x="978" y="215" type="curve" smooth="yes"/>
      <point x="978" y="182"/>
      <point x="970" y="143"/>
      <point x="946" y="127" type="curve" smooth="yes"/>
      <point x="917" y="108"/>
      <point x="825" y="89"/>
      <point x="710" y="89" type="curve"/>
      <point x="680" y="272" type="line"/>
      <point x="579" y="295" type="line"/>
      <point x="542" y="80" type="line"/>
      <point x="633" y="5"/>
      <point x="740" y="-25"/>
      <point x="859" y="-25" type="curve" smooth="yes"/>
      <point x="1031" y="-25"/>
      <point x="1159" y="51"/>
      <point x="1159" y="238" type="curve" smooth="yes"/>
      <point x="1159" y="390"/>
      <point x="1052" y="491"/>
      <point x="941" y="565" type="curve" smooth="yes"/>
      <point x="806" y="656"/>
      <point x="744" y="697"/>
      <point x="744" y="777" type="curve" smooth="yes"/>
      <point x="744" y="968"/>
      <point x="1009" y="951"/>
      <point x="1009" y="1195" type="curve" smooth="yes"/>
      <point x="1009" y="1370"/>
      <point x="867" y="1485"/>
      <point x="669" y="1485" type="curve" smooth="yes"/>
      <point x="539" y="1485"/>
      <point x="427" y="1438"/>
      <point x="360" y="1371" type="curve" smooth="yes"/>
      <point x="267" y="1281"/>
      <point x="221" y="1158"/>
      <point x="221" y="1006" type="curve" smooth="yes"/>
      <point x="221" y="950" type="line"/>
      <point x="73" y="950" type="line"/>
      <point x="55" y="861" type="line"/>
      <point x="221" y="811" type="line"/>
    </contour>
  </outline>
</glyph>
<glyph name="thorn" format="1">
  <advance width="1112"/>
  <unicode hex="00FE"/>
  <outline>
    <contour>
      <point x="626" y="-397" type="line"/>
      <point x="378" y="-350" type="line"/>
      <point x="378" y="80" type="line"/>
      <point x="432" y="6"/>
      <point x="523" y="-26"/>
      <point x="619" y="-26" type="curve" smooth="yes"/>
      <point x="696" y="-26"/>
      <point x="770" y="9"/>
      <point x="826" y="53" type="curve" smooth="yes"/>
      <point x="952" y="151"/>
      <point x="1033" y="326"/>
      <point x="1033" y="506" type="curve" smooth="yes"/>
      <point x="1033" y="800"/>
      <point x="906" y="973"/>
      <point x="695" y="973" type="curve" smooth="yes"/>
      <point x="578" y="973"/>
      <point x="468" y="897"/>
      <point x="378" y="835" type="curve"/>
      <point x="378" y="1472" type="line"/>
      <point x="54" y="1412" type="line"/>
      <point x="44" y="1365" type="line"/>
      <point x="199" y="1287" type="line"/>
      <point x="199" y="-340" type="line"/>
      <point x="54" y="-386" type="line"/>
      <point x="39" y="-475" type="line"/>
      <point x="610" y="-475" type="line"/>
    </contour>
    <contour>
      <point x="378" y="770" type="line"/>
      <point x="467" y="802"/>
      <point x="555" y="831"/>
      <point x="638" y="831" type="curve" smooth="yes"/>
      <point x="661" y="831"/>
      <point x="683" y="826"/>
      <point x="704" y="810" type="curve" smooth="yes"/>
      <point x="787" y="745"/>
      <point x="856" y="616"/>
      <point x="856" y="426" type="curve" smooth="yes"/>
      <point x="856" y="276"/>
      <point x="809" y="148"/>
      <point x="771" y="132" type="curve" smooth="yes"/>
      <point x="753" y="124"/>
      <point x="720" y="118"/>
      <point x="679" y="118" type="curve" smooth="yes"/>
      <point x="598" y="118"/>
      <point x="449" y="144"/>
      <point x="378" y="240" type="curve"/>
    </contour>
  </outline>
</glyph>
<glyph name="Amacron" format="1">
  <advance width="1336"/>
  <unicode hex="0100"/>
  <outline>
    <contour>
      <point x="919" y="1671" type="line"/>
      <point x="404" y="1671" type="line"/>
      <point x="376" y="1540" type="line"/>
      <point x="496" y="1540"/>
      <point x="741" y="1543"/>
      <point x="896" y="1552" type="curve"/>
    </contour>
    <contour>
      <point x="1358" y="99" type="line"/>
      <point x="1207" y="133" type="line"/>
      <point x="715" y="1419" type="line"/>
      <point x="596" y="1384" type="line"/>
      <point x="145" y="142" type="line"/>
      <point x="-10" y="95" type="line"/>
      <point x="-28" y="0" type="line"/>
      <point x="469" y="0" type="line"/>
      <point x="487" y="83" type="line"/>
      <point x="281" y="138" type="line"/>
      <point x="281" y="138"/>
      <point x="326" y="269"/>
      <point x="384" y="437" type="curve"/>
      <point x="551" y="436"/>
      <point x="716" y="441"/>
      <point x="878" y="451" type="curve"/>
      <point x="998" y="133" type="line"/>
      <point x="834" y="86" type="line"/>
      <point x="818" y="0" type="line"/>
      <point x="1337" y="0" type="line"/>
    </contour>
    <contour>
      <point x="834" y="568" type="line"/>
      <point x="428" y="568" type="line"/>
      <point x="513" y="820"/>
      <point x="605" y="1099"/>
      <point x="614" y="1155" type="curve"/>
    </contour>
  </outline>
</glyph>
<glyph name="Eogonek" format="1">
  <advance width="1246"/>
  <unicode hex="0118"/>
  <outline>
    <contour>
      <point x="959" y="-356"/>
      <point x="947" y="-354"/>
      <point x="935" y="-349" type="curve" smooth="yes"/>
      <point x="888" y="-331"/>
      <point x="854" y="-282"/>
      <point x="854" y="-236" type="curve" smooth="yes"/>
      <point x="854" y="-184"/>
      <point x="907" y="-111"/>
      <point x="1035" y="0" type="curve"/>
      <point x="1121" y="0" type="line"/>
      <point x="1200" y="320" type="line"/>
      <point x="1121" y="340" type="line"/>
      <point x="997" y="155" type="line"/>
      <point x="454" y="99" type="line"/>
      <point x="454" y="659" type="line"/>
      <point x="549" y="642"/>
      <point x="647" y="639"/>
      <point x="747" y="639" type="curve"/>
      <point x="792" y="480" type="line"/>
      <point x="871" y="463" type="line"/>
      <point x="889" y="914" type="line"/>
      <point x="811" y="935" type="line"/>
      <point x="749" y="765" type="line"/>
      <point x="650" y="761"/>
      <point x="551" y="753"/>
      <point x="454" y="741" type="curve"/>
      <point x="454" y="1296" type="line"/>
      <point x="933" y="1246" type="line"/>
      <point x="1032" y="1024" type="line"/>
      <point x="1121" y="1046" type="line"/>
      <point x="1087" y="1397" type="line"/>
      <point x="960" y="1384" type="line"/>
      <point x="95" y="1384" type="line"/>
      <point x="74" y="1304" type="line"/>
      <point x="262" y="1248" type="line"/>
      <point x="262" y="141" type="line"/>
      <point x="83" y="85" type="line"/>
      <point x="67" y="0" type="line"/>
      <point x="920" y="0" type="line"/>
      <point x="883" y="-30"/>
      <point x="831" y="-66"/>
      <point x="791" y="-105" type="curve" smooth="yes"/>
      <point x="739" y="-156"/>
      <point x="706" y="-215"/>
      <point x="706" y="-287" type="curve" smooth="yes"/>
      <point x="706" y="-406"/>
      <point x="803" y="-476"/>
      <point x="908" y="-476" type="curve" smooth="yes"/>
      <point x="997" y="-476"/>
      <point x="1073" y="-421"/>
      <point x="1148" y="-355" type="curve"/>
      <point x="1128" y="-315" type="line"/>
      <point x="1067" y="-339"/>
      <point x="1015" y="-356"/>
      <point x="972" y="-356" type="curve" smooth="yes"/>
    </contour>
  </outline>
</glyph>
<glyph name="Idotaccent" format="1">
  <advance width="720"/>
  <unicode hex="0130"/>
  <outline>
    <contour>
      <point x="291" y="1514"/>
      <point x="404" y="1504"/>
      <point x="429" y="1521" type="curve"/>
      <point x="458" y="1543"/>
      <point x="468" y="1658"/>
      <point x="449" y="1682" type="curve" smooth="yes"/>
      <point x="428" y="1710"/>
      <point x="314" y="1721"/>
      <point x="290" y="1703" type="curve" smooth="yes"/>
      <point x="261" y="1681"/>
      <point x="250" y="1565"/>
      <point x="270" y="1542" type="curve"/>
    </contour>
    <contour>
      <point x="263" y="140" type="line"/>
      <point x="85" y="87" type="line"/>
      <point x="68" y="0" type="line"/>
      <point x="628" y="0" type="line"/>
      <point x="648" y="84" type="line"/>
      <point x="455" y="140" type="line"/>
      <point x="455" y="1244" type="line"/>
      <point x="636" y="1299" type="line"/>
      <point x="652" y="1384" type="line"/>
      <point x="92" y="1384" type="line"/>
      <point x="75" y="1301" type="line"/>
      <point x="263" y="1246" type="line"/>
    </contour>
  </outline>
</glyph>
<glyph name="Kcommaaccent" format="1">
  <advance width="1409"/>
  <unicode hex="0136"/>
  <outline>
    <contour>
      <point x="262" y="139" type="line"/>
      <point x="86" y="85" type="line"/>
      <point x="70" y="0" type="line"/>
      <point x="641" y="0" type="line"/>
      <point x="662" y="95" type="line"/>
      <point x="454" y="151" type="line"/>
      <point x="454" y="1245" type="line"/>
      <point x="639" y="1298" type="line"/>
      <point x="654" y="1384" type="line"/>
      <point x="94" y="1384" type="line"/>
      <point x="76" y="1303" type="line"/>
      <point x="262" y="1246" type="line"/>
    </contour>
    <contour>
      <point x="1213" y="146" type="line"/>
      <point x="725" y="751" type="line"/>
      <point x="1202" y="1243" type="line"/>
      <point x="1364" y="1297" type="line"/>
      <point x="1382" y="1384" type="line"/>
      <point x="842" y="1384" type="line"/>
      <point x="824" y="1303" type="line"/>
      <point x="1019" y="1246" type="line"/>
      <point x="521" y="703" type="line"/>
      <point x="1002" y="71" type="line"/>
      <point x="989" y="0" type="line"/>
      <point x="1385" y="0" type="line"/>
      <point x="1403" y="81" type="line"/>
    </contour>
    <contour>
      <point x="600" y="-206" type="line"/>
      <point x="684" y="-230"/>
      <point x="704" y="-258"/>
      <point x="704" y="-289" type="curve" smooth="yes"/>
      <point x="704" y="-331"/>
      <point x="666" y="-369"/>
      <point x="586" y="-427" type="curve"/>
      <point x="601" y="-472" type="line"/>
      <point x="661" y="-472"/>
      <point x="822" y="-401"/>
      <point x="822" y="-261" type="curve" smooth="yes"/>
      <point x="822" y="-218"/>
      <point x="802" y="-180"/>
      <point x="773" y="-152" type="curve" smooth="yes"/>
      <point x="736" y="-117"/>
      <point x="685" y="-96"/>
      <point x="628" y="-95" type="curve"/>
    </contour>
  </outline>
</glyph>
<glyph name="kcommaaccent" format="1">
  <advance width="1142"/>
  <unicode hex="0137"/>
  <outline>
    <contour>
      <point x="40" y="1365" type="line"/>
      <point x="194" y="1287" type="line"/>
      <point x="194" y="126" type="line"/>
      <point x="56" y="83" type="line"/>
      <point x="39" y="0" type="line"/>
      <point x="525" y="0" type="line"/>
      <point x="543" y="82" type="line"/>
      <point x="373" y="126" type="line"/>
      <point x="373" y="1472" type="line"/>
      <point x="49" y="1412" type="line"/>
    </contour>
    <contour>
      <point x="986" y="123" type="line"/>
      <point x="605" y="587" type="line"/>
      <point x="906" y="836" type="line"/>
      <point x="1040" y="872" type="line"/>
      <point x="1056" y="950" type="line"/>
      <point x="638" y="950" type="line"/>
      <point x="624" y="874" type="line"/>
      <point x="752" y="844" type="line"/>
      <point x="413" y="550" type="line"/>
      <point x="781" y="66" type="line"/>
      <point x="768" y="0" type="line"/>
      <point x="1124" y="0" type="line"/>
      <point x="1140" y="76" type="line"/>
    </contour>
    <contour>
      <point x="466" y="-206" type="line"/>
      <point x="550" y="-230"/>
      <point x="570" y="-258"/>
      <point x="570" y="-289" type="curve" smooth="yes"/>
      <point x="570" y="-331"/>
      <point x="532" y="-369"/>
      <point x="452" y="-427" type="curve"/>
      <point x="467" y="-472" type="line"/>
      <point x="527" y="-472"/>
      <point x="688" y="-401"/>
      <point x="688" y="-261" type="curve" smooth="yes"/>
      <point x="688" y="-218"/>
      <point x="668" y="-180"/>
      <point x="639" y="-152" type="curve" smooth="yes"/>
      <point x="602" y="-117"/>
      <point x="551" y="-96"/>
      <point x="494" y="-95" type="curve"/>
    </contour>
  </outline>
</glyph>
<glyph name="breve" format="1">
  <advance width="302"/>
  <unicode hex="02D8"/>
  <outline>
    <contour>
      <point x="266" y="953" type="line"/>
      <point x="266" y="887"/>
      <point x="219" y="853"/>
      <point x="150" y="853" type="curve" smooth="yes"/>
      <point x="83" y="853"/>
      <point x="39" y="889"/>
      <point x="39" y="954" type="curve"/>
      <point x="18" y="954" type="line"/>
      <point x="18" y="875"/>
      <point x="68" y="830"/>
      <point x="148" y="830" type="curve" smooth="yes"/>
      <point x="232" y="830"/>
      <point x="287" y="873"/>
      <point x="287" y="953" type="curve"/>
    </contour>
  </outline>
</glyph>
<glyph name="uni0904" format="1">
  <advance width="832"/>
  <unicode hex="0904"/>
  <outline>
    <contour>
      <point x="651" y="0" type="line"/>
      <point x="744" y="0" type="line"/>
      <point x="744" y="20" type="line"/>
      <point x="651" y="20" type="line"/>
    </contour>
    <contour>
      <point x="651" y="20" type="line"/>
      <point x="548" y="20" type="line"/>
      <point x="548" y="0" type="line"/>
      <point x="651" y="0" type="line"/>
    </contour>
    <contour>
      <point x="55" y="122" type="line"/>
      <point x="55" y="215" type="line"/>
      <point x="35" y="215" type="line"/>
      <point x="35" y="122" type="line"/>
    </contour>
    <contour>
      <point x="661" y="704" type="line"/>
      <point x="661" y="831"/>
      <point x="566" y="876"/>
      <point x="430" y="892" type="curve" smooth="yes"/>
      <point x="308" y="907"/>
      <point x="214" y="930"/>
      <point x="214" y="1041" type="curve"/>
      <point x="193" y="1041" type="line"/>
      <point x="193" y="918"/>
      <point x="290" y="889"/>
      <point x="426" y="873" type="curve" smooth="yes"/>
      <point x="548" y="859"/>
      <point x="639" y="818"/>
      <point x="639" y="704" type="curve"/>
    </contour>
    <contour>
      <point x="35" y="122" type="line"/>
      <point x="82" y="65"/>
      <point x="151" y="32"/>
      <point x="225" y="32" type="curve" smooth="yes"/>
      <point x="355" y="27"/>
      <point x="448" y="94"/>
      <point x="446" y="217" type="curve" smooth="yes"/>
      <point x="444" y="351"/>
      <point x="321" y="394"/>
      <point x="170" y="394" type="curve"/>
      <point x="170" y="377" type="line"/>
      <point x="310" y="377"/>
      <point x="423" y="338"/>
      <point x="425" y="214" type="curve" smooth="yes"/>
      <point x="427" y="106"/>
      <point x="343" y="48"/>
      <point x="227" y="52" type="curve" smooth="yes"/>
      <point x="157" y="52"/>
      <point x="96" y="83"/>
      <point x="50" y="135" type="curve"/>
    </contour>
    <contour>
      <point x="661" y="0" type="line"/>
      <point x="661" y="710" type="line"/>
      <point x="639" y="710" type="line"/>
      <point x="639" y="0" type="line"/>
    </contour>
    <contour>
      <point x="76" y="642" type="line"/>
      <point x="128" y="680"/>
      <point x="172" y="702"/>
      <point x="236" y="702" type="curve" smooth="yes"/>
      <point x="331" y="702"/>
      <point x="395" y="644"/>
      <point x="394" y="551" type="curve" smooth="yes"/>
      <point x="393" y="440"/>
      <point x="294" y="398"/>
      <point x="170" y="398" type="curve"/>
      <point x="170" y="380" type="line"/>
      <point x="308" y="380"/>
      <point x="416" y="429"/>
      <point x="416" y="553" type="curve" smooth="yes"/>
      <point x="416" y="658"/>
      <point x="345" y="722"/>
      <point x="239" y="722" type="curve" smooth="yes"/>
      <point x="168" y="722"/>
      <point x="120" y="701"/>
      <point x="63" y="659" type="curve"/>
    </contour>
    <contour>
      <point x="498" y="702" type="line"/>
      <point x="801" y="702" type="line"/>
      <point x="801" y="722" type="line"/>
      <point x="498" y="722" type="line"/>
    </contour>
    <contour>
      <point x="644" y="420" type="line"/>
      <point x="505" y="354"/>
      <point x="388" y="366"/>
      <point x="236" y="391" type="curve"/>
      <point x="231" y="379" type="line"/>
      <point x="389" y="350"/>
      <point x="507" y="336"/>
      <point x="653" y="403" type="curve"/>
    </contour>
  </outline>
</glyph>
<glyph name="ideva" format="1">
  <advance width="555"/>
  <unicode hex="0907"/>
  <outline>
    <contour>
      <point x="-15" y="702" type="line"/>
      <point x="569" y="702" type="line"/>
      <point x="569" y="722" type="line"/>
      <point x="-15" y="722" type="line"/>
    </contour>
    <contour>
      <point x="395" y="711" type="line"/>
      <point x="395" y="525" type="line"/>
      <point x="405" y="534" type="line"/>
      <point x="415" y="543" type="line"/>
      <point x="208" y="543" type="line" smooth="yes" name="bow"/>
      <point x="110" y="543"/>
      <point x="41" y="507"/>
      <point x="41" y="417" type="curve" smooth="yes"/>
      <point x="41" y="344"/>
      <point x="83" y="307"/>
      <point x="145" y="267" type="curve"/>
      <point x="151" y="289" type="line"/>
      <point x="102" y="326"/>
      <point x="62" y="356"/>
      <point x="62" y="417" type="curve" smooth="yes"/>
      <point x="62" y="494"/>
      <point x="124" y="523"/>
      <point x="208" y="523" type="curve" smooth="yes"/>
      <point x="415" y="523" type="line"/>
      <point x="417" y="523" type="line"/>
      <point x="417" y="525" type="line"/>
      <point x="417" y="711" type="line"/>
    </contour>
    <contour>
      <point x="145" y="267" type="line"/>
      <point x="211" y="298"/>
      <point x="255" y="310"/>
      <point x="328" y="310" type="curve" smooth="yes"/>
      <point x="406" y="310"/>
      <point x="457" y="273"/>
      <point x="457" y="197" type="curve" smooth="yes"/>
      <point x="457" y="91"/>
      <point x="373" y="50"/>
      <point x="256" y="50" type="curve" smooth="yes"/>
      <point x="175" y="50"/>
      <point x="119" y="74"/>
      <point x="99" y="149" type="curve"/>
      <point x="81" y="135" type="line"/>
      <point x="100" y="51"/>
      <point x="165" y="29"/>
      <point x="256" y="29" type="curve" smooth="yes"/>
      <point x="386" y="29"/>
      <point x="477" y="78"/>
      <point x="477" y="197" type="curve" smooth="yes"/>
      <point x="476" y="284"/>
      <point x="420" y="330"/>
      <point x="330" y="330" type="curve" smooth="yes"/>
      <point x="259" y="331"/>
      <point x="215" y="319"/>
      <point x="151" y="289" type="curve"/>
    </contour>
    <contour>
      <point x="81" y="135" type="line"/>
      <point x="312" y="-141" type="line"/>
      <point x="332" y="-126" type="line"/>
      <point x="99" y="149" type="line"/>
    </contour>
  </outline>
</glyph>
<glyph name="rvocalicdeva" format="1">
  <advance width="902"/>
  <unicode hex="090B"/>
  <outline>
    <contour>
      <point x="604" y="511" type="line"/>
      <point x="708" y="429"/>
      <point x="799" y="371"/>
      <point x="799" y="240" type="curve" smooth="yes"/>
      <point x="799" y="125"/>
      <point x="722" y="52"/>
      <point x="603" y="52" type="curve"/>
      <point x="605" y="33" type="line"/>
      <point x="735" y="33"/>
      <point x="819" y="116"/>
      <point x="819" y="243" type="curve" smooth="yes"/>
      <point x="819" y="378"/>
      <point x="727" y="439"/>
      <point x="620" y="523" type="curve"/>
    </contour>
    <contour>
      <point x="441" y="387" type="curve"/>
      <point x="436" y="367" type="line"/>
      <point x="462" y="360"/>
      <point x="480" y="356"/>
      <point x="506" y="356" type="curve" smooth="yes"/>
      <point x="635" y="356"/>
      <point x="734" y="396"/>
      <point x="734" y="498" type="curve" smooth="yes"/>
      <point x="734" y="536"/>
      <point x="713" y="561"/>
      <point x="676" y="561" type="curve" smooth="yes"/>
      <point x="642" y="561"/>
      <point x="625" y="539"/>
      <point x="604" y="511" type="curve"/>
      <point x="624" y="500" type="line"/>
      <point x="639" y="520"/>
      <point x="648" y="539"/>
      <point x="673" y="539" type="curve" smooth="yes"/>
      <point x="698" y="539"/>
      <point x="713" y="522"/>
      <point x="713" y="496" type="curve" smooth="yes"/>
      <point x="713" y="408"/>
      <point x="622" y="377"/>
      <point x="507" y="377" type="curve" smooth="yes"/>
      <point x="482" y="377"/>
      <point x="465" y="381"/>
    </contour>
    <contour>
      <point x="54" y="467" type="line"/>
      <point x="98" y="500"/>
      <point x="133" y="524"/>
      <point x="188" y="524" type="curve" smooth="yes"/>
      <point x="306" y="524"/>
      <point x="347" y="424"/>
      <point x="445" y="362" type="curve"/>
      <point x="454" y="381" type="line"/>
      <point x="354" y="444"/>
      <point x="312" y="545"/>
      <point x="191" y="545" type="curve" smooth="yes"/>
      <point x="129" y="545"/>
      <point x="89" y="521"/>
      <point x="41" y="482" type="curve"/>
    </contour>
    <contour>
      <point x="442" y="389" type="line"/>
      <point x="129" y="188" type="line"/>
      <point x="141" y="168" type="line"/>
      <point x="454" y="373" type="line"/>
    </contour>
    <contour>
      <point x="436" y="711" type="line"/>
      <point x="436" y="0" type="line"/>
      <point x="458" y="0" type="line"/>
      <point x="458" y="711" type="line"/>
    </contour>
    <contour>
      <point x="913" y="700" type="line"/>
      <point x="913" y="722" type="line"/>
      <point x="-12" y="722" type="line"/>
      <point x="-12" y="700" type="line"/>
    </contour>
  </outline>
</glyph>
<glyph name="lvocalicdeva" format="1">
  <advance width="778"/>
  <unicode hex="090C"/>
  <outline>
    <contour>
      <point x="712" y="-65" type="curve"/>
      <point x="701" y="-48" type="line"/>
      <point x="666" y="-73"/>
      <point x="635" y="-91"/>
      <point x="591" y="-91" type="curve" smooth="yes"/>
      <point x="529" y="-91"/>
      <point x="484" y="-54"/>
      <point x="484" y="6" type="curve" smooth="yes"/>
      <point x="484" y="83"/>
      <point x="545" y="119"/>
      <point x="597" y="175" type="curve" smooth="yes"/>
      <point x="652" y="233"/>
      <point x="698" y="283"/>
      <point x="698" y="363" type="curve" smooth="yes"/>
      <point x="698" y="460"/>
      <point x="622" y="518"/>
      <point x="520" y="518" type="curve" smooth="yes"/>
      <point x="384" y="518"/>
      <point x="326" y="383"/>
      <point x="359" y="229" type="curve"/>
      <point x="377" y="233" type="line"/>
      <point x="348" y="374"/>
      <point x="395" y="498"/>
      <point x="517" y="498" type="curve" smooth="yes"/>
      <point x="609" y="498"/>
      <point x="678" y="446"/>
      <point x="678" y="359" type="curve" smooth="yes"/>
      <point x="678" y="289"/>
      <point x="635" y="246"/>
      <point x="587" y="195" type="curve" smooth="yes"/>
      <point x="529" y="133"/>
      <point x="464" y="90"/>
      <point x="463" y="5" type="curve"/>
      <point x="463" y="-67"/>
      <point x="516" y="-112"/>
      <point x="589" y="-112" type="curve" smooth="yes"/>
      <point x="638" y="-112"/>
      <point x="673" y="-95"/>
    </contour>
    <contour>
      <point x="790" y="700" type="line"/>
      <point x="790" y="722" type="line"/>
      <point x="-13" y="722" type="line"/>
      <point x="-13" y="700" type="line"/>
    </contour>
    <contour>
      <point x="509" y="711" type="line"/>
      <point x="509" y="511" type="line"/>
      <point x="531" y="511" type="line"/>
      <point x="531" y="711" type="line"/>
    </contour>
    <contour>
      <point x="271" y="7" type="line"/>
      <point x="149" y="83"/>
      <point x="68" y="176"/>
      <point x="68" y="318" type="curve" smooth="yes"/>
      <point x="68" y="420"/>
      <point x="118" y="501"/>
      <point x="213" y="501" type="curve" smooth="yes"/>
      <point x="284" y="501"/>
      <point x="337" y="474"/>
      <point x="385" y="422" type="curve"/>
      <point x="395" y="438" type="line"/>
      <point x="345" y="493"/>
      <point x="289" y="521"/>
      <point x="215" y="521" type="curve" smooth="yes"/>
      <point x="107" y="521"/>
      <point x="47" y="431"/>
      <point x="47" y="316" type="curve" smooth="yes"/>
      <point x="47" y="167"/>
      <point x="130" y="68"/>
      <point x="258" y="-10" type="curve"/>
    </contour>
  </outline>
</glyph>
<glyph name="ocandradeva" format="1">
  <advance width="1053"/>
  <unicode hex="0911"/>
  <outline>
    <contour>
      <point x="935" y="1030" type="line"/>
      <point x="935" y="936"/>
      <point x="874" y="880"/>
      <point x="779" y="880" type="curve" smooth="yes"/>
      <point x="685" y="880"/>
      <point x="626" y="937"/>
      <point x="626" y="1030" type="curve"/>
      <point x="605" y="1030" type="line"/>
      <point x="605" y="924"/>
      <point x="671" y="857"/>
      <point x="777" y="857" type="curve" smooth="yes"/>
      <point x="886" y="857"/>
      <point x="956" y="922"/>
      <point x="956" y="1030" type="curve"/>
    </contour>
    <contour>
      <point x="170" y="398" type="curve"/>
      <point x="170" y="380" type="line"/>
      <point x="311" y="380"/>
      <point x="416" y="443"/>
      <point x="416" y="574" type="curve" smooth="yes"/>
      <point x="416" y="674"/>
      <point x="343" y="730"/>
      <point x="239" y="730" type="curve" smooth="yes"/>
      <point x="168" y="730"/>
      <point x="120" y="710"/>
      <point x="63" y="668" type="curve"/>
      <point x="77" y="652" type="line"/>
      <point x="129" y="690"/>
      <point x="172" y="710"/>
      <point x="236" y="710" type="curve" smooth="yes"/>
      <point x="329" y="710"/>
      <point x="395" y="661"/>
      <point x="394" y="572" type="curve" smooth="yes"/>
      <point x="393" y="454"/>
      <point x="298" y="398"/>
    </contour>
    <contour>
      <point x="639" y="709" type="line"/>
      <point x="639" y="0" type="line"/>
      <point x="661" y="0" type="line"/>
      <point x="661" y="709" type="line"/>
    </contour>
    <contour>
      <point x="170" y="377" type="line"/>
      <point x="310" y="377"/>
      <point x="423" y="338"/>
      <point x="425" y="214" type="curve" smooth="yes"/>
      <point x="427" y="106"/>
      <point x="343" y="48"/>
      <point x="227" y="52" type="curve" smooth="yes"/>
      <point x="157" y="52"/>
      <point x="96" y="83"/>
      <point x="50" y="135" type="curve"/>
      <point x="35" y="122" type="line"/>
      <point x="82" y="65"/>
      <point x="151" y="31"/>
      <point x="225" y="31" type="curve" smooth="yes"/>
      <point x="355" y="26"/>
      <point x="448" y="94"/>
      <point x="446" y="217" type="curve" smooth="yes"/>
      <point x="444" y="351"/>
      <point x="321" y="394"/>
      <point x="170" y="394" type="curve"/>
    </contour>
    <contour>
      <point x="1064" y="699" type="line"/>
      <point x="1064" y="721" type="line"/>
      <point x="498" y="721" type="line"/>
      <point x="498" y="699" type="line"/>
    </contour>
    <contour>
      <point x="903" y="709" type="line"/>
      <point x="903" y="0" type="line"/>
      <point x="925" y="0" type="line"/>
      <point x="925" y="709" type="line"/>
    </contour>
    <contour>
      <point x="644" y="401" type="line"/>
      <point x="505" y="335"/>
      <point x="388" y="367"/>
      <point x="236" y="392" type="curve"/>
      <point x="231" y="376" type="line"/>
      <point x="389" y="347"/>
      <point x="507" y="317"/>
      <point x="653" y="384" type="curve"/>
    </contour>
  </outline>
</glyph>
<glyph name="oshortdeva" format="1">
  <advance width="1053"/>
  <unicode hex="0912"/>
  <outline>
    <contour>
      <point x="909" y="717" type="curve"/>
      <point x="931" y="717" type="line"/>
      <point x="931" y="844"/>
      <point x="836" y="889"/>
      <point x="700" y="905" type="curve" smooth="yes"/>
      <point x="578" y="920"/>
      <point x="484" y="943"/>
      <point x="484" y="1054" type="curve"/>
      <point x="463" y="1054" type="line"/>
      <point x="463" y="931"/>
      <point x="565" y="903"/>
      <point x="700" y="885" type="curve" smooth="yes"/>
      <point x="822" y="869"/>
      <point x="909" y="831"/>
    </contour>
    <contour>
      <point x="1064" y="701" type="line"/>
      <point x="1064" y="723" type="line"/>
      <point x="498" y="723" type="line"/>
      <point x="498" y="701" type="line"/>
    </contour>
    <contour>
      <point x="639" y="711" type="line"/>
      <point x="639" y="0" type="line"/>
      <point x="661" y="0" type="line"/>
      <point x="661" y="711" type="line"/>
    </contour>
    <contour>
      <point x="909" y="711" type="line"/>
      <point x="909" y="0" type="line"/>
      <point x="931" y="0" type="line"/>
      <point x="931" y="711" type="line"/>
    </contour>
    <contour>
      <point x="644" y="401" type="line"/>
      <point x="505" y="335"/>
      <point x="388" y="367"/>
      <point x="236" y="392" type="curve"/>
      <point x="231" y="376" type="line"/>
      <point x="389" y="347"/>
      <point x="507" y="317"/>
      <point x="653" y="384" type="curve"/>
    </contour>
    <contour>
      <point x="170" y="377" type="line"/>
      <point x="310" y="377"/>
      <point x="423" y="338"/>
      <point x="425" y="214" type="curve" smooth="yes"/>
      <point x="427" y="106"/>
      <point x="343" y="48"/>
      <point x="227" y="52" type="curve" smooth="yes"/>
      <point x="157" y="52"/>
      <point x="96" y="83"/>
      <point x="50" y="135" type="curve"/>
      <point x="35" y="122" type="line"/>
      <point x="82" y="65"/>
      <point x="151" y="31"/>
      <point x="225" y="31" type="curve" smooth="yes"/>
      <point x="355" y="26"/>
      <point x="448" y="94"/>
      <point x="446" y="217" type="curve" smooth="yes"/>
      <point x="444" y="351"/>
      <point x="321" y="394"/>
      <point x="170" y="394" type="curve"/>
    </contour>
    <contour>
      <point x="170" y="398" type="curve"/>
      <point x="170" y="380" type="line"/>
      <point x="306" y="380"/>
      <point x="416" y="435"/>
      <point x="416" y="558" type="curve" smooth="yes"/>
      <point x="416" y="663"/>
      <point x="345" y="732"/>
      <point x="239" y="732" type="curve" smooth="yes"/>
      <point x="169" y="732"/>
      <point x="119" y="711"/>
      <point x="63" y="670" type="curve"/>
      <point x="77" y="654" type="line"/>
      <point x="128" y="691"/>
      <point x="173" y="712"/>
      <point x="236" y="712" type="curve" smooth="yes"/>
      <point x="331" y="712"/>
      <point x="395" y="650"/>
      <point x="394" y="556" type="curve" smooth="yes"/>
      <point x="393" y="445"/>
      <point x="293" y="398"/>
    </contour>
  </outline>
</glyph>
<glyph name="kadeva" format="1">
  <advance width="860"/>
  <unicode hex="0915"/>
  <outline>
    <contour>
      <point x="-11" y="700" type="line"/>
      <point x="879" y="700" type="line"/>
      <point x="879" y="722" type="line"/>
      <point x="-11" y="722" type="line"/>
    </contour>
    <contour>
      <point x="419" y="710" type="line"/>
      <point x="419" y="0" type="line"/>
      <point x="441" y="0" type="line"/>
      <point x="441" y="710" type="line"/>
    </contour>
    <contour>
      <point x="422" y="339" type="line"/>
      <point x="392" y="251"/>
      <point x="319" y="207"/>
      <point x="228" y="207" type="curve" smooth="yes"/>
      <point x="135" y="207"/>
      <point x="68" y="274"/>
      <point x="68" y="367" type="curve" smooth="yes"/>
      <point x="68" y="460"/>
      <point x="137" y="525"/>
      <point x="232" y="525" type="curve" smooth="yes"/>
      <point x="318" y="525"/>
      <point x="382" y="482"/>
      <point x="421" y="404" type="curve"/>
      <point x="434" y="412" type="line"/>
      <point x="399" y="497"/>
      <point x="324" y="545"/>
      <point x="232" y="545" type="curve" smooth="yes"/>
      <point x="125" y="545"/>
      <point x="47" y="472"/>
      <point x="47" y="367" type="curve" smooth="yes"/>
      <point x="47" y="261"/>
      <point x="123" y="186"/>
      <point x="229" y="186" type="curve" smooth="yes"/>
      <point x="330" y="186"/>
      <point x="407" y="237"/>
      <point x="437" y="333" type="curve"/>
    </contour>
    <contour>
      <point x="438" y="390" type="line"/>
      <point x="462" y="479"/>
      <point x="522" y="528"/>
      <point x="614" y="528" type="curve" smooth="yes"/>
      <point x="711" y="528"/>
      <point x="778" y="474"/>
      <point x="778" y="381" type="curve" smooth="yes"/>
      <point x="778" y="308"/>
      <point x="740" y="264"/>
      <point x="681" y="221" type="curve"/>
      <point x="693" y="205" type="line"/>
      <point x="759" y="251"/>
      <point x="799" y="300"/>
      <point x="799" y="380" type="curve" smooth="yes"/>
      <point x="799" y="486"/>
      <point x="724" y="549"/>
      <point x="614" y="549" type="curve" smooth="yes"/>
      <point x="513" y="549"/>
      <point x="448" y="493"/>
      <point x="424" y="394" type="curve"/>
    </contour>
  </outline>
</glyph>
<glyph name="khadeva" format="1">
  <advance width="876"/>
  <unicode hex="0916"/>
  <outline>
    <contour>
      <point x="737" y="0" type="line"/>
      <point x="830" y="0" type="line"/>
      <point x="830" y="20" type="line"/>
      <point x="737" y="20" type="line"/>
    </contour>
    <contour>
      <point x="726" y="710" type="line"/>
      <point x="726" y="0" type="line"/>
      <point x="748" y="0" type="line"/>
      <point x="748" y="710" type="line"/>
    </contour>
    <contour>
      <point x="-51" y="702" type="line"/>
      <point x="907" y="702" type="line"/>
      <point x="907" y="722" type="line"/>
      <point x="-51" y="722" type="line"/>
    </contour>
    <contour>
      <point x="743" y="482" type="line"/>
      <point x="708" y="532"/>
      <point x="655" y="553"/>
      <point x="594" y="553" type="curve" smooth="yes"/>
      <point x="505" y="553"/>
      <point x="454" y="495"/>
      <point x="454" y="402" type="curve" smooth="yes"/>
      <point x="454" y="313"/>
      <point x="509" y="257"/>
      <point x="595" y="257" type="curve" smooth="yes"/>
      <point x="657" y="257"/>
      <point x="711" y="279"/>
      <point x="744" y="330" type="curve"/>
      <point x="729" y="342" type="line"/>
      <point x="697" y="299"/>
      <point x="650" y="277"/>
      <point x="595" y="277" type="curve" smooth="yes"/>
      <point x="523" y="277"/>
      <point x="474" y="327"/>
      <point x="474" y="402" type="curve" smooth="yes"/>
      <point x="474" y="478"/>
      <point x="521" y="533"/>
      <point x="594" y="533" type="curve" smooth="yes"/>
      <point x="649" y="533"/>
      <point x="694" y="514"/>
      <point x="729" y="469" type="curve"/>
    </contour>
    <contour>
      <point x="733" y="158" type="line"/>
      <point x="635" y="98"/>
      <point x="549" y="64"/>
      <point x="431" y="64" type="curve" smooth="yes"/>
      <point x="190" y="64"/>
      <point x="43" y="244"/>
      <point x="43" y="494" type="curve"/>
      <point x="25" y="491" type="line"/>
      <point x="25" y="231"/>
      <point x="179" y="44"/>
      <point x="430" y="44" type="curve" smooth="yes"/>
      <point x="553" y="44"/>
      <point x="644" y="82"/>
      <point x="742" y="143" type="curve"/>
    </contour>
    <contour>
      <point x="182" y="707" type="line"/>
      <point x="239" y="650"/>
      <point x="276" y="593"/>
      <point x="276" y="513" type="curve" smooth="yes"/>
      <point x="276" y="439"/>
      <point x="239" y="381"/>
      <point x="171" y="381" type="curve" smooth="yes"/>
      <point x="103" y="381"/>
      <point x="60" y="427"/>
      <point x="43" y="494" type="curve"/>
      <point x="25" y="491" type="line"/>
      <point x="45" y="415"/>
      <point x="93" y="362"/>
      <point x="170" y="362" type="curve" smooth="yes"/>
      <point x="251" y="362"/>
      <point x="298" y="428"/>
      <point x="298" y="514" type="curve" smooth="yes"/>
      <point x="298" y="599"/>
      <point x="256" y="658"/>
      <point x="195" y="719" type="curve"/>
    </contour>
  </outline>
</glyph>
<glyph name="cadeva" format="1">
  <advance width="717"/>
  <unicode hex="091A"/>
  <outline>
    <contour>
      <point x="36" y="495" type="line"/>
      <point x="415" y="495" type="line"/>
      <point x="415" y="517" type="line"/>
      <point x="36" y="517" type="line"/>
    </contour>
    <contour>
      <point x="577" y="710" type="line"/>
      <point x="577" y="0" type="line"/>
      <point x="599" y="0" type="line"/>
      <point x="599" y="710" type="line"/>
    </contour>
    <contour>
      <point x="415" y="495" type="curve"/>
      <point x="415" y="510" type="line"/>
      <point x="282" y="510"/>
      <point x="182" y="444"/>
      <point x="182" y="321" type="curve" smooth="yes"/>
      <point x="182" y="217"/>
      <point x="268" y="158"/>
      <point x="379" y="158" type="curve" smooth="yes"/>
      <point x="477" y="158"/>
      <point x="551" y="203"/>
      <point x="596" y="290" type="curve"/>
      <point x="580" y="299" type="line"/>
      <point x="536" y="222"/>
      <point x="471" y="179"/>
      <point x="383" y="179" type="curve" smooth="yes"/>
      <point x="283" y="179"/>
      <point x="204" y="230"/>
      <point x="204" y="323" type="curve" smooth="yes"/>
      <point x="204" y="433"/>
      <point x="297" y="495"/>
    </contour>
    <contour>
      <point x="728" y="700" type="line"/>
      <point x="728" y="722" type="line"/>
      <point x="-12" y="722" type="line"/>
      <point x="-12" y="700" type="line"/>
    </contour>
  </outline>
</glyph>
<glyph name="chadeva" format="1">
  <advance width="781"/>
  <unicode hex="091B"/>
  <outline>
    <contour>
      <point x="-11" y="700" type="line"/>
      <point x="793" y="700" type="line"/>
      <point x="793" y="722" type="line"/>
      <point x="-11" y="722" type="line"/>
    </contour>
    <contour>
      <point x="270" y="386" type="line"/>
      <point x="172" y="386"/>
      <point x="96" y="437"/>
      <point x="95" y="530" type="curve" smooth="yes"/>
      <point x="94" y="647"/>
      <point x="198" y="702"/>
      <point x="327" y="702" type="curve"/>
      <point x="320" y="716" type="line"/>
      <point x="184" y="716"/>
      <point x="73" y="656"/>
      <point x="73" y="532" type="curve" smooth="yes"/>
      <point x="73" y="427"/>
      <point x="158" y="368"/>
      <point x="270" y="368" type="curve"/>
    </contour>
    <contour>
      <point x="270" y="365" type="curve"/>
      <point x="270" y="382" type="line"/>
      <point x="152" y="382"/>
      <point x="65" y="313"/>
      <point x="65" y="199" type="curve" smooth="yes"/>
      <point x="65" y="55"/>
      <point x="197" y="-7"/>
      <point x="357" y="-7" type="curve" smooth="yes"/>
      <point x="576" y="-7"/>
      <point x="718" y="149"/>
      <point x="718" y="371" type="curve" smooth="yes"/>
      <point x="718" y="476"/>
      <point x="670" y="561"/>
      <point x="574" y="561" type="curve" smooth="yes"/>
      <point x="500" y="561"/>
      <point x="453" y="506"/>
      <point x="453" y="430" type="curve" smooth="yes"/>
      <point x="453" y="310"/>
      <point x="567" y="263"/>
      <point x="702" y="263" type="curve"/>
      <point x="699" y="282" type="line"/>
      <point x="578" y="284"/>
      <point x="474" y="323"/>
      <point x="474" y="430" type="curve" smooth="yes"/>
      <point x="474" y="493"/>
      <point x="512" y="539"/>
      <point x="574" y="539" type="curve" smooth="yes"/>
      <point x="657" y="539"/>
      <point x="696" y="464"/>
      <point x="696" y="372" type="curve" smooth="yes"/>
      <point x="696" y="163"/>
      <point x="565" y="15"/>
      <point x="361" y="15" type="curve" smooth="yes"/>
      <point x="213" y="15"/>
      <point x="86" y="65"/>
      <point x="86" y="196" type="curve" smooth="yes"/>
      <point x="86" y="300"/>
      <point x="163" y="365"/>
    </contour>
    <contour>
      <point x="565" y="700" type="line"/>
      <point x="565" y="547" type="line"/>
      <point x="587" y="547" type="line"/>
      <point x="587" y="700" type="line"/>
    </contour>
  </outline>
</glyph>
<glyph name="jhadeva" format="1">
  <advance width="854"/>
  <unicode hex="091D"/>
  <outline>
    <contour>
      <point x="374.0" y="311.0" type="line"/>
      <point x="412.0" y="307.0"/>
      <point x="478" y="291"/>
      <point x="546" y="291" type="curve" smooth="yes"/>
      <point x="619" y="291"/>
      <point x="695.0" y="310.0"/>
      <point x="737.0" y="339.0" type="curve"/>
      <point x="725.0" y="356.0" type="line"/>
      <point x="687.0" y="329.0"/>
      <point x="618" y="311"/>
      <point x="549" y="310" type="curve" smooth="yes"/>
      <point x="483" y="310"/>
      <point x="420" y="328"/>
      <point x="374.0" y="329.0" type="curve"/>
    </contour>
    <contour>
      <point x="720" y="710" type="line"/>
      <point x="720" y="0" type="line"/>
      <point x="742" y="0" type="line"/>
      <point x="742" y="710" type="line"/>
    </contour>
    <contour>
      <point x="102" y="145" type="line"/>
      <point x="341" y="-144" type="line"/>
      <point x="362" y="-126" type="line"/>
      <point x="117" y="158" type="line"/>
    </contour>
    <contour>
      <point x="867" y="700" type="line"/>
      <point x="867" y="722" type="line"/>
      <point x="-12" y="722" type="line"/>
      <point x="-12" y="700" type="line"/>
    </contour>
    <contour>
      <point x="395" y="711" type="line"/>
      <point x="395" y="523" type="line"/>
      <point x="417" y="523" type="line"/>
      <point x="417" y="711" type="line"/>
    </contour>
    <contour>
      <point x="145" y="267" type="line"/>
      <point x="224" y="291"/>
      <point x="289" y="313"/>
      <point x="372" y="309" type="curve" smooth="yes"/>
      <point x="438" y="306"/>
      <point x="486" y="266"/>
      <point x="486" y="202" type="curve" smooth="yes"/>
      <point x="486" y="91"/>
      <point x="375" y="50"/>
      <point x="249" y="50" type="curve" smooth="yes"/>
      <point x="175" y="50"/>
      <point x="103" y="55"/>
      <point x="103" y="118" type="curve" smooth="yes"/>
      <point x="103" y="129"/>
      <point x="107" y="138"/>
      <point x="117" y="138" type="curve"/>
      <point x="117" y="158" type="line"/>
      <point x="94" y="158"/>
      <point x="81" y="139"/>
      <point x="81" y="115" type="curve" smooth="yes"/>
      <point x="81" y="42"/>
      <point x="161" y="29"/>
      <point x="245" y="29" type="curve" smooth="yes"/>
      <point x="386" y="29"/>
      <point x="507" y="82"/>
      <point x="507" y="207" type="curve" smooth="yes"/>
      <point x="506" y="281"/>
      <point x="450" y="327"/>
      <point x="374" y="329" type="curve" smooth="yes"/>
      <point x="293" y="332"/>
      <point x="229" y="312"/>
      <point x="151" y="289" type="curve"/>
    </contour>
    <contour>
      <point x="151" y="289" type="line"/>
      <point x="102" y="326"/>
      <point x="69" y="354"/>
      <point x="69" y="415" type="curve" smooth="yes"/>
      <point x="69" y="492"/>
      <point x="126" y="523"/>
      <point x="210" y="523" type="curve" smooth="yes"/>
      <point x="407" y="523" type="line"/>
      <point x="407" y="543" type="line"/>
      <point x="213" y="543" type="line" smooth="yes"/>
      <point x="115" y="543"/>
      <point x="47" y="507"/>
      <point x="47" y="417" type="curve" smooth="yes"/>
      <point x="47" y="344"/>
      <point x="83" y="307"/>
      <point x="145" y="267" type="curve"/>
    </contour>
  </outline>
</glyph>
<glyph name="ttadeva" format="1">
  <advance width="576"/>
  <unicode hex="091F"/>
  <outline>
    <contour>
      <point x="445" y="467" type="curve"/>
      <point x="445" y="489" type="line"/>
      <point x="238" y="478"/>
      <point x="60" y="412"/>
      <point x="60" y="227" type="curve" smooth="yes"/>
      <point x="60" y="83"/>
      <point x="175" y="-1"/>
      <point x="327" y="-1" type="curve" smooth="yes"/>
      <point x="388" y="-1"/>
      <point x="435" y="14"/>
      <point x="490" y="40" type="curve"/>
      <point x="481" y="60" type="line"/>
      <point x="429" y="33"/>
      <point x="385" y="21"/>
      <point x="327" y="21" type="curve" smooth="yes"/>
      <point x="188" y="21"/>
      <point x="82" y="96"/>
      <point x="82" y="227" type="curve" smooth="yes"/>
      <point x="82" y="400"/>
      <point x="251" y="457"/>
    </contour>
    <contour>
      <point x="588" y="700" type="line"/>
      <point x="588" y="722" type="line"/>
      <point x="-11" y="722" type="line"/>
      <point x="-11" y="700" type="line"/>
    </contour>
    <contour>
      <point x="423" y="711" type="line"/>
      <point x="423" y="467" type="line"/>
      <point x="445" y="467" type="line"/>
      <point x="445" y="711" type="line"/>
    </contour>
  </outline>
</glyph>
<glyph name="tthadeva" format="1">
  <advance width="648"/>
  <unicode hex="0920"/>
  <outline>
    <contour>
      <point x="384" y="702" type="line"/>
      <point x="384" y="513" type="line"/>
      <point x="406" y="513" type="line"/>
      <point x="406" y="702" type="line"/>
    </contour>
    <contour>
      <point x="671" y="700" type="line"/>
      <point x="671" y="722" type="line"/>
      <point x="-11" y="722" type="line"/>
      <point x="-11" y="700" type="line"/>
    </contour>
    <contour>
      <point x="396" y="513" type="line"/>
      <point x="512" y="470"/>
      <point x="573" y="378"/>
      <point x="573" y="253" type="curve" smooth="yes"/>
      <point x="573" y="110"/>
      <point x="473" y="15"/>
      <point x="328" y="15" type="curve" smooth="yes"/>
      <point x="184" y="15"/>
      <point x="86" y="111"/>
      <point x="86" y="255" type="curve" smooth="yes"/>
      <point x="86" y="415"/>
      <point x="225" y="490"/>
      <point x="396" y="513" type="curve"/>
      <point x="396" y="535" type="line"/>
      <point x="207" y="513"/>
      <point x="64" y="428"/>
      <point x="64" y="255" type="curve" smooth="yes"/>
      <point x="64" y="98"/>
      <point x="171" y="-7"/>
      <point x="328" y="-7" type="curve" smooth="yes"/>
      <point x="486" y="-7"/>
      <point x="595" y="96"/>
      <point x="595" y="253" type="curve" smooth="yes"/>
      <point x="595" y="390"/>
      <point x="526" y="491"/>
      <point x="396" y="535" type="curve"/>
    </contour>
  </outline>
</glyph>
<glyph name="ddhadeva" format="1">
  <advance width="632"/>
  <unicode hex="0922"/>
  <outline>
    <contour>
      <point x="-12" y="702" type="line"/>
      <point x="645" y="702" type="line"/>
      <point x="645" y="722" type="line"/>
      <point x="-12" y="722" type="line"/>
    </contour>
    <contour>
      <point x="453" y="711" type="line"/>
      <point x="453" y="525" type="line"/>
      <point x="463" y="533" type="line"/>
      <point x="474" y="544" type="line"/>
      <point x="363" y="544" type="line" smooth="yes" name="bow"/>
      <point x="190" y="544"/>
      <point x="65" y="446"/>
      <point x="65" y="280" type="curve" smooth="yes"/>
      <point x="65" y="113"/>
      <point x="171" y="0"/>
      <point x="335" y="0" type="curve" smooth="yes"/>
      <point x="467" y="0"/>
      <point x="575" y="53"/>
      <point x="575" y="171" type="curve" smooth="yes"/>
      <point x="575" y="257"/>
      <point x="517" y="310"/>
      <point x="430" y="310" type="curve" smooth="yes"/>
      <point x="344" y="310"/>
      <point x="287" y="257"/>
      <point x="287" y="171" type="curve" smooth="yes"/>
      <point x="287" y="93"/>
      <point x="336" y="41"/>
      <point x="408" y="7" type="curve"/>
      <point x="416" y="20" type="line"/>
      <point x="352" y="57"/>
      <point x="309" y="99"/>
      <point x="309" y="171" type="curve" smooth="yes"/>
      <point x="309" y="243"/>
      <point x="357" y="288"/>
      <point x="429" y="288" type="curve" smooth="yes"/>
      <point x="503" y="288"/>
      <point x="553" y="245"/>
      <point x="553" y="171" type="curve" smooth="yes"/>
      <point x="553" y="67"/>
      <point x="453" y="20"/>
      <point x="336" y="20" type="curve" smooth="yes"/>
      <point x="184" y="20"/>
      <point x="87" y="128"/>
      <point x="87" y="283" type="curve" smooth="yes"/>
      <point x="87" y="434"/>
      <point x="204" y="524"/>
      <point x="363" y="524" type="curve" name="bow"/>
      <point x="474" y="524" type="line"/>
      <point x="475" y="524" type="line"/>
      <point x="475" y="525" type="line"/>
      <point x="475" y="711" type="line"/>
    </contour>
  </outline>
</glyph>
<glyph name="thadeva" format="1">
  <advance width="671"/>
  <unicode hex="0925"/>
  <outline>
    <contour>
      <point x="533" y="0" type="line"/>
      <point x="626" y="0" type="line" name="brr"/>
      <point x="626" y="20" type="line" name="brr"/>
      <point x="533" y="20" type="line"/>
    </contour>
    <contour>
      <point x="533" y="20" type="line"/>
      <point x="430" y="20" type="line" name="brl"/>
      <point x="430" y="0" type="line" name="brl"/>
      <point x="533" y="0" type="line"/>
    </contour>
    <contour>
      <point x="521" y="702" type="line"/>
      <point x="683" y="702" type="line"/>
      <point x="683" y="722" type="line"/>
      <point x="521" y="722" type="line"/>
    </contour>
    <contour>
      <point x="543" y="0" type="line" name="stem"/>
      <point x="543" y="722" type="line" name="stem"/>
      <point x="521" y="722" type="line" name="stem"/>
      <point x="521" y="0" type="line" name="stem"/>
    </contour>
    <contour>
      <point x="155" y="527" type="line"/>
      <point x="122" y="548"/>
      <point x="101" y="575"/>
      <point x="101" y="614" type="curve" smooth="yes"/>
      <point x="102" y="669"/>
      <point x="144" y="702"/>
      <point x="201" y="702" type="curve" smooth="yes" name="bow"/>
      <point x="268" y="702"/>
      <point x="307" y="650"/>
      <point x="308" y="580" type="curve" smooth="yes"/>
      <point x="309" y="457"/>
      <point x="193" y="400"/>
      <point x="56" y="400" type="curve"/>
      <point x="56" y="400"/>
      <point x="49" y="400"/>
      <point x="49" y="400" type="curve"/>
      <point x="49.0" y="394.0" type="line"/>
      <point x="49" y="251"/>
      <point x="146.0" y="151.0"/>
      <point x="287.0" y="151.0" type="curve" smooth="yes"/>
      <point x="399.0" y="151.0"/>
      <point x="487.0" y="194.0"/>
      <point x="540.0" y="292.0" type="curve"/>
      <point x="524.0" y="300.0" type="line"/>
      <point x="471.0" y="213.0"/>
      <point x="392.0" y="170.0"/>
      <point x="290.0" y="171.0" type="curve" smooth="yes"/>
      <point x="159.0" y="172.0"/>
      <point x="70.0" y="264.0"/>
      <point x="70.0" y="394.0" type="curve"/>
      <point x="63" y="385" type="line"/>
      <point x="56" y="377" type="line"/>
      <point x="205" y="377"/>
      <point x="328" y="444"/>
      <point x="328" y="580" type="curve" smooth="yes"/>
      <point x="328" y="662"/>
      <point x="280" y="722"/>
      <point x="202" y="722" type="curve" smooth="yes" name="bow"/>
      <point x="132" y="722"/>
      <point x="80" y="681"/>
      <point x="79" y="612" type="curve"/>
      <point x="79" y="565"/>
      <point x="105" y="535"/>
      <point x="145" y="510" type="curve"/>
    </contour>
  </outline>
</glyph>
<glyph name="padeva" format="1">
  <advance width="573"/>
  <unicode hex="092A"/>
  <outline>
    <contour>
      <point x="429" y="369" type="line"/>
      <point x="395" y="292"/>
      <point x="336" y="259"/>
      <point x="252" y="259" type="curve" smooth="yes"/>
      <point x="155" y="259"/>
      <point x="99" y="326"/>
      <point x="99" y="424" type="curve" smooth="yes"/>
      <point x="99" y="710" type="line"/>
      <point x="77" y="710" type="line"/>
      <point x="77" y="427" type="line" smooth="yes"/>
      <point x="77" y="315"/>
      <point x="142" y="238"/>
      <point x="251" y="238" type="curve" smooth="yes"/>
      <point x="343" y="238"/>
      <point x="409" y="276"/>
      <point x="444" y="361" type="curve"/>
    </contour>
    <contour>
      <point x="-12" y="700" type="line"/>
      <point x="584" y="700" type="line"/>
      <point x="584" y="722" type="line"/>
      <point x="-12" y="722" type="line"/>
    </contour>
    <contour>
      <point x="444" y="0" type="line"/>
      <point x="444" y="710" type="line"/>
      <point x="422" y="710" type="line"/>
      <point x="422" y="0" type="line"/>
    </contour>
  </outline>
</glyph>
<glyph name="uni092C" format="1">
  <advance width="618"/>
  <unicode hex="092C"/>
  <outline>
    <contour>
      <point x="405" y="199" type="line"/>
      <point x="176" y="509" type="line"/>
      <point x="158" y="497" type="line"/>
      <point x="389" y="185" type="line"/>
    </contour>
    <contour>
      <point x="624" y="700" type="line"/>
      <point x="624" y="722" type="line"/>
      <point x="-11" y="722" type="line"/>
      <point x="-11" y="700" type="line"/>
    </contour>
    <contour>
      <point x="461" y="710" type="line"/>
      <point x="461" y="0" type="line"/>
      <point x="483" y="0" type="line"/>
      <point x="483" y="710" type="line"/>
    </contour>
    <contour>
      <point x="464" y="302" type="line"/>
      <point x="429" y="216"/>
      <point x="367" y="166"/>
      <point x="275" y="166" type="curve" smooth="yes"/>
      <point x="160" y="166"/>
      <point x="81" y="239"/>
      <point x="81" y="353" type="curve" smooth="yes"/>
      <point x="81" y="460"/>
      <point x="159" y="525"/>
      <point x="269" y="525" type="curve" smooth="yes"/>
      <point x="355" y="525"/>
      <point x="416" y="486"/>
      <point x="463" y="413" type="curve"/>
      <point x="476" y="429" type="line"/>
      <point x="431" y="508"/>
      <point x="363" y="545"/>
      <point x="272" y="545" type="curve" smooth="yes"/>
      <point x="149" y="545"/>
      <point x="60" y="472"/>
      <point x="60" y="353" type="curve" smooth="yes"/>
      <point x="60" y="227"/>
      <point x="146" y="145"/>
      <point x="273" y="145" type="curve" smooth="yes"/>
      <point x="374" y="145"/>
      <point x="445" y="198"/>
      <point x="480" y="294" type="curve"/>
    </contour>
  </outline>
</glyph>
<glyph name="madeva" format="1">
  <advance width="689"/>
  <unicode hex="092E"/>
  <outline>
    <contour>
      <point x="695" y="700" type="line"/>
      <point x="695" y="722" type="line"/>
      <point x="-12" y="722" type="line"/>
      <point x="-12" y="700" type="line"/>
    </contour>
    <contour>
      <point x="533" y="710" type="line"/>
      <point x="533" y="0" type="line"/>
      <point x="555" y="0" type="line"/>
      <point x="555" y="710" type="line"/>
    </contour>
    <contour>
      <point x="147" y="710" type="line"/>
      <point x="147" y="258" type="line" smooth="yes"/>
      <point x="147" y="235"/>
      <point x="134" y="218"/>
      <point x="113" y="218" type="curve" smooth="yes"/>
      <point x="90" y="218"/>
      <point x="74" y="235"/>
      <point x="74" y="258" type="curve" smooth="yes"/>
      <point x="74" y="284"/>
      <point x="93" y="302"/>
      <point x="120" y="302" type="curve" smooth="yes"/>
      <point x="548" y="302" type="line"/>
      <point x="548" y="322" type="line"/>
      <point x="121" y="322" type="line" smooth="yes"/>
      <point x="81" y="322"/>
      <point x="53" y="296"/>
      <point x="53" y="257" type="curve" smooth="yes"/>
      <point x="53" y="222"/>
      <point x="77" y="198"/>
      <point x="112" y="198" type="curve" smooth="yes"/>
      <point x="145" y="198"/>
      <point x="167" y="224"/>
      <point x="167" y="258" type="curve" smooth="yes"/>
      <point x="167" y="710" type="line"/>
    </contour>
    <contour>
      <point x="155" y="185" type="line"/>
      <point x="157" y="184"/>
      <point x="165" y="15"/>
      <point x="170" y="23" type="curve" smooth="yes"/>
      <point x="175" y="31"/>
      <point x="341" y="203"/>
      <point x="341" y="203" type="curve"/>
    </contour>
  </outline>
</glyph>
<glyph name="uni0932" format="1">
  <advance width="781"/>
  <unicode hex="0932"/>
  <outline>
    <contour>
      <point x="641" y="710" type="line"/>
      <point x="641" y="0" type="line"/>
      <point x="663" y="0" type="line"/>
      <point x="663" y="710" type="line"/>
    </contour>
    <contour>
      <point x="793" y="700" type="line"/>
      <point x="793" y="722" type="line"/>
      <point x="-12" y="722" type="line"/>
      <point x="-12" y="700" type="line"/>
    </contour>
    <contour>
      <point x="645" y="476" type="line"/>
      <point x="605" y="498"/>
      <point x="571" y="510"/>
      <point x="526" y="510" type="curve" smooth="yes"/>
      <point x="401" y="510"/>
      <point x="353" y="391"/>
      <point x="353" y="250" type="curve"/>
      <point x="373" y="250" type="line"/>
      <point x="373" y="379"/>
      <point x="411" y="490"/>
      <point x="524" y="490" type="curve" smooth="yes"/>
      <point x="571" y="490"/>
      <point x="606" y="478"/>
      <point x="645" y="453" type="curve"/>
    </contour>
    <contour>
      <point x="295" y="8" type="line"/>
      <point x="176" y="91"/>
      <point x="74" y="168"/>
      <point x="74" y="311" type="curve" smooth="yes"/>
      <point x="74" y="413"/>
      <point x="124" y="493"/>
      <point x="219" y="493" type="curve" smooth="yes"/>
      <point x="292" y="493"/>
      <point x="342" y="459"/>
      <point x="391" y="405" type="curve"/>
      <point x="401" y="421" type="line"/>
      <point x="350" y="477"/>
      <point x="297" y="513"/>
      <point x="221" y="513" type="curve" smooth="yes"/>
      <point x="113" y="513"/>
      <point x="53" y="424"/>
      <point x="53" y="309" type="curve" smooth="yes"/>
      <point x="53" y="159"/>
      <point x="157" y="76"/>
      <point x="283" y="-9" type="curve"/>
    </contour>
  </outline>
</glyph>
<glyph name="shadeva" format="1">
  <advance width="765"/>
  <unicode hex="0936"/>
  <outline>
    <contour>
      <point x="58" y="331" type="line"/>
      <point x="338" y="-2" type="line"/>
      <point x="359" y="16" type="line"/>
      <point x="73" y="344" type="line"/>
    </contour>
    <contour>
      <point x="624" y="710" type="line"/>
      <point x="624" y="0" type="line"/>
      <point x="646" y="0" type="line"/>
      <point x="646" y="710" type="line"/>
    </contour>
    <contour>
      <point x="777" y="700" type="line"/>
      <point x="777" y="722" type="line"/>
      <point x="524" y="722" type="line"/>
      <point x="524" y="700" type="line"/>
    </contour>
    <contour>
      <point x="132" y="214" type="curve"/>
      <point x="315" y="214"/>
      <point x="433" y="336"/>
      <point x="433" y="521" type="curve" smooth="yes"/>
      <point x="433" y="639"/>
      <point x="370" y="725"/>
      <point x="257" y="725" type="curve" smooth="yes"/>
      <point x="159" y="725"/>
      <point x="88" y="674"/>
      <point x="87" y="581" type="curve"/>
      <point x="87" y="511"/>
      <point x="126" y="465"/>
      <point x="193" y="440" type="curve"/>
      <point x="203" y="463" type="line"/>
      <point x="144" y="482"/>
      <point x="109" y="521"/>
      <point x="109" y="582" type="curve" smooth="yes"/>
      <point x="110" y="661"/>
      <point x="172" y="702"/>
      <point x="256" y="702" type="curve" smooth="yes"/>
      <point x="356" y="702"/>
      <point x="410" y="624"/>
      <point x="411" y="519" type="curve" smooth="yes"/>
      <point x="412" y="349"/>
      <point x="302" y="236"/>
      <point x="132" y="236" type="curve"/>
      <point x="86" y="236"/>
      <point x="49" y="255"/>
      <point x="49" y="297" type="curve" smooth="yes"/>
      <point x="49" y="313"/>
      <point x="58" y="324"/>
      <point x="73" y="324" type="curve"/>
      <point x="73" y="344" type="line"/>
      <point x="44" y="344"/>
      <point x="27" y="323"/>
      <point x="27" y="294" type="curve" smooth="yes"/>
      <point x="27" y="240"/>
      <point x="73" y="215"/>
    </contour>
  </outline>
</glyph>
<glyph name="sadeva" format="1">
  <advance width="763"/>
  <unicode hex="0938"/>
  <outline>
    <contour>
      <point x="627" y="407" type="line"/>
      <point x="579" y="358"/>
      <point x="530" y="330"/>
      <point x="462" y="330" type="curve" smooth="yes"/>
      <point x="408" y="330"/>
      <point x="368" y="346"/>
      <point x="325" y="379" type="curve"/>
      <point x="308" y="366" type="line"/>
      <point x="354" y="326"/>
      <point x="400" y="308"/>
      <point x="460" y="308" type="curve" smooth="yes"/>
      <point x="537" y="308"/>
      <point x="594" y="337"/>
      <point x="646" y="394" type="curve"/>
    </contour>
    <contour>
      <point x="231" y="718" type="curve"/>
      <point x="215" y="702" type="line"/>
      <point x="286" y="636"/>
      <point x="342" y="575"/>
      <point x="342" y="479" type="curve" smooth="yes"/>
      <point x="342" y="390"/>
      <point x="288" y="325"/>
      <point x="202" y="325" type="curve" smooth="yes"/>
      <point x="143" y="325"/>
      <point x="106" y="362"/>
      <point x="76" y="414" type="curve"/>
      <point x="66" y="398" type="line"/>
      <point x="90" y="354"/>
      <point x="133" y="303"/>
      <point x="202" y="303" type="curve" smooth="yes"/>
      <point x="301" y="303"/>
      <point x="364" y="377"/>
      <point x="364" y="479" type="curve" smooth="yes"/>
      <point x="364" y="581"/>
      <point x="305" y="647"/>
    </contour>
    <contour>
      <point x="624" y="710" type="line"/>
      <point x="624" y="0" type="line"/>
      <point x="646" y="0" type="line"/>
      <point x="646" y="710" type="line"/>
    </contour>
    <contour>
      <point x="775" y="700" type="line"/>
      <point x="775" y="722" type="line"/>
      <point x="-12" y="722" type="line"/>
      <point x="-12" y="700" type="line"/>
    </contour>
    <contour>
      <point x="335" y="13" type="line"/>
      <point x="76" y="414" type="line"/>
      <point x="58" y="405" type="line"/>
      <point x="307" y="-4" type="line"/>
    </contour>
  </outline>
</glyph>
<glyph name="nuktadeva" format="1">
  <advance width="0"/>
  <unicode hex="093C"/>
  <outline>
    <contour>
      <point x="-510" y="-88" type="curve" smooth="yes"/>
      <point x="-510" y="-102"/>
      <point x="-499" y="-113"/>
      <point x="-485" y="-113" type="curve" smooth="yes"/>
      <point x="-471" y="-113"/>
      <point x="-459" y="-101"/>
      <point x="-459" y="-88" type="curve" smooth="yes"/>
      <point x="-459" y="-73"/>
      <point x="-470" y="-62"/>
      <point x="-485" y="-62" type="curve" smooth="yes"/>
      <point x="-498" y="-62"/>
      <point x="-510" y="-74"/>
    </contour>
  </outline>
</glyph>
<glyph name="uvowelsigndeva" format="1">
  <advance width="0"/>
  <unicode hex="0941"/>
  <outline>
    <contour>
      <point x="-479" y="-79" type="curve"/>
      <point x="-496" y="-93" type="line"/>
      <point x="-400" y="-218"/>
      <point x="-308" y="-312"/>
      <point x="-152" y="-312" type="curve" smooth="yes"/>
      <point x="-52" y="-312"/>
      <point x="19" y="-255"/>
      <point x="19" y="-159" type="curve" smooth="yes"/>
      <point x="19" y="-59"/>
      <point x="-46" y="8"/>
      <point x="-145" y="8" type="curve"/>
      <point x="-180" y="8"/>
      <point x="-206" y="3"/>
      <point x="-239" y="-10" type="curve"/>
      <point x="-231" y="-30" type="line"/>
      <point x="-202" y="-16"/>
      <point x="-178" y="-12"/>
      <point x="-146" y="-12" type="curve"/>
      <point x="-59" y="-12"/>
      <point x="-3" y="-71"/>
      <point x="-3" y="-159" type="curve" smooth="yes"/>
      <point x="-3" y="-242"/>
      <point x="-66" y="-291"/>
      <point x="-153" y="-291" type="curve" smooth="yes"/>
      <point x="-302" y="-291"/>
      <point x="-387" y="-198"/>
    </contour>
  </outline>
</glyph>
<glyph name="uuvowelsigndeva" format="1">
  <advance width="0"/>
  <unicode hex="0942"/>
  <outline>
    <contour>
      <point x="149" y="-280" type="curve"/>
      <point x="169" y="-271" type="line"/>
      <point x="93" y="-114"/>
      <point x="-5" y="8"/>
      <point x="-174" y="8" type="curve" smooth="yes"/>
      <point x="-272" y="8"/>
      <point x="-345" y="-51"/>
      <point x="-345" y="-145" type="curve" smooth="yes"/>
      <point x="-345" y="-243"/>
      <point x="-279" y="-312"/>
      <point x="-181" y="-312" type="curve"/>
      <point x="-146" y="-312"/>
      <point x="-119" y="-307"/>
      <point x="-87" y="-294" type="curve"/>
      <point x="-95" y="-274" type="line"/>
      <point x="-123" y="-288"/>
      <point x="-149" y="-292"/>
      <point x="-180" y="-292" type="curve"/>
      <point x="-265" y="-292"/>
      <point x="-323" y="-231"/>
      <point x="-323" y="-145" type="curve" smooth="yes"/>
      <point x="-323" y="-63"/>
      <point x="-259" y="-13"/>
      <point x="-173" y="-13" type="curve" smooth="yes"/>
      <point x="-13" y="-13"/>
      <point x="79" y="-131"/>
    </contour>
  </outline>
</glyph>
<glyph name="rvocalicvowelsigndeva" format="1">
  <advance width="0"/>
  <unicode hex="0943"/>
  <outline>
    <contour>
      <point x="23.0" y="-208.0" type="line"/>
      <point x="-44" y="-253"/>
      <point x="-102" y="-289"/>
      <point x="-183" y="-289" type="curve" smooth="yes"/>
      <point x="-269" y="-289"/>
      <point x="-330" y="-233"/>
      <point x="-330.0" y="-148.0" type="curve" smooth="yes"/>
      <point x="-330" y="-66"/>
      <point x="-269" y="-12"/>
      <point x="-185.0" y="-12.0" type="curve" smooth="yes"/>
      <point x="-107.0" y="-12.0" type="line"/>
      <point x="-107.0" y="8.0" type="line"/>
      <point x="-186.0" y="8.0" type="line" smooth="yes"/>
      <point x="-282" y="8"/>
      <point x="-352" y="-54"/>
      <point x="-352.0" y="-148.0" type="curve" smooth="yes"/>
      <point x="-352" y="-245"/>
      <point x="-282" y="-310"/>
      <point x="-184" y="-310" type="curve" smooth="yes"/>
      <point x="-98" y="-310"/>
      <point x="-36" y="-275"/>
      <point x="34" y="-226" type="curve"/>
    </contour>
  </outline>
</glyph>
<glyph name="ecandravowelsigndeva" format="1">
  <advance width="0"/>
  <unicode hex="0945"/>
  <outline>
    <contour>
      <point x="4" y="1030" type="line"/>
      <point x="4" y="936"/>
      <point x="-57" y="880"/>
      <point x="-152" y="880" type="curve" smooth="yes"/>
      <point x="-246" y="880"/>
      <point x="-305" y="937"/>
      <point x="-305" y="1030" type="curve"/>
      <point x="-326" y="1030" type="line"/>
      <point x="-326" y="924"/>
      <point x="-260" y="857"/>
      <point x="-154" y="857" type="curve" smooth="yes"/>
      <point x="-45" y="857"/>
      <point x="25" y="922"/>
      <point x="25" y="1030" type="curve"/>
    </contour>
  </outline>
</glyph>
<glyph name="acutedeva" format="1">
  <advance width="2014"/>
  <unicode hex="0954"/>
  <outline>
    <contour>
      <point x="-384" y="836" type="line"/>
      <point x="-399" y="848" type="line"/>
      <point x="-243" y="1038" type="line"/>
      <point x="-224" y="1023" type="line"/>
    </contour>
  </outline>
</glyph>
<glyph name="qadeva" format="1">
  <advance width="860"/>
  <unicode hex="0958"/>
  <outline>
    <contour>
      <point x="438" y="386" type="line"/>
      <point x="462" y="474"/>
      <point x="530" y="524"/>
      <point x="621" y="524" type="curve" smooth="yes"/>
      <point x="716" y="524"/>
      <point x="791" y="467"/>
      <point x="791" y="376" type="curve" smooth="yes"/>
      <point x="791" y="279"/>
      <point x="730" y="206"/>
      <point x="636" y="206" type="curve" smooth="yes"/>
      <point x="589" y="206"/>
      <point x="550" y="216"/>
      <point x="514" y="246" type="curve"/>
      <point x="501" y="229" type="line"/>
      <point x="541" y="197"/>
      <point x="585" y="187"/>
      <point x="636" y="187" type="curve" smooth="yes"/>
      <point x="741" y="187"/>
      <point x="812" y="267"/>
      <point x="812" y="375" type="curve" smooth="yes"/>
      <point x="812" y="479"/>
      <point x="729" y="545"/>
      <point x="621" y="545" type="curve" smooth="yes"/>
      <point x="520" y="545"/>
      <point x="445" y="485"/>
      <point x="421" y="386" type="curve"/>
    </contour>
    <contour>
      <point x="420" y="339" type="line"/>
      <point x="390" y="254"/>
      <point x="319" y="207"/>
      <point x="228" y="207" type="curve" smooth="yes"/>
      <point x="135" y="207"/>
      <point x="68" y="274"/>
      <point x="68" y="367" type="curve" smooth="yes"/>
      <point x="68" y="460"/>
      <point x="137" y="525"/>
      <point x="232" y="525" type="curve" smooth="yes"/>
      <point x="318" y="525"/>
      <point x="382" y="476"/>
      <point x="419" y="397" type="curve"/>
      <point x="432" y="413" type="line"/>
      <point x="397" y="498"/>
      <point x="324" y="545"/>
      <point x="232" y="545" type="curve" smooth="yes"/>
      <point x="125" y="545"/>
      <point x="47" y="472"/>
      <point x="47" y="367" type="curve" smooth="yes"/>
      <point x="47" y="261"/>
      <point x="123" y="186"/>
      <point x="229" y="186" type="curve" smooth="yes"/>
      <point x="330" y="186"/>
      <point x="407" y="243"/>
      <point x="437" y="339" type="curve"/>
    </contour>
    <contour>
      <point x="419" y="710" type="line"/>
      <point x="419" y="0" type="line"/>
      <point x="441" y="0" type="line"/>
      <point x="441" y="710" type="line"/>
    </contour>
    <contour>
      <point x="879" y="700" type="line"/>
      <point x="879" y="722" type="line"/>
      <point x="-11" y="722" type="line"/>
      <point x="-11" y="700" type="line"/>
    </contour>
    <component base="nuktadeva" xOffset="584" yOffset="88"/>
  </outline>
</glyph>
<glyph name="rhadeva" format="1">
  <advance width="632"/>
  <unicode hex="095D"/>
  <outline>
    <contour>
      <point x="464" y="522" type="line"/>
      <point x="464" y="544" type="line"/>
      <point x="363" y="544" type="line" smooth="yes"/>
      <point x="190" y="544"/>
      <point x="65" y="446"/>
      <point x="65" y="280" type="curve" smooth="yes"/>
      <point x="65" y="112"/>
      <point x="175" y="-1"/>
      <point x="342" y="-1" type="curve" smooth="yes"/>
      <point x="474" y="-1"/>
      <point x="582" y="48"/>
      <point x="582" y="166" type="curve" smooth="yes"/>
      <point x="582" y="252"/>
      <point x="524" y="309"/>
      <point x="437" y="309" type="curve" smooth="yes"/>
      <point x="351" y="309"/>
      <point x="294" y="252"/>
      <point x="294" y="166" type="curve" smooth="yes"/>
      <point x="294" y="88"/>
      <point x="343" y="40"/>
      <point x="415" y="6" type="curve"/>
      <point x="429" y="23" type="line"/>
      <point x="362" y="52"/>
      <point x="316" y="95"/>
      <point x="316" y="167" type="curve" smooth="yes"/>
      <point x="316" y="239"/>
      <point x="364" y="287"/>
      <point x="436" y="287" type="curve" smooth="yes"/>
      <point x="510" y="287"/>
      <point x="560" y="238"/>
      <point x="560" y="164" type="curve" smooth="yes"/>
      <point x="560" y="60"/>
      <point x="461" y="21"/>
      <point x="344" y="21" type="curve" smooth="yes"/>
      <point x="189" y="21"/>
      <point x="87" y="127"/>
      <point x="87" y="283" type="curve" smooth="yes"/>
      <point x="87" y="434"/>
      <point x="204" y="522"/>
      <point x="363" y="522" type="curve" smooth="yes"/>
    </contour>
    <contour>
      <point x="645" y="700" type="line"/>
      <point x="645" y="722" type="line"/>
      <point x="-12" y="722" type="line"/>
      <point x="-12" y="700" type="line"/>
    </contour>
    <contour>
      <point x="453" y="711" type="line"/>
      <point x="453" y="522" type="line"/>
      <point x="475" y="522" type="line"/>
      <point x="475" y="711" type="line"/>
    </contour>
    <component base="nuktadeva" xOffset="839" yOffset="-39"/>
  </outline>
</glyph>
<glyph name="yyadeva" format="1">
  <advance width="648"/>
  <unicode hex="095F"/>
  <outline>
    <contour>
      <point x="63" y="417" type="line"/>
      <point x="184" y="417"/>
      <point x="289" y="451"/>
      <point x="289" y="557" type="curve" smooth="yes"/>
      <point x="289" y="625"/>
      <point x="258" y="672"/>
      <point x="209" y="720" type="curve"/>
      <point x="192" y="705" type="line"/>
      <point x="238" y="661"/>
      <point x="265" y="617"/>
      <point x="265" y="554" type="curve" smooth="yes"/>
      <point x="265" y="459"/>
      <point x="166" y="438"/>
      <point x="57" y="438" type="curve"/>
    </contour>
    <contour>
      <point x="508" y="710" type="line"/>
      <point x="508" y="0" type="line"/>
      <point x="530" y="0" type="line"/>
      <point x="530" y="710" type="line"/>
    </contour>
    <contour>
      <point x="57" y="438" type="line"/>
      <point x="57" y="283"/>
      <point x="153" y="173"/>
      <point x="304" y="173" type="curve" smooth="yes"/>
      <point x="395" y="173"/>
      <point x="462" y="208"/>
      <point x="525" y="275" type="curve"/>
      <point x="513" y="293" type="line"/>
      <point x="451" y="232"/>
      <point x="390" y="195"/>
      <point x="304" y="195" type="curve" smooth="yes"/>
      <point x="166" y="195"/>
      <point x="79" y="296"/>
      <point x="79" y="437" type="curve"/>
    </contour>
    <contour>
      <point x="658" y="700" type="line"/>
      <point x="658" y="722" type="line"/>
      <point x="-12" y="722" type="line"/>
      <point x="-12" y="700" type="line"/>
    </contour>
    <component base="nuktadeva" xOffset="583" yOffset="129"/>
  </outline>
</glyph>
<glyph name="rrvocalicdeva" format="1">
  <advance width="943"/>
  <unicode hex="0960"/>
  <outline>
    <contour>
      <point x="932" y="77" type="line"/>
      <point x="891" y="37"/>
      <point x="853" y="10"/>
      <point x="796" y="10" type="curve"/>
      <point x="725" y="10"/>
      <point x="673" y="51"/>
      <point x="674" y="119" type="curve" smooth="yes"/>
      <point x="676" y="186"/>
      <point x="729" y="220"/>
      <point x="794" y="245" type="curve"/>
      <point x="786" y="264" type="line"/>
      <point x="710" y="237"/>
      <point x="653" y="193"/>
      <point x="653" y="115" type="curve" smooth="yes"/>
      <point x="653" y="37"/>
      <point x="714" y="-10"/>
      <point x="795" y="-10" type="curve"/>
      <point x="857" y="-10"/>
      <point x="901" y="18"/>
      <point x="946" y="60" type="curve"/>
    </contour>
    <contour>
      <point x="54" y="467" type="line"/>
      <point x="98" y="500"/>
      <point x="133" y="524"/>
      <point x="188" y="524" type="curve" smooth="yes"/>
      <point x="306" y="524"/>
      <point x="347" y="424"/>
      <point x="445" y="362" type="curve"/>
      <point x="454" y="381" type="line"/>
      <point x="354" y="444"/>
      <point x="312" y="545"/>
      <point x="191" y="545" type="curve" smooth="yes"/>
      <point x="129" y="545"/>
      <point x="89" y="521"/>
      <point x="41" y="482" type="curve"/>
    </contour>
    <contour>
      <point x="442" y="389" type="line"/>
      <point x="129" y="188" type="line"/>
      <point x="141" y="168" type="line"/>
      <point x="454" y="373" type="line"/>
    </contour>
    <contour>
      <point x="436" y="711" type="line"/>
      <point x="436" y="0" type="line"/>
      <point x="458" y="0" type="line"/>
      <point x="458" y="711" type="line"/>
    </contour>
    <contour>
      <point x="441" y="387" type="curve"/>
      <point x="436" y="367" type="line"/>
      <point x="462" y="360"/>
      <point x="480" y="356"/>
      <point x="506" y="356" type="curve" smooth="yes"/>
      <point x="635" y="356"/>
      <point x="734" y="396"/>
      <point x="734" y="498" type="curve" smooth="yes"/>
      <point x="734" y="536"/>
      <point x="713" y="561"/>
      <point x="676" y="561" type="curve" smooth="yes"/>
      <point x="642" y="561"/>
      <point x="625" y="539"/>
      <point x="604" y="511" type="curve"/>
      <point x="624" y="500" type="line"/>
      <point x="639" y="520"/>
      <point x="648" y="539"/>
      <point x="673" y="539" type="curve" smooth="yes"/>
      <point x="698" y="539"/>
      <point x="713" y="522"/>
      <point x="713" y="496" type="curve" smooth="yes"/>
      <point x="713" y="408"/>
      <point x="622" y="377"/>
      <point x="507" y="377" type="curve" smooth="yes"/>
      <point x="482" y="377"/>
      <point x="465" y="381"/>
    </contour>
    <contour>
      <point x="955" y="700" type="line"/>
      <point x="955" y="722" type="line"/>
      <point x="-12" y="722" type="line"/>
      <point x="-12" y="700" type="line"/>
    </contour>
    <contour>
      <point x="604" y="511" type="line"/>
      <point x="794" y="245" type="line"/>
      <point x="820" y="255" type="line"/>
      <point x="622" y="522" type="line"/>
    </contour>
  </outline>
</glyph>
<glyph name="lvocalicvowelsigndeva" format="1">
  <advance width="0"/>
  <unicode hex="0962"/>
  <outline>
    <contour>
      <point x="-222" y="-46" type="line"/>
      <point x="-257" y="-9"/>
      <point x="-292" y="11"/>
      <point x="-342" y="11" type="curve" smooth="yes"/>
      <point x="-425" y="11"/>
      <point x="-477" y="-49"/>
      <point x="-477" y="-134" type="curve" smooth="yes"/>
      <point x="-477" y="-194"/>
      <point x="-455" y="-237"/>
      <point x="-408" y="-274" type="curve"/>
      <point x="-394" y="-258" type="line"/>
      <point x="-435" y="-224"/>
      <point x="-456" y="-187"/>
      <point x="-456" y="-134" type="curve" smooth="yes"/>
      <point x="-456" y="-61"/>
      <point x="-413" y="-10"/>
      <point x="-343" y="-11" type="curve" smooth="yes"/>
      <point x="-297" y="-11"/>
      <point x="-266" y="-32"/>
      <point x="-234" y="-64" type="curve"/>
    </contour>
    <contour>
      <point x="-244" y="-166" type="line"/>
      <point x="-244" y="-80"/>
      <point x="-213" y="-10"/>
      <point x="-137" y="-11" type="curve" smooth="yes"/>
      <point x="-79" y="-11"/>
      <point x="-38" y="-47"/>
      <point x="-37" y="-104" type="curve" smooth="yes"/>
      <point x="-37" y="-136"/>
      <point x="-54" y="-156"/>
      <point x="-75" y="-180" type="curve" smooth="yes"/>
      <point x="-101" y="-211"/>
      <point x="-128" y="-233"/>
      <point x="-128" y="-274" type="curve" smooth="yes"/>
      <point x="-127" y="-321"/>
      <point x="-92" y="-347"/>
      <point x="-43" y="-347" type="curve" smooth="yes"/>
      <point x="-11" y="-347"/>
      <point x="11" y="-336"/>
      <point x="36" y="-316" type="curve"/>
      <point x="22" y="-299" type="line"/>
      <point x="3" y="-317"/>
      <point x="-15" y="-326"/>
      <point x="-41" y="-326" type="curve" smooth="yes"/>
      <point x="-78" y="-326"/>
      <point x="-107" y="-308"/>
      <point x="-106" y="-273" type="curve" smooth="yes"/>
      <point x="-106" y="-237"/>
      <point x="-80" y="-220"/>
      <point x="-58" y="-192" type="curve" smooth="yes"/>
      <point x="-35" y="-164"/>
      <point x="-16" y="-141"/>
      <point x="-16" y="-104" type="curve" smooth="yes"/>
      <point x="-15" y="-34"/>
      <point x="-64" y="11"/>
      <point x="-136" y="11" type="curve" smooth="yes"/>
      <point x="-225" y="11"/>
      <point x="-264" y="-68"/>
      <point x="-264" y="-166" type="curve"/>
    </contour>
  </outline>
</glyph>
<glyph name="dbldanda-deva" format="1">
  <advance width="703"/>
  <unicode hex="0965"/>
  <outline>
    <contour>
      <point x="474" y="722" type="line"/>
      <point x="474" y="0" type="line"/>
      <point x="496" y="0" type="line"/>
      <point x="496" y="722" type="line"/>
    </contour>
    <contour>
      <point x="206" y="722" type="line"/>
      <point x="206" y="0" type="line"/>
      <point x="228" y="0" type="line"/>
      <point x="228" y="722" type="line"/>
    </contour>
  </outline>
</glyph>
<glyph name="twodeva" format="1">
  <advance width="573"/>
  <unicode hex="0968"/>
  <outline>
    <contour>
      <point x="114" y="329" type="line"/>
      <point x="421" y="-28" type="line"/>
      <point x="440" y="-11" type="line"/>
      <point x="131" y="340" type="line"/>
    </contour>
    <contour>
      <point x="79" y="238"/>
      <point x="125" y="214"/>
      <point x="185" y="214" type="curve" smooth="yes"/>
      <point x="378" y="206"/>
      <point x="510" y="318"/>
      <point x="507" y="506" type="curve" smooth="yes"/>
      <point x="506" y="645"/>
      <point x="407" y="725"/>
      <point x="263" y="726" type="curve" smooth="yes"/>
      <point x="198" y="726"/>
      <point x="150" y="714"/>
      <point x="98" y="675" type="curve"/>
      <point x="110" y="659" type="line"/>
      <point x="159" y="695"/>
      <point x="203" y="707"/>
      <point x="264" y="707" type="curve" smooth="yes"/>
      <point x="395" y="708"/>
      <point x="484" y="633"/>
      <point x="486.0" y="505.0" type="curve" smooth="yes"/>
      <point x="489" y="331"/>
      <point x="364" y="230"/>
      <point x="184" y="235" type="curve" smooth="yes"/>
      <point x="137" y="235"/>
      <point x="99" y="251"/>
      <point x="99.0" y="293.0" type="curve" smooth="yes"/>
      <point x="99" y="311"/>
      <point x="112" y="321"/>
      <point x="131.0" y="320.0" type="curve"/>
      <point x="131.0" y="340.0" type="line"/>
      <point x="100" y="340"/>
      <point x="79" y="323"/>
      <point x="79.0" y="293.0" type="curve" smooth="yes"/>
    </contour>
  </outline>
</glyph>
<glyph name="sevendeva" format="1">
  <advance width="714"/>
  <unicode hex="096D"/>
  <outline>
    <contour>
      <point x="178" y="722" type="curve"/>
      <point x="153" y="731" type="line"/>
      <point x="106" y="605"/>
      <point x="85" y="511"/>
      <point x="85" y="376" type="curve" smooth="yes"/>
      <point x="85" y="175"/>
      <point x="183" y="30"/>
      <point x="371" y="30" type="curve" smooth="yes"/>
      <point x="551" y="30"/>
      <point x="638" y="176"/>
      <point x="638" y="371" type="curve" smooth="yes"/>
      <point x="638" y="494"/>
      <point x="581" y="585"/>
      <point x="466" y="585" type="curve" smooth="yes"/>
      <point x="379" y="585"/>
      <point x="328" y="523"/>
      <point x="328" y="433" type="curve" smooth="yes"/>
      <point x="328" y="288"/>
      <point x="445" y="227"/>
      <point x="594" y="188" type="curve"/>
      <point x="601" y="209" type="line"/>
      <point x="464" y="252"/>
      <point x="350" y="299"/>
      <point x="350" y="434" type="curve" smooth="yes"/>
      <point x="350" y="510"/>
      <point x="392" y="563"/>
      <point x="465" y="563" type="curve" smooth="yes"/>
      <point x="567" y="563"/>
      <point x="616" y="480"/>
      <point x="616" y="369" type="curve" smooth="yes"/>
      <point x="616" y="188"/>
      <point x="539" y="52"/>
      <point x="373" y="52" type="curve" smooth="yes"/>
      <point x="198" y="52"/>
      <point x="111" y="190"/>
      <point x="111" y="378" type="curve" smooth="yes"/>
      <point x="111" y="509"/>
      <point x="131" y="600"/>
    </contour>
  </outline>
</glyph>
<glyph name="uni0975" format="1">
  <advance width="1053"/>
  <unicode hex="0975"/>
  <outline>
    <contour>
      <point x="921" y="704" type="curve"/>
      <point x="940" y="704" type="line"/>
      <point x="976" y="764"/>
      <point x="1008" y="813"/>
      <point x="1008" y="882" type="curve" smooth="yes"/>
      <point x="1008" y="962"/>
      <point x="939" y="999"/>
      <point x="861" y="1028" type="curve" smooth="yes"/>
      <point x="796" y="1052"/>
      <point x="728" y="1065"/>
      <point x="728" y="1131" type="curve"/>
      <point x="710" y="1131" type="line"/>
      <point x="710" y="1058"/>
      <point x="781" y="1036"/>
      <point x="853" y="1010" type="curve" smooth="yes"/>
      <point x="925" y="984"/>
      <point x="989" y="951"/>
      <point x="989" y="878" type="curve" smooth="yes"/>
      <point x="989" y="810"/>
      <point x="954" y="763"/>
    </contour>
    <contour>
      <point x="911" y="704" type="curve"/>
      <point x="929" y="704" type="line"/>
      <point x="929" y="832"/>
      <point x="858" y="876"/>
      <point x="722" y="892" type="curve" smooth="yes"/>
      <point x="602" y="907"/>
      <point x="526" y="930"/>
      <point x="526" y="1041" type="curve"/>
      <point x="505" y="1041" type="line"/>
      <point x="505" y="918"/>
      <point x="588" y="890"/>
      <point x="722" y="872" type="curve" smooth="yes"/>
      <point x="843" y="856"/>
      <point x="911" y="819"/>
    </contour>
    <contour>
      <point x="911" y="698" type="line"/>
      <point x="911" y="0" type="line"/>
      <point x="933" y="0" type="line"/>
      <point x="933" y="698" type="line"/>
    </contour>
    <contour>
      <point x="1064" y="688" type="line"/>
      <point x="1064" y="710" type="line"/>
      <point x="498" y="710" type="line"/>
      <point x="498" y="688" type="line"/>
    </contour>
    <contour>
      <point x="644" y="401" type="line"/>
      <point x="505" y="335"/>
      <point x="388" y="367"/>
      <point x="236" y="392" type="curve"/>
      <point x="231" y="376" type="line"/>
      <point x="389" y="347"/>
      <point x="507" y="317"/>
      <point x="653" y="384" type="curve"/>
    </contour>
    <contour>
      <point x="170" y="398" type="curve"/>
      <point x="170" y="380" type="line"/>
      <point x="308" y="380"/>
      <point x="416" y="429"/>
      <point x="416" y="553" type="curve" smooth="yes"/>
      <point x="416" y="653"/>
      <point x="343" y="709"/>
      <point x="239" y="709" type="curve" smooth="yes"/>
      <point x="168" y="709"/>
      <point x="120" y="689"/>
      <point x="63" y="647" type="curve"/>
      <point x="77" y="631" type="line"/>
      <point x="129" y="669"/>
      <point x="172" y="689"/>
      <point x="236" y="689" type="curve" smooth="yes"/>
      <point x="329" y="689"/>
      <point x="395" y="640"/>
      <point x="394" y="551" type="curve" smooth="yes"/>
      <point x="393" y="440"/>
      <point x="294" y="398"/>
    </contour>
    <contour>
      <point x="639" y="698" type="line"/>
      <point x="639" y="0" type="line"/>
      <point x="661" y="0" type="line"/>
      <point x="661" y="698" type="line"/>
    </contour>
    <contour>
      <point x="170" y="377" type="line"/>
      <point x="310" y="377"/>
      <point x="423" y="338"/>
      <point x="425" y="214" type="curve" smooth="yes"/>
      <point x="427" y="106"/>
      <point x="343" y="48"/>
      <point x="227" y="52" type="curve" smooth="yes"/>
      <point x="157" y="52"/>
      <point x="96" y="83"/>
      <point x="50" y="135" type="curve"/>
      <point x="35" y="122" type="line"/>
      <point x="82" y="65"/>
      <point x="151" y="31"/>
      <point x="225" y="31" type="curve" smooth="yes"/>
      <point x="355" y="26"/>
      <point x="448" y="94"/>
      <point x="446" y="217" type="curve" smooth="yes"/>
      <point x="444" y="351"/>
      <point x="321" y="394"/>
      <point x="170" y="394" type="curve"/>
    </contour>
  </outline>
</glyph>
<glyph name="uni097D" format="1">
  <advance width="485"/>
  <unicode hex="097D"/>
  <outline>
    <contour>
      <point x="84" y="668" type="line"/>
      <point x="115" y="689"/>
      <point x="157" y="702"/>
      <point x="204" y="702" type="curve" smooth="yes"/>
      <point x="314" y="702"/>
      <point x="389" y="640"/>
      <point x="389" y="533" type="curve" smooth="yes"/>
      <point x="389" y="411"/>
      <point x="294" y="348"/>
      <point x="163" y="348" type="curve"/>
      <point x="163" y="327" type="line"/>
      <point x="306" y="327"/>
      <point x="409" y="400"/>
      <point x="409" y="535" type="curve" smooth="yes"/>
      <point x="409" y="653"/>
      <point x="326" y="722"/>
      <point x="205" y="722" type="curve" smooth="yes"/>
      <point x="154" y="722"/>
      <point x="110" y="708"/>
      <point x="74" y="687" type="curve"/>
    </contour>
    <contour>
      <point x="163" y="338" type="line"/>
      <point x="163" y="0" type="line"/>
      <point x="185" y="0" type="line"/>
      <point x="185" y="338" type="line"/>
    </contour>
  </outline>
</glyph>
<glyph name="uni097E" format="1">
  <advance width="563"/>
  <unicode hex="097E"/>
  <outline>
    <contour>
      <point x="574" y="700" type="line"/>
      <point x="574" y="722" type="line"/>
      <point x="-12" y="722" type="line"/>
      <point x="-12" y="700" type="line"/>
    </contour>
    <contour>
      <point x="168" y="289" type="line"/>
      <point x="122" y="323"/>
      <point x="86" y="360"/>
      <point x="86" y="417" type="curve" smooth="yes"/>
      <point x="86" y="493"/>
      <point x="144" y="524"/>
      <point x="231" y="524" type="curve" smooth="yes"/>
      <point x="424" y="524" type="line"/>
      <point x="424" y="544" type="line"/>
      <point x="230" y="544" type="line" smooth="yes"/>
      <point x="131" y="544"/>
      <point x="64" y="506"/>
      <point x="64" y="417" type="curve" smooth="yes"/>
      <point x="64" y="350"/>
      <point x="104" y="304"/>
      <point x="162" y="267" type="curve"/>
    </contour>
    <contour>
      <point x="162" y="267" type="line"/>
      <point x="331" y="319"/>
      <point x="493" y="312"/>
      <point x="493" y="178" type="curve" smooth="yes"/>
      <point x="493" y="71"/>
      <point x="402" y="10"/>
      <point x="288" y="10" type="curve" smooth="yes"/>
      <point x="195" y="10"/>
      <point x="125" y="52"/>
      <point x="61" y="121" type="curve"/>
      <point x="45" y="105" type="line"/>
      <point x="113" y="34"/>
      <point x="186" y="-11"/>
      <point x="284" y="-11" type="curve" smooth="yes"/>
      <point x="413" y="-11"/>
      <point x="514" y="61"/>
      <point x="514" y="183" type="curve" smooth="yes"/>
      <point x="512" y="325"/>
      <point x="344" y="343"/>
      <point x="168" y="289" type="curve"/>
    </contour>
    <contour>
      <point x="514" y="-138" type="line"/>
      <point x="514" y="-116" type="line"/>
      <point x="68" y="-116" type="line"/>
      <point x="68" y="-138" type="line"/>
    </contour>
    <contour>
      <point x="412" y="711" type="line"/>
      <point x="412" y="524" type="line"/>
      <point x="434" y="524" type="line"/>
      <point x="434" y="711" type="line"/>
    </contour>
  </outline>
</glyph>
<glyph name="partialdiff" format="1">
  <advance width="1141"/>
  <unicode hex="2202"/>
  <outline>
    <contour>
      <point x="549" y="1473"/>
      <point x="461" y="1443"/>
      <point x="341" y="1371" type="curve"/>
      <point x="314" y="1273" type="line"/>
      <point x="431" y="1320"/>
      <point x="507" y="1343"/>
      <point x="568" y="1343" type="curve" smooth="yes"/>
      <point x="740" y="1343"/>
      <point x="844" y="1235"/>
      <point x="844" y="924" type="curve" smooth="yes"/>
      <point x="843" y="860" type="line"/>
      <point x="761" y="951"/>
      <point x="665" y="971"/>
      <point x="580" y="971" type="curve" smooth="yes"/>
      <point x="251" y="971"/>
      <point x="69" y="602"/>
      <point x="69" y="343" type="curve" smooth="yes"/>
      <point x="69" y="90"/>
      <point x="229" y="-25"/>
      <point x="445" y="-25" type="curve" smooth="yes"/>
      <point x="784" y="-25"/>
      <point x="1031" y="354"/>
      <point x="1031" y="942" type="curve" smooth="yes"/>
      <point x="1031" y="1230"/>
      <point x="955" y="1473"/>
      <point x="634" y="1473" type="curve" smooth="yes"/>
    </contour>
    <contour>
      <point x="629" y="114"/>
      <point x="580" y="106"/>
      <point x="542" y="106" type="curve" smooth="yes"/>
      <point x="341" y="106"/>
      <point x="264" y="295"/>
      <point x="264" y="462" type="curve" smooth="yes"/>
      <point x="264" y="591"/>
      <point x="313" y="760"/>
      <point x="398" y="824" type="curve" smooth="yes"/>
      <point x="422" y="842"/>
      <point x="447" y="852"/>
      <point x="501" y="852" type="curve" smooth="yes"/>
      <point x="692" y="852"/>
      <point x="780" y="741"/>
      <point x="826" y="623" type="curve"/>
      <point x="801" y="424"/>
      <point x="749" y="232"/>
      <point x="659" y="143" type="curve" smooth="yes"/>
    </contour>
  </outline>
</glyph>
<glyph name="summation" format="1">
  <advance width="1298"/>
  <unicode hex="2211"/>
  <outline>
    <contour>
      <point x="77" y="-298" type="line"/>
      <point x="1127" y="-298" type="line"/>
      <point x="1211" y="29" type="line"/>
      <point x="1130" y="43" type="line"/>
      <point x="1008" y="-142" type="line"/>
      <point x="251" y="-175" type="line"/>
      <point x="786" y="643" type="line"/>
      <point x="329" y="1295" type="line"/>
      <point x="959" y="1246" type="line"/>
      <point x="1055" y="1056" type="line"/>
      <point x="1133" y="1079" type="line"/>
      <point x="1099" y="1396" type="line"/>
      <point x="973" y="1384" type="line"/>
      <point x="105" y="1384" type="line"/>
      <point x="89" y="1308" type="line"/>
      <point x="579" y="618" type="line"/>
      <point x="60" y="-223" type="line"/>
    </contour>
  </outline>
</glyph>
<glyph name="lozenge" format="1">
  <advance width="1027"/>
  <unicode hex="25CA"/>
  <outline>
    <contour>
      <point x="452" y="1384" type="line"/>
      <point x="70" y="678" type="line"/>
      <point x="454" y="-35" type="line"/>
      <point x="568" y="-35" type="line"/>
      <point x="957" y="678" type="line"/>
      <point x="574" y="1384" type="line"/>
    </contour>
    <contour>
      <point x="811" y="678" type="line"/>
      <point x="511" y="134" type="line"/>
      <point x="217" y="678" type="line"/>
      <point x="514" y="1222" type="line"/>
    </contour>
  </outline>
</glyph>
<glyph name="B" format="1">
  <advance width="618"/>
  <outline>
    <contour>
      <point x="130" y="722" type="line"/>
      <point x="27" y="722" type="line"/>
      <point x="27" y="702" type="line"/>
      <point x="130" y="702" type="line"/>
    </contour>
    <contour>
      <point x="129" y="20" type="line"/>
      <point x="26" y="20" type="line"/>
      <point x="26" y="0" type="line"/>
      <point x="129" y="0" type="line"/>
    </contour>
    <contour>
      <point x="119" y="702" type="line"/>
      <point x="335" y="702" type="line" smooth="yes"/>
      <point x="419" y="702"/>
      <point x="471" y="645"/>
      <point x="471" y="555" type="curve" smooth="yes"/>
      <point x="471" y="467"/>
      <point x="386" y="420"/>
      <point x="293" y="420" type="curve" smooth="yes"/>
      <point x="119" y="420" type="line"/>
      <point x="119" y="400" type="line"/>
      <point x="282" y="400" type="line" smooth="yes"/>
      <point x="393" y="400"/>
      <point x="493" y="452"/>
      <point x="493" y="555" type="curve" smooth="yes"/>
      <point x="493" y="657"/>
      <point x="435" y="722"/>
      <point x="335" y="722" type="curve" smooth="yes"/>
      <point x="119" y="722" type="line"/>
    </contour>
    <contour>
      <point x="142" y="0" type="line"/>
      <point x="142" y="722" type="line"/>
      <point x="119" y="722" type="line"/>
      <point x="119" y="0" type="line"/>
    </contour>
    <contour>
      <point x="119" y="400" type="line"/>
      <point x="293" y="400" type="line" smooth="yes"/>
      <point x="422" y="400"/>
      <point x="518" y="332"/>
      <point x="518" y="204" type="curve" smooth="yes"/>
      <point x="518" y="89"/>
      <point x="449" y="20"/>
      <point x="333" y="20" type="curve" smooth="yes"/>
      <point x="119" y="20" type="line"/>
      <point x="119" y="0" type="line"/>
      <point x="333" y="0" type="line" smooth="yes"/>
      <point x="463" y="0"/>
      <point x="540" y="76"/>
      <point x="540" y="204" type="curve" smooth="yes"/>
      <point x="540" y="347"/>
      <point x="429" y="420"/>
      <point x="282" y="420" type="curve" smooth="yes"/>
      <point x="119" y="420" type="line"/>
    </contour>
  </outline>
</glyph>
<glyph name="a" format="1">
  <advance width="514"/>
  <outline>
    <contour>
      <point x="64" y="464" type="line"/>
      <point x="64" y="381" type="line"/>
      <point x="84" y="381" type="line"/>
      <point x="84" y="464" type="line"/>
    </contour>
    <contour>
      <point x="421" y="0" type="line"/>
      <point x="421" y="390" type="line" smooth="yes"/>
      <point x="421" y="496"/>
      <point x="360" y="533"/>
      <point x="255" y="533" type="curve" smooth="yes"/>
      <point x="171" y="533"/>
      <point x="112" y="502"/>
      <point x="64" y="464" type="curve"/>
      <point x="75" y="448" type="line"/>
      <point x="120" y="481"/>
      <point x="174" y="513"/>
      <point x="252" y="513" type="curve" smooth="yes"/>
      <point x="346" y="513"/>
      <point x="399" y="480"/>
      <point x="399" y="384" type="curve" smooth="yes"/>
      <point x="399" y="0" type="line"/>
    </contour>
    <contour>
      <point x="412" y="0" type="line"/>
      <point x="505" y="0" type="line"/>
      <point x="505" y="20" type="line"/>
      <point x="412" y="20" type="line"/>
    </contour>
    <contour>
      <point x="404" y="164" type="line"/>
      <point x="346" y="87"/>
      <point x="295" y="20"/>
      <point x="200" y="20" type="curve" smooth="yes"/>
      <point x="121" y="20"/>
      <point x="70" y="76"/>
      <point x="70" y="157" type="curve" smooth="yes"/>
      <point x="70" y="227"/>
      <point x="126" y="264"/>
      <point x="200" y="274" type="curve" smooth="yes"/>
      <point x="276" y="285"/>
      <point x="334" y="293"/>
      <point x="410" y="302" type="curve"/>
      <point x="409" y="319" type="line"/>
      <point x="334" y="309"/>
      <point x="276" y="302"/>
      <point x="201" y="292" type="curve" smooth="yes"/>
      <point x="115" y="280"/>
      <point x="48" y="237"/>
      <point x="48" y="155" type="curve" smooth="yes"/>
      <point x="48" y="64"/>
      <point x="106" y="0"/>
      <point x="196" y="0" type="curve" smooth="yes"/>
      <point x="298" y="0"/>
      <point x="356" y="70"/>
      <point x="415" y="155" type="curve"/>
    </contour>
  </outline>
</glyph>
<glyph name="aideva" format="1">
  <advance width="590"/>
  <outline>
    <contour>
      <point x="67" y="994" type="line"/>
      <point x="107" y="1011"/>
      <point x="147" y="1028"/>
      <point x="191" y="1028" type="curve" smooth="yes"/>
      <point x="362" y="1028"/>
      <point x="406" y="868"/>
      <point x="477" y="705" type="curve"/>
      <point x="497" y="710" type="line"/>
      <point x="423" y="882"/>
      <point x="374" y="1051"/>
      <point x="194" y="1051" type="curve" smooth="yes"/>
      <point x="146" y="1051"/>
      <point x="101" y="1035"/>
      <point x="57" y="1016" type="curve"/>
    </contour>
    <contour>
      <point x="440" y="8" type="line"/>
      <point x="242" y="90"/>
      <point x="119" y="223"/>
      <point x="119" y="434" type="curve" smooth="yes"/>
      <point x="119" y="711" type="line"/>
      <point x="97" y="711" type="line"/>
      <point x="97" y="430" type="line" smooth="yes"/>
      <point x="97" y="210"/>
      <point x="225" y="70"/>
      <point x="433" y="-12" type="curve"/>
    </contour>
    <contour>
      <point x="354" y="253" type="line"/>
      <point x="450" y="314"/>
      <point x="497" y="395"/>
      <point x="497" y="509" type="curve" smooth="yes"/>
      <point x="497" y="711" type="line"/>
      <point x="475" y="711" type="line"/>
      <point x="475" y="506" type="line" smooth="yes"/>
      <point x="475" y="401"/>
      <point x="430" y="327"/>
      <point x="341" y="271" type="curve"/>
    </contour>
    <contour>
      <point x="-13" y="700" type="line"/>
      <point x="602" y="700" type="line"/>
      <point x="602" y="722" type="line"/>
      <point x="-13" y="722" type="line"/>
    </contour>
  </outline>
</glyph>
<glyph name="aivowelsigndeva" format="1">
  <advance width="0"/>
  <outline>
    <contour>
      <point x="-460" y="870" type="line"/>
      <point x="-435" y="888"/>
      <point x="-405" y="897"/>
      <point x="-374" y="897" type="curve" smooth="yes"/>
      <point x="-253" y="897"/>
      <point x="-194" y="808"/>
      <point x="-129" y="703" type="curve"/>
      <point x="-112" y="708" type="line"/>
      <point x="-179" y="822"/>
      <point x="-241" y="920"/>
      <point x="-371" y="920" type="curve" smooth="yes"/>
      <point x="-406" y="920"/>
      <point x="-441" y="911"/>
      <point x="-470" y="891" type="curve"/>
    </contour>
    <contour>
      <point x="-403" y="1007" type="line"/>
      <point x="-382" y="1021"/>
      <point x="-358" y="1031"/>
      <point x="-332" y="1031" type="curve" smooth="yes"/>
      <point x="-176" y="1031"/>
      <point x="-168" y="865"/>
      <point x="-128" y="703" type="curve"/>
      <point x="-109" y="708" type="line"/>
      <point x="-152" y="879"/>
      <point x="-164" y="1054"/>
      <point x="-329" y="1054" type="curve" smooth="yes"/>
      <point x="-359" y="1054"/>
      <point x="-388" y="1045"/>
      <point x="-413" y="1028" type="curve"/>
    </contour>
  </outline>
</glyph>
<glyph name="dash" format="1">
  <advance width="632"/>
  <outline>
    <contour>
      <point x="645" y="175" type="line"/>
      <point x="-12" y="175" type="line"/>
      <point x="-12" y="153" type="line"/>
      <point x="645" y="153" type="line"/>
    </contour>
    <contour>
      <point x="-12" y="-24" type="line"/>
      <point x="645" y="-24" type="line"/>
      <point x="645" y="-2" type="line"/>
      <point x="-12" y="-2" type="line"/>
    </contour>
    <contour>
      <point x="645" y="-185" type="line"/>
      <point x="-12" y="-185" type="line"/>
      <point x="-12" y="-207" type="line"/>
      <point x="645" y="-207" type="line"/>
    </contour>
    <contour>
      <point x="-12" y="-385" type="line"/>
      <point x="645" y="-385" type="line"/>
      <point x="645" y="-363" type="line"/>
      <point x="-12" y="-363" type="line"/>
    </contour>
    <contour>
      <point x="-12" y="334" type="line"/>
      <point x="645" y="334" type="line"/>
      <point x="645" y="356" type="line"/>
      <point x="-12" y="356" type="line"/>
    </contour>
    <contour>
      <point x="645" y="538" type="line"/>
      <point x="-12" y="538" type="line"/>
      <point x="-12" y="516" type="line"/>
      <point x="645" y="516" type="line"/>
    </contour>
    <contour>
      <point x="-12" y="700" type="line"/>
      <point x="645" y="700" type="line"/>
      <point x="645" y="722" type="line"/>
      <point x="-12" y="722" type="line"/>
    </contour>
  </outline>
</glyph>
<glyph name="dhadeva_viramadeva_radeva" format="1">
  <advance width="647"/>
  <outline>
    <contour>
      <point x="262" y="-30" type="line"/>
      <point x="246" y="-13" type="line"/>
      <point x="504" y="248" type="line"/>
      <point x="515" y="235" type="line"/>
    </contour>
    <contour>
      <point x="659" y="700" type="line"/>
      <point x="366" y="700" type="line"/>
      <point x="366" y="722" type="line"/>
      <point x="659" y="722" type="line"/>
    </contour>
    <contour>
      <point x="502" y="710" type="line"/>
      <point x="524" y="710" type="line"/>
      <point x="524" y="0" type="line"/>
      <point x="502" y="0" type="line"/>
    </contour>
    <contour>
      <point x="254" y="525" type="line"/>
      <point x="290" y="537"/>
      <point x="307" y="568"/>
      <point x="307" y="607" type="curve" smooth="yes"/>
      <point x="307" y="667"/>
      <point x="257" y="701"/>
      <point x="194" y="701" type="curve" smooth="yes"/>
      <point x="125" y="701"/>
      <point x="75" y="656"/>
      <point x="74" y="587" type="curve" smooth="yes"/>
      <point x="73" y="475"/>
      <point x="195" y="451"/>
      <point x="326" y="451" type="curve"/>
      <point x="326" y="433" type="line"/>
      <point x="183" y="433"/>
      <point x="52" y="463"/>
      <point x="52" y="586" type="curve" smooth="yes"/>
      <point x="52" y="668"/>
      <point x="113" y="721"/>
      <point x="196" y="721" type="curve" smooth="yes"/>
      <point x="270" y="721"/>
      <point x="327" y="679"/>
      <point x="327" y="609" type="curve" smooth="yes"/>
      <point x="327" y="562"/>
      <point x="307" y="524"/>
      <point x="263" y="509" type="curve"/>
    </contour>
    <contour>
      <point x="326" y="433" type="line"/>
      <point x="187" y="433"/>
      <point x="63" y="394"/>
      <point x="62" y="273" type="curve" smooth="yes"/>
      <point x="61" y="168"/>
      <point x="160" y="121"/>
      <point x="277" y="121" type="curve" smooth="yes"/>
      <point x="386" y="121"/>
      <point x="461" y="186"/>
      <point x="504" y="287" type="curve"/>
      <point x="521" y="277" type="line"/>
      <point x="477" y="166"/>
      <point x="393" y="99"/>
      <point x="275" y="99" type="curve" smooth="yes"/>
      <point x="147" y="99"/>
      <point x="40" y="155"/>
      <point x="40" y="271" type="curve" smooth="yes"/>
      <point x="40" y="404"/>
      <point x="174" y="451"/>
      <point x="326" y="451" type="curve"/>
    </contour>
  </outline>
</glyph>
<glyph name="fivedeva.loclNEP" format="1">
  <advance width="1115"/>
  <outline>
    <contour>
      <point x="1025" y="-37" type="line"/>
      <point x="985" y="-51"/>
      <point x="961" y="-55"/>
      <point x="941" y="-55" type="curve" smooth="yes"/>
      <point x="895" y="-55"/>
      <point x="863" y="-31"/>
      <point x="834" y="23" type="curve"/>
      <point x="914" y="70"/>
      <point x="945" y="144"/>
      <point x="945" y="224" type="curve" smooth="yes"/>
      <point x="945" y="322"/>
      <point x="908" y="401"/>
      <point x="799" y="542" type="curve"/>
      <point x="809" y="550"/>
      <point x="817" y="558"/>
      <point x="825" y="567" type="curve" smooth="yes"/>
      <point x="873" y="619"/>
      <point x="919" y="700"/>
      <point x="932" y="758" type="curve" smooth="yes"/>
      <point x="938" y="782"/>
      <point x="937" y="801"/>
      <point x="913" y="817" type="curve" smooth="yes"/>
      <point x="862" y="853"/>
      <point x="775" y="888"/>
      <point x="682" y="888" type="curve" smooth="yes"/>
      <point x="630" y="888"/>
      <point x="600" y="861"/>
      <point x="600" y="804" type="curve" smooth="yes"/>
      <point x="600" y="768"/>
      <point x="619" y="708"/>
      <point x="640" y="666" type="curve"/>
      <point x="578" y="592"/>
      <point x="504" y="562"/>
      <point x="426" y="554" type="curve" smooth="yes"/>
      <point x="365" y="548"/>
      <point x="313" y="563"/>
      <point x="301" y="575" type="curve" smooth="yes"/>
      <point x="272" y="604"/>
      <point x="247" y="674"/>
      <point x="247" y="735" type="curve" smooth="yes"/>
      <point x="247" y="880"/>
      <point x="304" y="1034"/>
      <point x="507" y="1225" type="curve"/>
      <point x="347" y="1304" type="line"/>
      <point x="157" y="1125"/>
      <point x="92" y="979"/>
      <point x="90" y="822" type="curve" smooth="yes"/>
      <point x="87" y="614"/>
      <point x="295" y="424"/>
      <point x="478" y="424" type="curve" smooth="yes"/>
      <point x="565" y="424"/>
      <point x="667" y="454"/>
      <point x="747" y="504" type="curve"/>
      <point x="792" y="434"/>
      <point x="810" y="366"/>
      <point x="807" y="315" type="curve" smooth="yes"/>
      <point x="805" y="257"/>
      <point x="787" y="216"/>
      <point x="751" y="180" type="curve"/>
      <point x="715" y="237"/>
      <point x="679" y="274"/>
      <point x="652" y="274" type="curve" smooth="yes"/>
      <point x="599" y="274"/>
      <point x="503" y="192"/>
      <point x="503" y="114" type="curve" smooth="yes"/>
      <point x="503" y="61"/>
      <point x="594" y="-2"/>
      <point x="699" y="-2" type="curve" smooth="yes"/>
      <point x="719" y="-2"/>
      <point x="739" y="0"/>
      <point x="760" y="4" type="curve"/>
      <point x="802" y="-133"/>
      <point x="831" y="-210"/>
      <point x="956" y="-216" type="curve" smooth="yes"/>
      <point x="992" y="-218"/>
      <point x="1014" y="-215"/>
      <point x="1068" y="-193" type="curve"/>
    </contour>
  </outline>
</glyph>
<glyph name="hadeva_rvocalicvowelsigndeva" format="1">
  <advance width="1126"/>
  <outline>
    <contour>
      <point x="708" y="-5"/>
      <point x="679" y="2"/>
      <point x="673" y="8" type="curve" smooth="yes"/>
      <point x="668" y="13"/>
      <point x="664" y="26"/>
      <point x="664" y="41" type="curve" smooth="yes"/>
      <point x="664" y="122"/>
      <point x="915" y="174"/>
      <point x="915" y="271" type="curve" smooth="yes"/>
      <point x="915" y="436"/>
      <point x="715" y="565"/>
      <point x="531" y="565" type="curve" smooth="yes"/>
      <point x="452" y="565"/>
      <point x="367" y="550"/>
      <point x="294" y="515" type="curve"/>
      <point x="281" y="551"/>
      <point x="275" y="583"/>
      <point x="275" y="615" type="curve" smooth="yes"/>
      <point x="275" y="675"/>
      <point x="304" y="730"/>
      <point x="417" y="730" type="curve" smooth="yes"/>
      <point x="818" y="730" type="line"/>
      <point x="823" y="774"/>
      <point x="824" y="801"/>
      <point x="824" y="830" type="curve" smooth="yes"/>
      <point x="824" y="908"/>
      <point x="814" y="989"/>
      <point x="796" y="1053" type="curve"/>
      <point x="1181" y="1053" type="line"/>
      <point x="1130" y="1187" type="line"/>
      <point x="-57" y="1187" type="line"/>
      <point x="-2" y="1053" type="line"/>
      <point x="664" y="1053" type="line"/>
      <point x="669" y="1015"/>
      <point x="671" y="977"/>
      <point x="671" y="934" type="curve" smooth="yes"/>
      <point x="671" y="911"/>
      <point x="670" y="891"/>
      <point x="669" y="878" type="curve"/>
      <point x="362" y="878" type="line" smooth="yes"/>
      <point x="251" y="878"/>
      <point x="131" y="847"/>
      <point x="120" y="710" type="curve"/>
      <point x="120" y="634"/>
      <point x="161" y="554"/>
      <point x="225" y="474" type="curve"/>
      <point x="148" y="418"/>
      <point x="96" y="332"/>
      <point x="96" y="211" type="curve" smooth="yes"/>
      <point x="96" y="-129"/>
      <point x="503" y="-313"/>
      <point x="696" y="-365" type="curve"/>
      <point x="744" y="-267" type="line"/>
      <point x="391" y="-136"/>
      <point x="273" y="21"/>
      <point x="273" y="186" type="curve" smooth="yes"/>
      <point x="273" y="366"/>
      <point x="430" y="441"/>
      <point x="576" y="441" type="curve" smooth="yes"/>
      <point x="625" y="441"/>
      <point x="726" y="428"/>
      <point x="777" y="382" type="curve" smooth="yes"/>
      <point x="790" y="370"/>
      <point x="799" y="360"/>
      <point x="802" y="343" type="curve"/>
      <point x="802" y="296"/>
      <point x="525" y="216"/>
      <point x="525" y="113" type="curve" smooth="yes"/>
      <point x="525" y="-27"/>
      <point x="713" y="-117"/>
      <point x="824" y="-117" type="curve" smooth="yes"/>
      <point x="888" y="-117"/>
      <point x="981" y="-103"/>
      <point x="1087" y="46" type="curve"/>
      <point x="985" y="154" type="line"/>
      <point x="874" y="13"/>
      <point x="802" y="-5"/>
      <point x="730" y="-5" type="curve" smooth="yes"/>
    </contour>
  </outline>
</glyph>
<glyph name="hadeva_viramadeva_madeva" format="1">
  <advance width="1437"/>
  <outline>
    <contour>
      <point x="1311" y="1053" type="line"/>
      <point x="1491" y="1053" type="line"/>
      <point x="1440" y="1187" type="line"/>
      <point x="-64" y="1187" type="line"/>
      <point x="-9" y="1053" type="line"/>
      <point x="634" y="1053" type="line"/>
      <point x="639" y="1015"/>
      <point x="641" y="977"/>
      <point x="641" y="934" type="curve" smooth="yes"/>
      <point x="641" y="911"/>
      <point x="640" y="891"/>
      <point x="639" y="878" type="curve"/>
      <point x="332" y="878" type="line" smooth="yes"/>
      <point x="221" y="878"/>
      <point x="101" y="847"/>
      <point x="90" y="710" type="curve"/>
      <point x="90" y="632"/>
      <point x="134" y="550"/>
      <point x="200" y="468" type="curve"/>
      <point x="137" y="416"/>
      <point x="94" y="344"/>
      <point x="94" y="250" type="curve" smooth="yes"/>
      <point x="94" y="-176"/>
      <point x="619" y="-293"/>
      <point x="799" y="-313" type="curve"/>
      <point x="836" y="-208" type="line"/>
      <point x="389" y="-116"/>
      <point x="271" y="28"/>
      <point x="271" y="209" type="curve" smooth="yes"/>
      <point x="271" y="376"/>
      <point x="428" y="457"/>
      <point x="570" y="457" type="curve" smooth="yes"/>
      <point x="650" y="457"/>
      <point x="705" y="450"/>
      <point x="721" y="422" type="curve" smooth="yes"/>
      <point x="733" y="401"/>
      <point x="733" y="347"/>
      <point x="733" y="318" type="curve" smooth="yes"/>
      <point x="733" y="223" type="line"/>
      <point x="720" y="223" type="line" smooth="yes"/>
      <point x="681" y="223"/>
      <point x="565" y="223"/>
      <point x="565" y="175" type="curve" smooth="yes"/>
      <point x="565" y="95"/>
      <point x="754" y="-93"/>
      <point x="823" y="-93" type="curve" smooth="yes"/>
      <point x="880" y="-93"/>
      <point x="890" y="13"/>
      <point x="890" y="83" type="curve"/>
      <point x="1157" y="83" type="line"/>
      <point x="1157" y="-43" type="line"/>
      <point x="1311" y="-102" type="line"/>
    </contour>
    <contour>
      <point x="1157" y="1053" type="line"/>
      <point x="1157" y="218" type="line"/>
      <point x="888" y="218" type="line"/>
      <point x="888" y="325" type="line"/>
      <point x="881" y="464"/>
      <point x="728" y="578"/>
      <point x="518" y="578" type="curve" smooth="yes"/>
      <point x="441" y="578"/>
      <point x="346" y="557"/>
      <point x="265" y="512" type="curve"/>
      <point x="251" y="549"/>
      <point x="245" y="582"/>
      <point x="245" y="615" type="curve" smooth="yes"/>
      <point x="245" y="675"/>
      <point x="274" y="730"/>
      <point x="387" y="730" type="curve" smooth="yes"/>
      <point x="788" y="730" type="line"/>
      <point x="793" y="774"/>
      <point x="794" y="801"/>
      <point x="794" y="830" type="curve" smooth="yes"/>
      <point x="794" y="908"/>
      <point x="784" y="989"/>
      <point x="766" y="1053" type="curve"/>
    </contour>
  </outline>
</glyph>
<glyph name="iiMatra_reph_anusvaradeva" format="1">
  <advance width="502"/>
  <outline>
    <contour>
      <point x="504" y="1187" type="line"/>
      <point x="343" y="1187" type="line"/>
      <point x="324" y="1239"/>
      <point x="304" y="1286"/>
      <point x="282" y="1328" type="curve"/>
      <point x="269" y="1367"/>
      <point x="263" y="1404"/>
      <point x="265" y="1433" type="curve" smooth="yes"/>
      <point x="271" y="1517"/>
      <point x="342" y="1556"/>
      <point x="417" y="1556" type="curve" smooth="yes"/>
      <point x="461" y="1556"/>
      <point x="516" y="1543"/>
      <point x="594" y="1492" type="curve"/>
      <point x="568" y="1618" type="line"/>
      <point x="491" y="1679"/>
      <point x="395" y="1689"/>
      <point x="353" y="1689" type="curve" smooth="yes"/>
      <point x="270" y="1689"/>
      <point x="157" y="1652"/>
      <point x="132" y="1541" type="curve"/>
      <point x="15" y="1661"/>
      <point x="-116" y="1707"/>
      <point x="-227" y="1707" type="curve" smooth="yes"/>
      <point x="-380" y="1707"/>
      <point x="-479" y="1622"/>
      <point x="-479" y="1501" type="curve" smooth="yes"/>
      <point x="-479" y="1387"/>
      <point x="-400" y="1309"/>
      <point x="-297" y="1247" type="curve"/>
      <point x="-242" y="1283" type="line"/>
      <point x="-275" y="1337"/>
      <point x="-307" y="1385"/>
      <point x="-307" y="1451" type="curve" smooth="yes"/>
      <point x="-307" y="1544"/>
      <point x="-227" y="1608"/>
      <point x="-147" y="1608" type="curve" smooth="yes"/>
      <point x="-124" y="1608"/>
      <point x="-93" y="1605"/>
      <point x="-64" y="1593" type="curve" smooth="yes"/>
      <point x="-6" y="1568"/>
      <point x="148" y="1385"/>
      <point x="187" y="1187" type="curve"/>
      <point x="-57" y="1187" type="line"/>
      <point x="-1" y="1053" type="line"/>
      <point x="196" y="1053" type="line"/>
      <point x="196" y="-39" type="line"/>
      <point x="350" y="-103" type="line"/>
      <point x="350" y="1053" type="line"/>
      <point x="553" y="1053" type="line"/>
    </contour>
    <contour>
      <point x="420" y="1490"/>
      <point x="336" y="1413"/>
      <point x="336" y="1377" type="curve" smooth="yes"/>
      <point x="336" y="1340"/>
      <point x="422" y="1264"/>
      <point x="448" y="1264" type="curve" smooth="yes"/>
      <point x="475" y="1264"/>
      <point x="561" y="1340"/>
      <point x="561" y="1377" type="curve" smooth="yes"/>
      <point x="561" y="1413"/>
      <point x="482" y="1490"/>
      <point x="448" y="1490" type="curve" smooth="yes"/>
    </contour>
  </outline>
</glyph>
<glyph name="iiMatra_rephdeva.02" format="1">
  <advance width="526"/>
  <outline>
    <contour>
      <point x="576" y="1053" type="line"/>
      <point x="526" y="1187" type="line"/>
      <point x="338" y="1187" type="line"/>
      <point x="318" y="1208"/>
      <point x="297" y="1228"/>
      <point x="276" y="1248" type="curve"/>
      <point x="241" y="1306"/>
      <point x="218" y="1384"/>
      <point x="222" y="1433" type="curve" smooth="yes"/>
      <point x="228" y="1517"/>
      <point x="299" y="1556"/>
      <point x="374" y="1556" type="curve" smooth="yes"/>
      <point x="418" y="1556"/>
      <point x="473" y="1543"/>
      <point x="551" y="1492" type="curve"/>
      <point x="525" y="1618" type="line"/>
      <point x="448" y="1679"/>
      <point x="352" y="1689"/>
      <point x="310" y="1689" type="curve" smooth="yes"/>
      <point x="216" y="1689"/>
      <point x="84" y="1641"/>
      <point x="84" y="1493" type="curve" smooth="yes"/>
      <point x="84" y="1457"/>
      <point x="94" y="1422"/>
      <point x="111" y="1389" type="curve"/>
      <point x="-162" y="1599"/>
      <point x="-446" y="1712"/>
      <point x="-645" y="1712" type="curve" smooth="yes"/>
      <point x="-826" y="1712"/>
      <point x="-930" y="1623"/>
      <point x="-930" y="1502" type="curve" smooth="yes"/>
      <point x="-930" y="1388"/>
      <point x="-851" y="1300"/>
      <point x="-748" y="1238" type="curve"/>
      <point x="-693" y="1274" type="line"/>
      <point x="-726" y="1328"/>
      <point x="-754" y="1373"/>
      <point x="-754" y="1445" type="curve" smooth="yes"/>
      <point x="-754" y="1547"/>
      <point x="-658" y="1601"/>
      <point x="-558" y="1601" type="curve" smooth="yes"/>
      <point x="-473" y="1601"/>
      <point x="-159" y="1536"/>
      <point x="162" y="1187" type="curve"/>
      <point x="-58" y="1187" type="line"/>
      <point x="-1" y="1053" type="line"/>
      <point x="186" y="1053" type="line"/>
      <point x="186" y="-39" type="line"/>
      <point x="340" y="-102" type="line"/>
      <point x="340" y="1053" type="line"/>
    </contour>
  </outline>
</glyph>
<glyph name="iiMatra_rephdeva" format="1">
  <advance width="502"/>
  <outline>
    <contour>
      <point x="504" y="1187" type="line"/>
      <point x="343" y="1187" type="line"/>
      <point x="323" y="1243"/>
      <point x="301" y="1293"/>
      <point x="277" y="1338" type="curve"/>
      <point x="266" y="1373"/>
      <point x="261" y="1407"/>
      <point x="263" y="1433" type="curve" smooth="yes"/>
      <point x="269" y="1517"/>
      <point x="340" y="1556"/>
      <point x="415" y="1556" type="curve" smooth="yes"/>
      <point x="459" y="1556"/>
      <point x="514" y="1543"/>
      <point x="592" y="1492" type="curve"/>
      <point x="566" y="1618" type="line"/>
      <point x="489" y="1679"/>
      <point x="393" y="1689"/>
      <point x="351" y="1689" type="curve" smooth="yes"/>
      <point x="268" y="1689"/>
      <point x="157" y="1652"/>
      <point x="131" y="1543" type="curve"/>
      <point x="13" y="1661"/>
      <point x="-117" y="1707"/>
      <point x="-227" y="1707" type="curve" smooth="yes"/>
      <point x="-380" y="1707"/>
      <point x="-479" y="1622"/>
      <point x="-479" y="1501" type="curve" smooth="yes"/>
      <point x="-479" y="1387"/>
      <point x="-400" y="1309"/>
      <point x="-297" y="1247" type="curve"/>
      <point x="-242" y="1283" type="line"/>
      <point x="-275" y="1337"/>
      <point x="-307" y="1385"/>
      <point x="-307" y="1451" type="curve" smooth="yes"/>
      <point x="-307" y="1544"/>
      <point x="-227" y="1608"/>
      <point x="-147" y="1608" type="curve" smooth="yes"/>
      <point x="-124" y="1608"/>
      <point x="-93" y="1605"/>
      <point x="-64" y="1593" type="curve" smooth="yes"/>
      <point x="-6" y="1568"/>
      <point x="148" y="1385"/>
      <point x="187" y="1187" type="curve"/>
      <point x="-57" y="1187" type="line"/>
      <point x="-1" y="1053" type="line"/>
      <point x="196" y="1053" type="line"/>
      <point x="196" y="-39" type="line"/>
      <point x="350" y="-103" type="line"/>
      <point x="350" y="1053" type="line"/>
      <point x="553" y="1053" type="line"/>
    </contour>
  </outline>
</glyph>
